<mxfile host="Electron" modified="2024-10-18T23:47:25.392Z" agent="Mozilla/5.0 (Windows NT 10.0; Win64; x64) AppleWebKit/537.36 (KHTML, like Gecko) draw.io/24.4.0 Chrome/120.0.6099.109 Electron/28.1.0 Safari/537.36" etag="cWZGVxmSNWWbbmfqpQzm" version="24.4.0" type="device">
  <diagram name="PÃ¡gina-1" id="WOTq9Jcgdien_YjZW5h-">
    <mxGraphModel dx="1393" dy="830" grid="1" gridSize="10" guides="1" tooltips="1" connect="1" arrows="1" fold="1" page="1" pageScale="1" pageWidth="1169" pageHeight="827" math="0" shadow="0">
      <root>
        <mxCell id="0" />
        <mxCell id="1" parent="0" />
        <mxCell id="pdbDPgBVpFcdV0zUKIh2-11" style="rounded=0;orthogonalLoop=1;jettySize=auto;html=1;entryX=0.5;entryY=0;entryDx=0;entryDy=0;exitX=0;exitY=0.5;exitDx=0;exitDy=0;dashed=1;strokeColor=#333636;strokeWidth=3;align=center;verticalAlign=middle;fontFamily=Helvetica;fontSize=11;fontColor=default;labelBackgroundColor=default;endArrow=block;endFill=1;endSize=20;" edge="1" parent="1" source="pdbDPgBVpFcdV0zUKIh2-2" target="pdbDPgBVpFcdV0zUKIh2-7">
          <mxGeometry relative="1" as="geometry" />
        </mxCell>
        <mxCell id="pdbDPgBVpFcdV0zUKIh2-2" value="&lt;font size=&quot;1&quot; style=&quot;&quot;&gt;&lt;b style=&quot;font-size: 25px;&quot;&gt;MODELO&lt;/b&gt;&lt;/font&gt;&lt;div&gt;&lt;br&gt;&lt;/div&gt;&lt;div&gt;&lt;br&gt;&lt;/div&gt;&lt;div style=&quot;&quot;&gt;&lt;span style=&quot;font-size: 20px;&quot;&gt;Paquetes:&lt;/span&gt;&lt;/div&gt;&lt;div style=&quot;&quot;&gt;&lt;span style=&quot;font-size: 20px;&quot;&gt;- model&lt;/span&gt;&lt;/div&gt;&lt;div style=&quot;&quot;&gt;&lt;span style=&quot;font-size: 20px;&quot;&gt;- service&lt;/span&gt;&lt;/div&gt;&lt;div style=&quot;&quot;&gt;&lt;span style=&quot;font-size: 20px;&quot;&gt;- auth&lt;/span&gt;&lt;/div&gt;" style="rounded=1;whiteSpace=wrap;html=1;fillColor=#EBF9FA;fontColor=#333333;strokeColor=#6F6F70;shadow=1;glass=0;gradientColor=#DDE6E6;shadowOffsetX=5;shadowOffsetY=5;shadowBlur=3;" vertex="1" parent="1">
          <mxGeometry x="475.5" y="50" width="250" height="190" as="geometry" />
        </mxCell>
        <mxCell id="pdbDPgBVpFcdV0zUKIh2-8" style="edgeStyle=orthogonalEdgeStyle;rounded=0;orthogonalLoop=1;jettySize=auto;html=1;entryX=1;entryY=0.689;entryDx=0;entryDy=0;strokeWidth=3;endSize=20;strokeColor=#333636;endArrow=block;endFill=1;entryPerimeter=0;" edge="1" parent="1" target="pdbDPgBVpFcdV0zUKIh2-7">
          <mxGeometry relative="1" as="geometry">
            <mxPoint x="780" y="430" as="sourcePoint" />
            <Array as="points">
              <mxPoint x="603" y="431" />
            </Array>
          </mxGeometry>
        </mxCell>
        <mxCell id="pdbDPgBVpFcdV0zUKIh2-9" style="rounded=0;orthogonalLoop=1;jettySize=auto;html=1;strokeColor=#333636;strokeWidth=3;align=center;verticalAlign=middle;fontFamily=Helvetica;fontSize=11;fontColor=default;labelBackgroundColor=default;endArrow=block;endFill=1;endSize=20;exitX=0.5;exitY=0;exitDx=0;exitDy=0;entryX=1;entryY=0.5;entryDx=0;entryDy=0;" edge="1" parent="1" source="pdbDPgBVpFcdV0zUKIh2-6" target="pdbDPgBVpFcdV0zUKIh2-2">
          <mxGeometry relative="1" as="geometry" />
        </mxCell>
        <mxCell id="pdbDPgBVpFcdV0zUKIh2-6" value="&lt;font size=&quot;1&quot; style=&quot;&quot;&gt;&lt;b style=&quot;font-size: 25px;&quot;&gt;CONTROLADOR&lt;/b&gt;&lt;/font&gt;&lt;div&gt;&lt;br&gt;&lt;/div&gt;&lt;div&gt;&lt;div&gt;&lt;br&gt;&lt;/div&gt;&lt;div style=&quot;&quot;&gt;&lt;span style=&quot;font-size: 20px;&quot;&gt;Paquetes:&lt;/span&gt;&lt;/div&gt;&lt;div style=&quot;&quot;&gt;&lt;span style=&quot;font-size: 20px;&quot;&gt;- controller&lt;/span&gt;&lt;/div&gt;&lt;/div&gt;&lt;div style=&quot;&quot;&gt;&lt;span style=&quot;font-size: 20px;&quot;&gt;AppController.java&lt;/span&gt;&lt;/div&gt;" style="rounded=1;whiteSpace=wrap;html=1;fillColor=#EBF9FA;fontColor=#333333;strokeColor=#6F6F70;shadow=1;glass=0;gradientColor=#DDE6E6;align=center;verticalAlign=middle;shadowOffsetX=5;shadowOffsetY=5;shadowBlur=3;fontFamily=Helvetica;fontSize=12;" vertex="1" parent="1">
          <mxGeometry x="785.5" y="300" width="250" height="190" as="geometry" />
        </mxCell>
        <mxCell id="pdbDPgBVpFcdV0zUKIh2-10" style="edgeStyle=orthogonalEdgeStyle;rounded=0;orthogonalLoop=1;jettySize=auto;html=1;strokeColor=#333636;strokeWidth=3;align=center;verticalAlign=middle;fontFamily=Helvetica;fontSize=11;fontColor=default;labelBackgroundColor=default;endArrow=block;endFill=1;endSize=20;dashed=1;" edge="1" parent="1" source="pdbDPgBVpFcdV0zUKIh2-7">
          <mxGeometry relative="1" as="geometry">
            <mxPoint x="786" y="360" as="targetPoint" />
            <Array as="points">
              <mxPoint x="786" y="360" />
            </Array>
          </mxGeometry>
        </mxCell>
        <mxCell id="pdbDPgBVpFcdV0zUKIh2-7" value="&lt;font size=&quot;1&quot; style=&quot;&quot;&gt;&lt;b style=&quot;font-size: 25px;&quot;&gt;VISTA&lt;/b&gt;&lt;/font&gt;&lt;div&gt;&lt;br&gt;&lt;/div&gt;&lt;div style=&quot;&quot;&gt;&lt;span style=&quot;font-size: 20px;&quot;&gt;Main (Application.java)&lt;/span&gt;&lt;/div&gt;&lt;div style=&quot;&quot;&gt;&lt;span style=&quot;font-size: 20px;&quot;&gt;&lt;br&gt;&lt;/span&gt;&lt;/div&gt;&lt;div style=&quot;&quot;&gt;&lt;span style=&quot;font-size: 20px;&quot;&gt;Resources:&lt;/span&gt;&lt;/div&gt;&lt;div style=&quot;&quot;&gt;&lt;span style=&quot;font-size: 20px;&quot;&gt;- archivos .fxml&lt;/span&gt;&lt;/div&gt;&lt;div style=&quot;&quot;&gt;&lt;span style=&quot;font-size: 20px;&quot;&gt;- css&lt;/span&gt;&lt;span style=&quot;font-size: 20px;&quot;&gt;&lt;br&gt;&lt;/span&gt;&lt;/div&gt;" style="rounded=1;whiteSpace=wrap;html=1;fillColor=#EBF9FA;fontColor=#333333;strokeColor=#6F6F70;shadow=1;glass=0;gradientColor=#DDE6E6;align=center;verticalAlign=middle;shadowOffsetX=5;shadowOffsetY=5;shadowBlur=3;fontFamily=Helvetica;fontSize=12;" vertex="1" parent="1">
          <mxGeometry x="165.5" y="300" width="250" height="190" as="geometry" />
        </mxCell>
        <mxCell id="pdbDPgBVpFcdV0zUKIh2-5" value="" style="group;shadow=1;shadowOffsetX=8;shadowOffsetY=11;" vertex="1" connectable="0" parent="1">
          <mxGeometry x="530" y="510" width="191.62" height="265" as="geometry" />
        </mxCell>
        <mxCell id="pdbDPgBVpFcdV0zUKIh2-12" value="" style="shape=image;imageAspect=0;aspect=fixed;verticalLabelPosition=bottom;verticalAlign=top;image=data:image/png,iVBORw0KGgoAAAANSUhEUgAAAdIAAALACAYAAAAnlvM7AACAAElEQVR42uydB3hTZRfHb3MzulvapHtPWtokHRQ62ENkiQiighNUEFwMkaEgQ0UQQQUEFQSZbQFZIsgWRAEZAuL4EGTJFBVl0/e756apoXQkzWjG//d854FPOpJ73/v+c857BscBAAAAAADgrATIuVSVVPKmYPuVUkmJYJcCeb4HrgwAAABQBUqptKlS6rZeEE5WaiUGf/6t5DgfXCUAAACgHIFSactAKb/NQEArNHilAAAAgKEHquCSBA90eXUCWma85ENcNQAAAC5PHY7zE4RxomA3jBZRqeSmSsp/jasHAADApQnk+U6CKJ4qdwZqrJ3BFQQAAOCSqDguJFDqVmyicN5huJIAAABcT0Rl/GOCCP5lroiSBXCcL64oAAAAl8CH4wJVUrfFNQzjViakkbiyAAAAnJ4AqbS1IHy/W0I8DS3EnYvB1QUAAOC0CCrnHiiVTLKkFwohBQAA4BIEKbh4Qez2WEtEIaQAAACclkCev1ds42cF8TQ0yv7F1QYAAOBMyASBe9uaXqih+XOcPy45AAAA5/BCOS7coEeu1UWULIbj3Ct7PWfmpwWfKNS2O1mkHniySDv+RJF27KnC9CzcKQAAAHZHgIxrSJ2GbCGeBnatotdybGFa/IliTe9TRZoJZCSi+j9JTH/5PEGBOwYAAMB+PFGef1QQtes2FtE7WgQeL9YmnizU9NMLaKUGrxQAAICdwNvyPLSc0e/7kV7E74UZqpPFmieqFdBSE7zSrrh1AAAAahVK8gmUun1RSyIq/s4gOf/1yUJ1x5PF6reMFVH62pNFmmdxBwEAANQaQQoujrzBWhDP26xxotd+wzNQo8W0SDsSdxEAAECtoJRx2YKInattESXrnOO/yxQBNTTcSQAAALYXUZ5vLwjYlVoK5d5hvVoFbK6pkB6ZFeOOOwoAAMCGnqiktyBet0qN2YO90i10VY2FdKkWjRwAAADYBDeVVPJ6qXjZjYiSTekbtaimQnq8sF4Abi0AAABrI1PJJLNrMTO3Sls+OmEmhBQAAIBdEsZxnkqp2wp7E09DOzgzbTKEFAAAgN1Rh+P8lFJ+iz2LaISX9EpNRZTs3LJkH9xpAAAAFieE41SCUO22ZxFVySQsM8L9pDlCerww1wN3GwAAgEWh2Z6CUB2wZxHV213pPgfNEVK2sakUdxwAAIDFCOC4CCUvOewIIkr2RHPl1pqK6MkizTjccQAAAC4romSv9QhZXnMhRYtAAAAAFiLYnYt1NBElmzckdk4NRXS84JEOxp0HAABgNioFlyCI0klHE1Gy7z9Me7fGQlqo6Ye7DwAAwCzEcK5UctweGy1UZ9E+0n/MSTQ6Vah5GCsAAACAeSLqgOFcfelLdpTHcXOElGaYYhUAAACoEcEcF+SoIqq3Ttl+u80R0hOLNc2wEgAAAJhMGMcpHaVOtCobfG/wGrM80mJNBlYDAAAAkwjgOF+llN/h6CJK9umg2E/NEdJjC9PisSIAAAAYTQTHeSilbhucQURVMknJj7PTJpkjpL8XZqiwKgAAABgLL4joMmcQUbLkQPkFszJ2BTtQmCrHsgAAAGAMboG8ZKaziChZ81TvQ2adjxZpRmFZAAAAMIpAqWSsM4ko2ZMtA7aY0RoQzRgAAAAYh0omec7ZRJRsQq+IxeZ5pOoHsDoAAABUSRDP3yeIzi1H7FpUnW1+J/kD80pfMlpihQAAAKiUABnXUBCcK6VC6lQianZrQGrGsCRDg1UCAACgYk9UwcULgnPBGT1RssaJXj+bK6THCzXhWCkAAADuwFdwRpW85BdnFFC99TIj0Uhvv3yeoMBqAQAAUB6ZszRcqMqm9I1aZGai0QgsFQAAAHcgeKIznF1EqaNRTWeQ6ktfThSq+2C1AAAAuF1EZZIXXUBEWWqQ4qy5Yd1ThZp7sWIAAACUESCVtnbWMpcKRqftsUCiUQ5WDQAAABGVgksQBOYveylzCVZU/m+x/lKWHi5j2ih5mdUNkrEwT97onzXywbCV5grpyQVpkVg5AAAAOCXH+QjicrA2Q62G/z/Cm2etMz3Yc1392LsvKdnnU0PZ7sUR7PTWGHbzh3hW8mPldmVfHPtpdRRb91EYmzpUyfrc68vykhR3/M4NE5Kmm5dopB2/a3qWDKsHAACAm1LqttTW4hkk/+/vGdFy9kxnXzZnbBA7tDKS3ahGLGtiZ7bFsMIJwSzCi2cJdWR/m+2NFmkGY+kAAACgRvRDbO15hgti1r2lN/t4pIodWRdtcdGszH5bHy3+/rs1PvvNTjQq1vTA6gEAAJcXUWlzaycXUZkJ/Rnlw7MnO/iw5e+FsEu7Y20mnoY2940g8TUNuz9kldmtARdrmmEFAQCAK4sox4WrpJLz1hDRILnuZ5IH2rWJlxhSrS3xNLTenXzF17dlUso08z3S9LpYRQAA4LrIVFJ+u7W8z3qhspJxzwWwYxuja108DS0lWMbqKuV/mC2igl2Y28AXywgAAFwUQewmWCOM21LjIXqf1w7E2ZWAklESk6XqR9EaEAAAXFlEeb6dpbNvH23jw7bPD7c78TS06a+oxNc7ukfYMrPPRwu1j2ElAQCACxLAcRGCmPxhiXPRYEFA+97nyw6vjbJrAdVbj9be4pntzg9S3jdfSNXNsZoAAMD14AOl/DZXE1AyqkulbkhpwYozljgfPV6YmYDlBAAALoYggiPMqf8k69Xeh/1vjeMIqN52FUWI76Nrrv9O889HteMxgxQAAFyMICmXV5N6UX0WbvsGnmzPkgiHE1C9TXgxUHw/7/aOKDJXRE8UavpjRQEAgCt5ohznE8hLjpgiovoORBlR8pLPJoc4rIDqrW19Txbizt/4eXbaJIxOAwAAYBKCKM42NZQb5cOXTB6kZFe/j3N4Ef1jR6yYWZwf73mYPEqyijzNyjzQCjJ2tVhVAADgIgTyfGejy1hKw7jUA9feGimYY0smhYjv79n2QestkWh0ZKnWHysLAABcgBDBGRUE5EJ1IV19GDclWFay7N0QpxFQvVGGMb2/1WMTPjS77KVIMxwrCwAAXARjRqPpvdABD/mxP3fFOp2I3jqkawuYGCC/aAlv9ESx5n6sLAAAcAECeb6HMeFc6om7aVaY0wmo3mgYOL3Pzjl+uywhpKcK07OwugAAwMlRcVyIIB5/VxbS1XuhVBNKiTjOKqJkb/QLEN/zlL5RiywhpOeWJftghQEAgLMLqdRtSVVeaKy/tKTo7WCnFlC9NannziK8+GtH5mkmmt+IQTMYqwsAAJxdRHm+S4UJRaV/ttJ6sN/WR7uEiB7bEK2bSJPqfcgyYV3UjwIAgFPjy3EBgnCcLR/S1YdyB/Xwd4q6UGNtRum0l1cfCFtpkf66xWlqrDIAAHBiAnnJrIpKWyK9+ZLiicEuI6B669zIixrsl+yenvqeJfrrnlqR5YlVBgAATopSyjWpKKSbES0vObQqyuVElEp5Qt15lhPjcdQiZS/orwsAAE6NXBDNH8uHdNvleLLz22NcTkTJFo0PFq/Bix2DvrSEkJ4sVnfAMgMAACdFJZUMNTgPFf98prMvu7o/ziVF1HCI95ZJKdMscz6qTcRKAwAAJyTYnYsVhPOqYau/8S8EuqyAkl3aHcvCvXiWGeF+wiLeaJHmTbaxqRSrDQAAnBCl1G1FmTcql7CZr6lcWkTJFr+ja1Lfp41yo0WEtFDdEysNAACcEJVU2kYvoiEKvqRwQrDLiyjZE+18xGuyflzSDIsI6WJtPlYbAAA4HzJBLH4WRdSdZ59PC4WICnZ5XxzNUmXpoYrTFmnCQBm7S3ICsdwAAMDJEAR0oN4ThYj+Z8vf04V1e7dWbrJI7WiReghWGwAAOBlBHBeskkn+oTPRzyaHQEAN7PG2Fg7rFmnvwYoDAABn80Z5yQckFtQCD+L5n/21y7LZumTHFqbFY8UBAIATESjn6gre6K2WGg9xaDUE9D9b+JauCcNz7ZXrLCKkxeoxbAQnwaoDAABn8kalbstJLLbNDYd4lrOuTbyolrZk+7spUy3jkWq7Y8UBAIAToZJyjUlEu7f0hnCWs7Nfx7AQhYQ1iPE8aqmw7sliTQZWHQAAOA9ugre1K1guYT9+HgXxLGcfj9SNTBt8b/AaC/XWfet4Ya4Hlh0AADiLN8rz3Ugo+j/oB+GswNrW96R62pt7Z1hmZNqJIs3TWHUAAOA8SIPkkl9prujprTEQznL265dRojfaIsX7R4s1YSjMyMWyAwAAJ0Ep458koXi9bwCEswJ7o1+AKKQTekUstlDt6Phzy5J9sPIAAMA5kAve6IlYf2nJxZ2xEM5ydvOHeKaOkN+K8Zb+e3Rh+tuWENGThZp+WHYAAOA03qikN3lb456DN1qRbf4kTBxm3jXXf6elwrqnFqc3xsoDAAAnIILjPIJkkjOJgdIS6toD4bzTHmvtd5mEtHh4/CeWEtIjS7X+WH0AAOAc3ugLJBKTBgZCNCtqCbgz9lqEl5SlByvOWups9ESx5kWsPAAAcCZvVCktubQb3mhFNm1g2F/0QaNvG9UGS3mjx4u0TbH6AADACVDJJM+TSLz/shKiWYHd2J/4V6s0Hxas4G/u/CDlfYR1AQAAGCJm6iYEwButzLZPT/ibPmi0TvP5wVJhXWTrAgCA03ij/OPI1K3cru5OOvd8hyCxdnT6s1ELLdZbd7E2H6sPAAAcH4ngjf5MXYzOb0cXozvsUPyto4X1rsT4SllyoPziiUUWElHBIz1bmOqN5QcAAI7ujfJ8F/K0XulZB6JZgf2zre7pqf10LQF7t1ZuspSInirUPIXVBwAAziCkMsl3IQq+5NQWeKPl7dbBhH9PLVaXtEjxpiSjW99MSZlisWzdQk0OVh8AADg4gVJpS/K0XnwAE14qsj++TL2waWKy6I22TPU+ZLGz0SLNm0dmxbhjBQIAgIOjlLqtJJH4aTXmjZa3a3sSzwuCx55tp5s7OqVv1CKLtQQs1vTA6gMAAAdHpeASBYEoub+pF4SzggSjMyvSL/88J51F+0hZqkp+3mIiKgppel2sQAAAcHQh5SXvkae1/uMwCGcFCUbkjY7vGSF6o/07Ba21UEh33Mki7Ug2gpNgBQIAgANTh+P8guSSy3lJCnbrEISzogSj44UalhnhziI8+auHZqZNtkimLg3wLtK0xwoEAAAHR/Cy+pOnNWtUEMSzfILRutQL5I0uGBIneqP35/rvsJA3Oor+PFuYGoIVCAAAjg2vlEmOxteRlvy7Nw7iWUGCEVn7DF8meO1szZtJM8wV0RNF2rHipJdCTX8sPwAAcHRvlOc7kKc14kk0YChnt86uSL9MIrrlHV3JS+NEz18s4Y2eKNIM1/1d3QgrEAAAHF1IpW4rSCQOr0XJS0UJRmS971JarOTlRKF2mD7R6NSKLE+sQAAAcGACOC5SEIhb9+aj5MXQbh5I+OfUYk0JiegPs9IowYilBinOWcgbfUUU0mL1g1iBAADg8N6oZCR5Wksnh0BADez8mnoX9d7oa91DRW902P0hqywgogP0fz9dqI7FCgQAAMeGD5JLTiapZCVX9yPJqGxE2q6ks3oR/XVeOksMkLN4P9mlI/M0E82tGRX+HF06d/Rlxjg3LEEAAHBkb7Q0yWh0H8wcLasZPRR//fRn6ut6IZ34lK4BQ9+2qg3mh3W1L+j//nthRhOsQAAAcHQhlbotU8kk7Mi6aIhoqf21MbXMGz22UM3Uoe4s0kt69eDHqZPN80bVI04Wq9/Se6an56i9sAIBAMCBCeE4lSCiNzs29ISAltr1vUl/6EWU7MMXokVvtHvjOtst0HxhsIFn2h0rEAAAHBxBRJ8lkfj0dXQyKm1Kf1NfM0p2olDDcmM9WYg7f3P7e+bNHBW80YGG///YwrR4rEAAAHB4IeV3hHnyJX/uioWICnZp6381o2QLh+naAXbM9NtrflN6XStAXZKRdhBWHwAAODhKBZdEItGrvQ9EVLAb+xP/OlX8n4iStarnQ+0AS1aPTfjQUglGYvnLYnVDrEAAAHBwAqWS0SSka2eEQkgFO7cq7W9DEV32WoLojbZJ9zlg5nSXkfoEI93MUfWYXdOzZFiBAADg2LhRg/pklazk+kHUjv67Pem2kC6ZIKCiN7pqTNJHZglpoXZQuWYMGJcGAACOjkrKFZC3NfgRf7QBFNsAqkus4o2WE1E6Hz1eWC8AKxAAABwcQSTeJqH4el44Qrqr0/4q743qz0bN8UYpnHuyWPNauUb1j2H1AQCA4+OmkkqOp4bISm7+4OIh3W/uDOkWDo+ziDdaPsGI7HhhZgKWHwAAODgBMq4hwroVh3TJmtX1Nt8bLdS8SmFcw5Au1ZFi9QEAgBMgeKNvIqxbcUjXct6oesgd/60wPQurDwAAnEFIZZJfadKLK4d1K8rSpS5GjRK9zPZGhZ/Tv3yCEc0eZSM4CVYfAAA4OEoZl0Ue14CH/Fy48ULCX/ph3Yb26eBY0RvtkOmzt+ZzRrVjySoI9RZg9QEAgDMIqVTyGonFhplhriqkt86tTLtUXkRpwkv9KA/qqXtjy6SUaZbyRktt9C+fJyiw+gAAwDmEdFekN19y9XvXbMLw91d1z5QXUbL3nokUvdEH8+t8Y5nJLoZno+o2WHkAAOAEqDguRBCLkh6tvV13PFrxnSL667x0lqKSi/NGd09Pfa/mTem1Iyv472+eLUz1xuoDAABnEFIZ/xh5XXPGBrnieLTrZ5anX6nIGx35UKjojfZpo9xY45BusebFSv6tM1YeAAA4CYFSt2ISjFNbYlxOSP/ckHquIhHd92E9FuUtZYl1ZH/9Mjf9nZqdi2qHVdKsfvyJJTmBWHkAAOAcyFQyyV/N0t1dTkSv7Eo6W5GIkj3VSil6o6N6hC2v4WQXKm0ZXskg7wew7AAAwElQSqVNSTDe6Bfgct2Lfl+ivlmRiG58O5kJHy5YZoT7yROLLNcGUC+wp+ZnKbHyAADASQiUSsaQkG6d61LdjErKzxg1tLs1PqKQfjIodm6N2wAazhmFNwoAAM6LSspvD/fiS67uj3P5UheyWQNidK0A1ea0AlQPhTcKAACuIKIc5y14Xrfua+TlMiJ6bU/i+YpKXcgOz01n6SEKFu7BX982OWWqJUO68EYBAMApvVFpG/K+Jg0MdAkRvXUw/vLvS9XXK/NGh3YNEb3R3q2Vmywf0oU3CgAATocgGhNIOHYvjnCNc9EKprro7Zv3U1iYB89SguQXalruUllIF94oAAA4r5DuivWXltxwgWkvf2+p/FyUrGOmn+iNTukbtcjCjRfgjQIAgDNSh+P8BOG41b2l87cFvPpd0rmqRFSfYNQy1fuHmk120Qw3HNZ9hxWr78OKAwAAJ8NVzkdvHki4VFm9KNnPc9JZXaWcRXjWLMGIzkTpbLSKXrtvXpjbwBcrDgAAnAxBREeSkG5z5vrRQ/E3z61M+6cqb7RfW5Xojb7QPuhLS4d0yY4Xa9titQEAgFN6pG5rguUS9u9e560fvbgu9XxVIrpqTGJZB6NjC9Pftth4NP25aJFm9PHCXA+sNgAAcD4kQXLJ3620Hk4rov98Xfd0VSL663w1y47yYMEK/taSkQkzTQ/pat4goazy6xanN8ZSAwAAJyRAzqVSOPPlR/2ds+nC7qRKmy7o7eUuuprRR5oEbKtZU3r1wKq9UfVQVtiVx2oDAAAnRCXje5KILH4nxOlE9Mb+hL+rSi4i2zAhmQXJeZYaJD9fk5rRE4Wa/tV9zfHiNDVWGgAAOClKXjKDhPTIumjn6lx0KP762RXpl6sS0SPz1axBjCcLlktKFgyJn1Oj7kVFmnHVfE0/xjg3rDQAAHBWIZXyO2P8pCWC8DhV56LzX9S7WJWIkg26N1gf0v26JqUulc0YNQzrnizMisIqAwAA50Wqkkmudmjo6VTe6J8bU89VJ6KrxiayIJmEpQYrzh6Zlz7R0qUupd5oNywxAABwYgLkXD3yyIY+5jyJRpe2Vd3+j+yXT9OpzEXM0l00PHa26SFd7aDqPNETRdrXzy1L9sEqAwAAJ0bJ8w+RkC4YF+wUInplV9LZ6kSU7MlWgbrJLncpN9agXnRUablL1QlGRdqmWGEAAODsQiqVvEWCcmB5pMOL6PW9iRdOFVcvovpeujkxHsdOLDJVRHWlLNWeixZpX0K5CwAAuAAqqdvaEAVfcv1gnIOXuST+9fvSqstcyL77IJXF+smol+7Vje8kf2CNUhfRGy3MTMDqAgAAVxBSmeRMoxR3Bx/QnfDv6c8qH9Ctt2ML1ax1mo/ojY59JGxZDaa6DDDua7XdsbIAAMAF8Bf+R6LyeFsfBxbR+CtnqqkV1dtLnXWlLp2y/XZbpV5Ul2A0FglGAADgIgTKuBwSljf6BThuw4VqprnobdGwOFFE00MVZ36ZY1r3Ihp9VtVotHJimoeVBQAAriKkPP8IiUvR28GOOBLtxrmVaZeMEdFd01JZvL+Mhbnz11eNSfrI0qUu6GAEAACuKqRSyWgS0r1LIh1PRFen/mmMiFILwKbJ3qI3OrpHDc5FjWi6UOq1jjszPy0YqwoAAFxKSN2KSWD+2RPnlCJK1qulrl70/lz/HZac6FKBtcaKAgAAF0Mlk+xXh8tLnFVEJz4VIYpo/SiPY0dNHNR9okjzSnXJRYaCi5pRAABwTSG92r6Bp8MkFp3/PO0vY0WU+uiGuPMs3k92afu7KVNNE1Ht2JPFmteMbVx/bEFGGFYTAAC4GMEcF0TeWp97fR1BRK8am1ikTy5KCpSzUHf+xrwhsXNMnehyqkg9BCFdAAAAVaKUcdmOUPpCzRbOrkj/11gR/XlOOmsY6ymGdEf1CFtuzXNRatCAkC4AALgogTzfmcTm09eD7LjtX8Lfp5elXzNWRI8vUlOzBf180W0kdjQebfM7yR8Uj4ifNeP56AVvPRG2ZNj9Iate6hKyum8b1YberZWbaBYpWdcGdb7Q/71Xq4DNfe5WbSQbfF/IFyMfClsxvlfEkqn9ohYWvxI3a/PE5CmrxsRGYyUBAIDLeqSSF0hwNs0Ks9sG9L8vVd+oTjyPLlCzTROT2ScDY1j3RnVEEVXJJCUpKvn5aG/pFfr/1rQgueRKqDt/VCXjtwnXdFGgVDJJ+O/96YOKSsZp/cUGUgAAAJxPSKWSiSQEh9dG2eUotFPFmpLyornvw3ps/pBYNqRrCOuc48e04e7iYO7y4hbmwbOsGDmjRKon2vmwgd39xRD2B8NVbP6bwWz5eyFs/cdh7KtPw9muogj2/WeRFRr9G33N2hmhbNWUUHHU3LRhKjbuuQBxfuvT9/iy+xp5MepVnBIsIwGvUGyD5ZI/g+X8N4G8ZJYgtIMFkb0nxJ2LwSoEAAAHRl9DevX7OLscyn28UMM2TEhm454IZw/m12FpwYrbxClEwbMGCQrWo5U3G/lUHTbvjSD27cJwdnprTK299msH4thv66PZtrnhrHBCMBv/QiB7prMvuzvbkyWpZBUJ7L+CwH6t4iVTBI/2CRqyLtwanLkCAIBjeKT8t3H+0hJ7qhE9vjzlwuxBMaxni0Ax69ZQdEg0e3fyZTNeUbGdiyLs7gOAMXZxZyz7ZkE4mz0miA151J91yvNkCQHSO0LFwQp+q0oqeUPJ8+18OS4AqxUAAOwQlUxypKEgTvYgMF/NDr/8cDP/G5HeOlFJCZbdevgubzZxQCDbOCuM/bkr1uGHjldlR9ZFs2XvhrAxfQJEcY3y4Q3FtSREIT0keK3vB/J8Jz+Oq4PVCwAA9iGklzs0rN1mDHRO2VLtfisvyePGwIf8r5OYnNoS49SiaVS28g/x4hntzNdUrFd7H/H8VS+slEgVrJDsCZRKxgRJOZo0g1AwAADYmgiO86BNuWe72plDelMQii+mh7LF74SwC9/EurxwGmM/rY5is0YFscfu9mHxdaS3JTIpZZIFSp5/UHBV/bC6AQDABggbbhRtwoMf8YdIOajHSmetlIncQu1heL56QyV3+0Ip45+kzlVY6QAAYCUCZVx92njpDBLC5Ph2cksM+3ikinVp7CWW/pSGgG8JorpGJeMfg6cKAAAWRsXzbWmzpVAhhMi5jBKzFo0PZvc39RJLhEpF9Xqg1K1IyfPtOZypAgCABTxSnn+ENtjiicEQHye2C9/GsjljgxgllZWdqSokZ4U/31IquGQ8CQAAUOPQrqQvbaprZoRCcFzEjq6PFjsyUcensjNVBb9ZxfNdhSUhw1MBAACmCKlUMpg20u3zw83q4kOdhJB161h261A82/xJmNg6MdSdN/RSXwsSp+sBAAAwRkhH0wZ6YHmkyRsxdRXq/6Afo4YJP6yIhDg5sFE7RUo400TI/ztL5SUzg+VcOp4SAACoWkhpQgk7tiHa6LpPqvmkUovUEJnYR5Y8G4iRc9j1g3Fs6eQQ1ibrv1IayvhVSqVN8bQAAEAFCJ7HJ7RZUu/X6jbZz6eFsrwkBRX+s+FP1GF/7UIo15mNJt5Q0wf9JBsaD6eSStvgqQEAgNs8Ut3kFyrsr2xDpbBv50Ze4mbaSuvBDiKM63KdlPp18aUSmpLSZg+7IagAAFCKUur2GW2OlSURjX0mQPRAI715NnWoskrBhTm3HdsYzQY85FeWmCR4qF8h5AsAgJBK3TYKHsYdm+aPn0exZunu4oZJtYdUMgExgekFte99vuIHrNIz1M/ryLk0PE0AABcVUn5TbLlZpJRsQuO7SGBpIPVNeKGwCuzw2ij2eFufsjaESl4yA2UzAACXFlIK2w573F/cGBMDpWzDzDAIBqxa27Eogt2d7alvlv9voFTyMofGDgAAVyFQym9LCZaVXNodyx5o7i1uhlTa8htCuTATjWbIaqPkekH9MVAqbY4nDADgAh6pZG+iUsqapunOQ/vc68uu7IuDMMBqZJeFtUMj3cI8dBm+SplkoYrjQvCkAQCcWkj1hfev9w1AcwWYRezXL6PKIhyCd/oXjXATlpsbnjgAgFNB7d+ETe4SJRVhjBrMGkZdsJJUslLv1O3LYHcuFk8eAMCZRPQCFdmvnILJLzArjnD7JpY909lX751eFrzTnngCAQAOjUrBJZCIBsslJdT2D5s9zBa2dkYoqxtU6p1K3T4LEZYinkYAgMNBdX6CiB6h/qnUcB4bPMyWdn57DHu0jU/pDFTJuQCptDWeSgCAwxDGcZ6CgO6mTWz6Kyps7LBas4VvBVPTD/JOSwKlkjHC8uTxhAIA7B03pUxSSCI68qk62MxhtW7/WxPFmtRz1/ft3aIUP+sBAICdopJKhtGG9VALbzSeh9mNUc0yNcLXh3pVUq4ATysAwO5QSrkmwkZ1q2GCAjNEYXZpdF4f7sWXqGSSG0qZ5Gk8tQAAuyGY44KCZJLTYZ58CeaIwuzZ9iyJYJoIuS6rl5d8ICxfOZ5gAIAdeKO6eaNzxqLhAsz+7ezXMeLYPn0Dhzoc54enGABQa1BbNtqQerT2xiYNcxi7uj/OsIHD/gCOi8DTDACwvYhyXIiwCf2dqJSWnNsegw0a5lBGPZ+p+X2pmJ6iTlx4qgEAtg3pyiQLaRMqehtNF2COa/PeCGLUxlIQ0z8DZVwDPNkAAJsQKJW2JBG9r5EXNmOYwxu1saSxbDRgATNOAQC2QCpsOAfpU/zhtVHYiGFOYZtnh7EIL1FMryp5vj0ecwCA9bxRmaQveaOv9kL3Iphz2a7CCBbjJxVrTeGZAgCsgorjvINkkjOJgdISNF6AObOYkmcKMQXASUnKz2+UmFfwm2Cs1P5KzGt0Pimv4Kjw9x8E2yv8fZvw56aEvPz1SXn5n5EJXzM3MbfRJwn5Be8L/zZJ+LexwteNTMxvNCgpt6Cv8O+PJeU26pTYsKBlQn5+w7q5jdPrNmwak5yf71MmpKVtAKcOVWLThTm1mFLDe8EzvaKSco2x6wDgZAgiuNZARG1l1wU7HZ+ZdTM5U82e6ZfFXh2ayd55Q8vmfZDONhamsh/XJbM/dydiI4Y5zZlpuO7M9BJKYwBwIrKysmSCoF2uBSE12jTN8tld9zVkjz9Vnw19OZNNe1vDVs+rJwrt5e8TsEnDHMa+/DCM0XD6YIXk9zocF4UdCABn8EYLChrYs4gaY0065LKnn8lm48do2bJP0kSBxbQYmD3XmdJxRrgnf9iX4wKwCwHg4CTk5r/g6EJakaU1yWddejRgI4dnsiUz09jhTcnYxGF2Y2/3DxTFNMSdv6yUST5V8nyHBI5TYEcCwAFJyi1Y5IxCWpHltM5jffplsxmT1Gzf6rrs5iFs6LDas/4P6maa6o3OTvWiymGKDAAOFNrNKzjhKkJa3rJb5bFnn89mRR+ms5NfJ2Fzh9m80X3H0qkxuYkKll/X3VBU/1TykumlGb4S7FQA2GtYt0HTCFcV0YqszX0N2ehXM9i2Jans+kFs9DDr24VvYllWjJx687L9yyIZzd99vW8Ay45VGIrqCZVU8maAnEvFrgWAvYV18/O7QUArtizBW31pUBZbt7AeMoNhVrVDKyNZpDcvzjS9ZXDc8F1xBBvyqD9LVsnKRFUl43coZZLe/hznjx0MAPsI606CaFZv6mb5rN9z2WzF7DT2L0QVZgX7ZLQuk3fVlNA7/u3agTi2ZkYo69nOR2yEL3qpMsk1mpYUKJW2EB5lN+xmANSekH4LoTRdVAcOzGJbilNRYgOz6CzTTnmerGma+21eaXm7uDOWfTRCxZql33ae+mugVPJSMMcFYVcDwIZE5OZ6CMJwo7aFKSlfdzbZv38WmzpBw1Z9Wo/t+bwu++2rJPb3nju9P/IIKTFo/xd12ZbFqWLd6PvjNWyQIG73P5IjZuba6rXntsljo0dkiBnAEAOYuXZ0fTRNixGbNhjz9fuWRrLBj/izOH9piS7sK7kheKmFSinXBDscALY5Hy2otWzZlnlih6K18+uxi99ZvgXg2W8T2aaiVDZFEOZn+mWz/La5Vn9Pbbs2ZDPfVbMLu9DSEFZze+v5QPZEOx+TvuffvXFik4dWWg9DL3W/IKpPhXGcJ3Y7AKxEQl7BYBsL6M2Y1NRbTXNCaiUkemxrEls6M40NH5LJWnVuaLX3mdo4nz33fDb7SvCWUacKM9Wu7ItjTeq5s5s1fEb2LIlgz9/vJ85BLRXUv4Q/3w5x52Kw6wFgaY9UnN5iEwEtadMpb0eXJmEr6MGeMzbILjasU9uTWPHHaWzAgCyWd3ee1VoXUl/gczvgpcKMt6WTQ9ixDdHmldV8G8vefUnJtJHy0mxfyS3BQ10UKONysPsBYCGEjf6M1UtImuf/NXtM9vxTRZoJ2jD3U+FePPvTTmeO/rwhmc1+X816Pl1fbC9oaS+VEpR2r8JZKsy4xKO/v7PMc3L9YBxb/l4Ia9/A07CEZlsgz9/LodEDADWnbk5OoNWbG3TM/XXvJxnvkYiuej3pI3qATT37qS2jutH1i1LZq8MyRa/SktflngcasKKP0tnVAyijgdnWdi+OEJ/BYHnZOepPgqg+zqEdIQA1OR/Ni7emiN5zX+6hw/O175CIkj3aNGArPbifTw11yA3op/XJYmZwh24NLHaNGrbJY++9pWHndyLsC7N9dvBLD/uXnaMKwnpSJZM8j8QkAEygdAbpOWuI6F0d844cXah5Wy+iZMmB8j8SAqTs6vdxjr8JbUliH0zUiJNlLDWlhjKYf9mI6TQw29r57THszWcDqHyGlQrqH4FSycsqjvPGLgmAUV5poz6WFtGGrfIv7J+teddQRBcMiZ9DDylNunC2jYhqXSeP07IWnXItUk9Lk2lQkwqztf21K5ZNGhjIkkpbEQqCehGCCoCxCUf5BfMsJaLJ+QU3i8dlzjEUUbLujetsp4dz8ydhTp0csmtFChs2JJNpmpmfqPTYk/XZ9s9SsMnDbJsbsC+OTRumYqkhtwtqMMd5YbcEoBLCsrI8E/Lyv7eEkPbr1WBreRHVh3WTg2Qu006PujHNmaIWuzWZe00pfExN82+hHhVWC4KaElwqqArJWZVM8iySkgCohKSCAo25rQKpzOXnedpJ5UW0aHjsJ/QgDnjIz+U2IxI/8ioff6q+RbomLZ+dht6+MJvapd26kG+iUqrP8j2ukvGPCdsGj50TgPIh3tz8t8zZ6N8YkL2yIm/UFcK6xtj+NXXF8086BzXnOtNZ7PwP0tmV/Sidgdn2DPWNfgEsyocXBTVEIT2k5Pl22DkBMCCmaVP/xLz8P2vUN7dF/sVj5bJ0XTWsW5398GVd9nDPHLM9VGrM/84bWrGnMK4rzFZ2ZlsMe/lRfxbqrhPUYJnbRqWMy8IOCkApCfkF79dkUx/2XP21FYnoZyMTZtLD9kI3P2xC5YyaPbS81/wz1JRGBezFF7PYjuVITILZtg61V3sffaekEqVM8mkAx0VgFwUuT3J+frbJre8aFVwvX+6it16tAjY7chMGqzcn35/A3hyVQdnOFps+88n7avYHps84bc2nvb2mnYsi2N3Znvrz06vCn68KauqB3RS4Mm6mNmno1i33+4pElCwzwuME9dalEU/2EpZa/E4IG9U7gD18lzdrl+MpTtmgQco0UPmZzr5swouBbMuccDFr0Vav67tVKaxRu1yL9vXt92w221iIwePOZKe2xLCtc8PtMqnus8khLDNaXprhy59Q8fz92E6B6yYd5eUXm7JpT3+1fmFFIrpjSsoUlUxS8lAL71p9yC/ujGUzXlGxlgZzGv9r3F3x38kivXn2ZAcftnm2bZKkzu5IZA88mmPxLlMN7spjI4dnsu9WpqCExglsxJN1LNbM3hrj3+iDKD07uoQk/qsAOVcPuypwwXPSRq8au0mnN8m/fLSSJKMhXUNW08P0yejaGZlGWYbkeUb78hUKpSnWXO1hE0G9diBBnGNqrf7Hjdvnstdfy2A7V6RgTqqD2vb54WzkU3Xs+jWe2Pzf+anw3N0U/hyPDknAtYQ0r1EXYzfme+/L/aGysG6TZO+f6EGicJStH+Qlk0IYZQrXRDRDPd1Zi5z6rGPzZqxJZgaL9PUq+zfyUM9Z+ZyKQrG9+2ZbfUYszV99ZWim2Ozh3+9RSuNItcn5dd3Zr19G2f1r3TY3XHytpd7p7yqe74odFrhGaLegoIGxm/GoF3NWVySiR+ZpJkZ48ddbCJ6crbuxPNvVzyQPNFihKzTv1LI5W7NyJbt29Soz5OqVK2z18uWsfdMm4telhCjYniURVn0f/+5LEBOHbDR0XWyaTzNYKVGJptxAsOzb3hkQyPre5+sQr/XagThxuLg+3KuSu31eh+OisNMCpyY2Ly/a2A14w5TMGRUJ6QfPRi2kh2bsMwE2e2AvfBPL2mR7mOR9BgkiGuHjyRYvWMCM4YPJk1iIu5zF+MusHur9dVMyq9c432Ziami5grfav38Wm/dButhI4hrmptqVkTdK80SPbYh2mNd8bGM069HaW9+/9wqNbOPQHQk4KzFNm7obs9lqm+Vfqiys271RnW/ogfl6nm0yDP/cFcsKSkNIxhp5ouHeHmz7V1uYKZDXGiQXvteLZ7sKreuZTnxdWytCWt7qFhSw1p0bsqf61GevDs1k097WsGWfpLFvlqWwI5uTxXIbJDLZ1lppPdirveo43OteNSWUpYXJSsO9ku+CZJwGuy5wzvCuEZtr07Z5OyoT0vRQxZm4OlJ2/aD1S0iu7o9jbbI8anQeOm3SO6wmvDXqNfH7k5RSMbHCan1O9yYwbfN8uxBTo/ott8oTWxh27t5A7N5EZ73k2dKs1dEjMsROTDQcfdZ7atEWTk9nxR+nsaUz09ja+fVE27I4lX3zWQr7dnkKO7i2rmhHtiSz41uTxMzmP3cniqFvVxfSiQMCWWKgVMyUdbTXTh98aaSiQTLSSGHbkWHnBc4mpJeqr1UsGHmiSDOgvIhufzdlKp1PPnKXbcpeBj/ib7KAUkg3p24yu3nzZo2ElM5NU8JDxJ9Ftag3rVirOWJ4psMIqa2N+hZntsgXrUmHXNFrvk8Q8Ud71RfraEnAx4/Rsg8nqdkSQaw3FaWyH9cls4vfOX7DioMrIsX1R/WbjvoeqCY2J16h9073q2ScFrsvcCIhrb7nblJuo07HFmSEnSxWv2UopMPuD1lFD8bsMdYve1k7I7TGJS3vvz2BmcPIwS+V/axZo6z3XrctSYVoWinBqpUgvOQ5DxqYxd5+XSueCW8VrveJbUkOEapOD5OxR9v4OHZ3L8GjHvqYv5gcCO8UOJmQNjpf7blZbuN0+lrBK21vKKSt03x+IHGh5AKrZrbujWOaCHmN60P37NpplpCuXbWq7GclBEjFcVPWaiNIZ5QQP9uaumk+6/hAA7GP8bvjNGzlnDQxzHzVjhKvenfyZWGe9tM5zByjfIr6cWXe6e5AOVcXOzFwaJLyCo5Wu9G0bu1FX3u8MNfjVLF6DInoiUWaCVHe0st5SQqrP3g0I7Gm3ijZxT/+MEtI9+/dc9vPoxR/a73Xlp0aQtzsxOhDTYduDdjLL2Wy2e+r2d7Vddn1g7UjPnPGBolr78sPnWNEIX0goMky+r69gTJJX2GLccOODJxSSJPyC343/PpThZp7SUjnvhz7KT0Ew5+wbjbhP3viRC/QnG5Ff168aJaQ7v1u123tBTOi5FY7K7XE2DWYdcPE3R7NEbOsKTRsqwYXh9dGietv2OP+TpVItWFmWFlmb7DMba2S40KxKwNn9Ei3G379yQVpkSSkTzRTfkWLf/3H1v2EvPCtYLO8UTISQnNYsnDhHT/TWuU+tuh0BLOc0Wg7EtbJ47Rs96q6Vh0ckBoiY60zPJwuK5nqwun8t7Tu9IKK59tiZwZOJaQJeQVLDb+eMc7tZLHmtawIj+NUX2ntlPx7873MFlJzk42e69Xzjp9JDcUhpLA7Bt+3yhN7KFOpj6Uzhrs09qL2e2IZmDOW+cx/M5hF+fD6Z2yisN3IsUMDJxHS/A/Lf8+3U1KfFj45ltzf1MuqDxZNvghWmCeiQXKeZSclslu3btVIRC+cPy/24KXGDIbh3bsyreMZdH8coV2qUaW2ifc80EC8Ho8/VV/8gPHE0/XF/0/W6aEGrM19DVlumzzRK7TH90GzZ7s/kcM+eU8tZgebuzZe6VlHXH8Hlkc6bc3s/9ZEiaMOxV7YCslelYJLxC4NnCG0+2b573miuXKk2ORgmMqqD9UaM0peytuHU96vkZD2efThCn8eZVBao2yCGhy4kmiSIE4Yq2VfzKsn9v79p4YNGKihBTVy2Le6rtjsgXoJv/FahugddunRQGzcX9vvlTKDKSv40Jd1a/Qe572hSzgqnhhy3ZkbUFz9/r9EJOED+78qnu+CnRrYNYl5+Ueq3ADyGw0q/z31ghRFtMh//Ny6UynGvxBoERGlFoGhngq2ZcMGk0SUxFfngfIV/lxrTLtp1jHX+ctNmuWzsSMz2OFNtm2aTyK9/4u67LNZaWLnpX7PZbN29zeslT7Hze/JZW+N0Zokql99Gi6uu7FPBl1yhY5On08LFRMN6T0HSiWTEOoFdiykBXurztrN71f+e0I8+JNU12ntB+mpjr4W80gpxEv9dmdN/6DaMC9NhRnx0qDbJsZUZPuWWjbERokqzl5HSg0RTn+TZFcbNl138oZJYEngezyRw7Ja2s6DvbtLQzZlgoYd3VL1dTm6Plpcd33bKktuHYq/5gpiSu+5pUbXFjTEnd+JaTLAIYU0Ma/RY4ZfT2cWtKhf6OZn9Yfo3gIvs8peKhuj1rJBDlswe/Yd9aVHfz0sJiZpYqOr9ET1Rh6CRUscBA/NWQWU+givnlvPoTZxChVTyHncqAzW9eEGNjmLpTA0name+TaxwpAnrbtuef7s0ta6p12l1zC97wEP+elDvX8opdJm2LmBQwlpQm7BbQN6BWF7lhb0snet3/dTn3RgaTMUyJTwUJYRH8uSglV3CG51Rv1DLRrK+rSeU4poTus8se+to2/o1HmKGuzTRBya6UodkayZqERJVitmp4m/V/8aaNbn3RofdmqxuuTWwfgrrtS8f9H4YBbhxZcIe9At4fkbgN0bOE5oN7dRJ8OvV0rdlgfJJeyPHbFWf3Ca1LOOkN4Z9pXW6Puombgl3y+FFZ3RE3UGEa3QUzqQwLYUp7LRr2aIZ55Wy2JumcdeHZbJvv+irtgqMz/ek50s0rC/NqWecbVJON9/Fsm0UfLSweGSBWEc54ldHNiDkG43QUjlgohevivLNkXhNG3FFkJaUzv7tWWTje59qIFVPBuamFJbJSLrFtZzmU2eQvPkrd51n/XaPCbnZDFNWgw7MFvLThVr2I0DCX+7mphSAwd9fXmIQvI9zk2BPQjpJmOFlM4maPGOey7AJg9Mz3Y+diuiNIPVopvDrkRxVJglxo316l2fLf44TdzYrxk0Xv99exLbUJjKRgkeVFMbZAe/MjTTZWeIUhkOeaoN7rJO0hIlpfV8pCFbOVX7900XHLROCWL6utpgheRcgIxriN0c1KKQNlpjvJBKxtPC3bEowiYPy8in6tiliFICFCVCWfK90gxNczdXqpmkwdjG/D7afDcKomqtBhDUKOGvPRjKTU3u6Zzz/oet12ijWcfcWzPe0bBzOxJd7vpSN6RQd54a319X8nx37OigVkjKy/+smvKXbgaJRj8kBkpLrDnc2tBokLG9eqQ0kcaipT596puVzEOeZk1/93Jho89oYdnEmVnvqV1eRMvbrhUpYgKRNfv+Pit8mPp6aYpDzFi1lG2fH86SVDJ9vekYDlNkgM2FNLdgUTUP6OP0dSHuXAwtVJqLaKsH5PevYuxWSH+wYKIR9WRNrWFTAGqlZ4n2c79sTGYF7SwT7qVw5uXv4Y1WZt+tTGEPPpZj9drUuVPTa9wpyhHrTfOTdTNOlTLJXA7NG4BNQ7u5jaZVXf6S/wJ9XaBM8oyuPVmwTR8QKsa2ZC2pJcK6zdXuFn2P5L3VtOUcna1a6nVQdi11HTJ3E6e6Swhm9UYDxBu1y7V61jSd1f66Kdnpr+efu2LZfY10SUhBCn6LP8f5Y4d3AJQ8304l43cIm+sVwfYESqXNHe09JOTlj636jDT/Nd35qNtKKnu58G2sTR8O6udrb94onctY6v1RCK4mWZ40APz8TsufiS2cnm725v2/jckQSmMHM+xJYENfzrRJBjXVvtIMVadu3rA/jvXr4lva9F76M0XSoFT2i0S4UW+XNi8v6djQkw68qVD4pqMdeCflFQyo+gHMnxXBcR70YaFtfc9a+ZRJRej24o1mxsjZ9YOWG2O1flGqyRsinWdaS6xI2O8zo3E+hRTtsmRC+AC44v0QsX/zs1392IPNvRk9t50FD+bxtj7s1V51xNm3v62PrpXXt7koldVvbZu2hO27NRCT2wwzup3JaA1TZYFuWLjkdLCcS4dk2R+8UiaZRzepTZYHO7ZR9+DtXxbJ6oXKSoT/fiuQ5ztV9s0UbiBPtrTNldQOsnYfq7ppfcGXwuvtQO/3nQGBtfJgjOkTYDfe6NLJlu3oVJOzslWfWrc2k7J5axzWHa21qw31yw/D2CN3eQsfdI1vutEwUcEmCmvd0nXC1Rmddd9nw+k/+W1zxbrXP79zzmxfmpZDUTTBLqmkXCNIlw0IkHOpgkDOV0rd1il5ydRSoXO7M5xL/yZhnfI82b97b/dMqNNNolJKnukNQXw63imgkqlBMsm1/zrqSH5WKbiEWg3tFhR0qKbX7i/CdfmUXu9Pq6Nq7exDuK61flb6QDNvi76vLYtNF6yXB2faRIAodFyTzXljoX2EDtfOCL2tM1ab/Dw2YcxotvHLL9kP+79nO77exqa+M1H87xVFHvSj8oY+5m/T4wxqB0iZt7aexkOTaCx53m4vtvqDUBbuxZcIe+1VwcG5B0pnRYJknEa40P/Qw0O9HA0eqEOCiDytb0MVKJW8RP+dQkLlRVRvuxdHsBi/MjEVw7xBUi5fENAz9L2UqPLhqyrxAS0V08O1eSiekNs4o5oH7VaQQvp3QYp7rT4Qq6aE1mpIt26QjJ3eGmNRsTJ19ig1UfjbRrWZNGasJptybXs357fHiB6o/t6poyPZhrVrq5z2s3n9+rJBBRUZjfIqett2SXZis4GhmTbvQkVHBpRR7Gxi+vW8cBbrL34QLxHE9BEonnWQquSSH4LlEjEMRBd+75JI1v9BvzJRFcTuoiCoc+jvuYkKdnFn1Z9QdxVG0I0rKU3FXkCiGunNl8waFXRbfdf7Lyv16dqf1tabT87P96nuAQvx9xPPlmr7gdBPgLC1iFLBN9WqWfK9LDWxAQN1LPpmme02OZrbaepG3KRDbq2ujz1LIlh6uKzs3uWl1WNnfv/dqNmzf1y4wFrnNqx0DdCfz9/vJyaz2Cos/dKgLJuLqS0iHrVhFC2sF1paayqT9IHsWRiVjH+MLi55iBWFFEns9E2Sk1SykqNGJiMcWhnJMqLlopimh8lKqNlyRQ8LdcgRH1ief7D2zkkLzlb1cEVERojvp/a7xMSVpbfbSkTJaMCwJd/Hpb0JLPdu0xJLqKG9rVuwaUwshaHWhLW1NjbPDmORPv8lpcUF+rPjv/1m0iB3ElNtXLQ4u7ayNdFZeF7//i7WRus9XpyNakshfe0V5y1dOrw2Smz6X9q44WWonwW9UcHb/JW8x6q8TNpU6Mzlx89NOyOkCSnvvqQUGwtU9jUnt8Qw6hZEB+JBCi6udmpJCzZW9XClZttPlxoKqXdp7GUTEQ335MUzFku/hxHDM03OsrxaCxmWD5mYCFVbmzC1rKR7ZXiGPvODaawmrP/ii2rXxj15njbzTOncMu9u2w0Zn/2+c3ekOrE5mmXHKvRiOhoSaAlvlOfvpws6uk9Ard5c8nhKxwIdU8k4re3PSRu9XvUEkXy76ptKm9iLD/jdFnaztGVEy8VQoaVfO4VnTdnY0prks5831E5d5pujTBvrRv1ebT58e1M0S1JJb5slWzcsmF27do3VlLsL8qsd6v5UR9t1+NpUlGozIaV5q85eu0uODeV8iPuHVPImlND8sO52qv+0dZp7RfbRCBVNfxezy5Q8/5Atr0N8fn6z6h6wBdPT7e6BKJwQLCaCWNoTpbMwa4Tv/tydaPLUFWrzVlvXd9knpp3jLrTxGqGez1TbXP4e9u/9NDOHebNmGrVWKOfBVu+1oIXaJkLqKoMGzm2HmBqfjavg4mkQtc7Tk+wPlLoV00VTyiRPCSLa09a9Y6uzrXPDWbJKps8afotqVm1xnbKysmTCQ3SxqgesQ7cGdvlAUJbmwO7+YqmCuR4qnb9+V2y9yTamljX06Zddq83HD641LeFo9Tzbzh6l7PeK7uOiTz81S0j/9/NPRn3givDi2bENtmngoI71tbqIUsmTK3WVgpgah0Tw7n6iBU8XKz1MVuEDsasowq5uLoWqWqg9Sl+f2wolx/nYJLybX/B+dQ8ahZjsOVwz7rlAlhUrN0k8k5RSNvgRf7GhhjVfH509mbKpNb8nt9ZLSaimMdmEGak0dcRWr41yGuLrVFxbTOUs5hIkNy7S8WgbH6u/V6rfpt+lbaD505pC+vwLWS7XohFiWl3YViptQxeHhr8aJqrQ1A5KIJn+iop9MjrILm8uvU79UGvhw8BBW/SLTG7QSG3MpJEbP9j/w0HZeXPGBrEhj/qzB5p7ix2oqDi/daaH6HWSBztDuP+USW2LkXB0LkqDmI3d0GgSDJWfmPt7X3u6DuvR2pu99LC/GAan5DeThwaY0JjhwNq6NrvHE14MrFTctm7aZLaQUtavsR/G9i217ocw2qvo9zzeOekbawrpjEmuOfrOUExD3KWvQT0NCJRKJtGFoZpQR+0X+XrfgNJJBpKzShmXZe1rVt1sUrL3x2tc8mGr8XinLUniWDFTNjRLnUenlYvCUD0s1Uef2WZ8TgCFl4193QdtJKTXDsSx5CBZpcK2eMECs0T0+vXrLFghM1pIn+xgXa/0oRbeYjOBHdPqTUlvnH8ZiUbWFdNIT+krUNBSlFL+GyorcfQBt+RJhCjEhvhXqOetdcO7+fWok1FVDxt5VkumJ4mZxuTVTRmiFBtEUx/e2WOC2BfTQ9kvX0S51GDhSs9vdyaa3Grv1WGWK4inRuwVbfzCc8F2LjLuSGPyOOM7HNHgalu1/6tK2Ia++IJZQnro4AGTjgdCPfgaefvGZqjT0IaMcPeTp4o0Ezp2zvvJWkPBXX2G7KktMWWlMXWVioFQUY6TCcJznSY7OMMN/urTcBbnL7YdLFHKJL2tddH8OS46Ki72enUPXUKDhizY17vKzYVeL9V7ktjaQ1a0rY2yH01tAUjF91SEb8mztcqSr6gw3ZifsWZ+PaNf/zef2UZIKau6snVH5S9ZiQns1q1bNRbSyW+NMzlRjRqkW+O9bpkTLv78hxsHfE1COqhvznprCCk1y0cESVdnqm/akBXh8Zxrh3XlXF26EPSJ3FluMDWD0EbK9S0LrRHH51UyfqtSJmXNO9SvvtF1bi57Ly+ObWgayTY3ixL/XJofzqZkBLMBSXVYqyBPFiwva7Eonk2uETwJV/BU/xU+2Xd/PMfkjMmLVkguqkh0GiQo2JJJxk2xObY1yej3sNlGyWj6ja4qW718eY1E9MaNGyy3XioLUphWVmWtutLRpZOPPno+egEJ6bRXsoutIaS27pxl7zkWKcEysRyxdZrPE64rpDzf2ZqfEmvLqAuSPo4f4yObbcnyGJVUMpx+7jOdfdnbg8NYYsPqQ5Jp+flsUZs0duaehArtcLs4NjsnlN0X5k1zAcXXTUk/G2eFObWImtrWLad1Hju8yTpNFyhxjZKNmqa5i3M4N8wMM+nDDH2ttrlxrQKp7tQWc0WrEzVq8UdieOXyZZOF9ONpU2tUOpUeLrfK+6UEuXBP/vqReZqJJKRrJ2d9ZA0htXXpkr0bZfFTo/tQD/7mI03r9HDVRKPRtLh3LIpwuhtM/X/b5eiK0EMU/GLh7crNvV4BMq6hSia5JZ4NBOnqWJOD6pSk5BqXJDO0RSY73jGxUkEl+65VDOsX70+vuaxswJLTVOzlTNTUcG5603y2e1Vdu35fD/c07oPBx5Otn/W5bW648V5ij4fYzZs3jRbRA/v2sig/bzE8XBMxpWfT0s86DdPIj/c8TCJKtveTjPesIaRnv02EgFaw1iK8eaoXvja0W/ADzl3mwnHeKhn/eCAvmUlNF4Lkkiv6hW2tBAB7KI/p3lJ/Rum2Wj/mrUZJWRznI1yzI/prFuHOl4yqp2S/tY9nn7dNZen5xnkjLRo1ZF8IX1+VmJLtbBnNOod5l9Vw6ifuOLpRCLTlvQ1NTvCwZe1lTW38GOMSjiaMtf5QbwpJmyJuj93fhf1z6VK1Irr9qy0sKURVZcP66szSFQKUuCc2jblLuVEvpIfmaiZbWkTttdmKPdjnU0PFo6k4f9k/H70Q08k5M3NlXKZYGlK6kCndnxKMqA/rgnHBTn2DaRLK0/f4lnZZ4b+qw3F+NbuGuqHdZF3Cvdn3d8XcJnyb2qWw7ALjyzeebJbNdrSvW62gfpQdwqI8dJsWjWhz5LNTGmad1SrPZBFdt9AxwmlrjUw4os5NtdXNqCrTxEaJIduKBPXor4fZoL7PiA0YzBFRMgqbW/K96mcWLxgSP0cvpGSWFtK3X9dCNKsw6jdA96FesOLc+vEJHZxOSINk/Ld0IEyjzuj80NVuMDVH0M/oFMR0h6liGsjzPUQvVMGXTM0MrlT09rRPZnc3Nt7bSqb2doKgbmybUqWY7hC805w6unTzfl18HaLZQ/kxV7QJ1aTUwFFElOzMt4lGva+OD1jfs5k2zHQh1ScOhXq6izNHn364O3u0S2dxXul/Lf94s/s00/B5S75XyieI9JZeObYw/W29iO75WPu+pYV0/5q6EMxqbExp0leDGI+j+2emtXeyWlFJSbdmXi59g8mT09cLqmSS70LEaLdRfYjjgmSSfxI8ZSXbmkdV60HSGejA5pkmP6SdmzRg89qksWOVnKH+r10cuztYd+ZLHvZNBxFT6jxEITFTrwcl7jhCOPeOTb1DrlEdmaz9YYhqlc0RO8NsXGPbANaGkFKDAPqZTZO9fzb0Rj+bkDXLkiL6+MMN2fW9iRcgltXvs9SXne5JG7XPgROF2nbOJKS3aDA2brSuHVxZS8HqxZRXSfnt9PULG4ZVK6KGtvzueqygINd0AcnPZy80zxLPXX8v9zPpPLZtiG7GaEUD1u3J/tiVyMaMyDCp5Z/ectvkOeyn/5cGZRn1Hn9cl2z1MytbDXY31aje29KjFZ9rr1xnKKRTLVT+om2az4Y/m8MOL9Cy08vSr5Ycir+OfbT65hj35Oo+9PdqGbDFacRU8MB+MrawHGJ62weQQWKpS5y/SSKqt6OCdzm8RQZLqeFDnFOQJ4pqseCp/lbqqZKYNlfpmvXPfE1ld9f2n30JYi/SzBb5NXrPFPY8sS3JYdfW0pnGjVQr/NC6o9QOLI+0WyH99csoi4cS5wyKnWsopEP6NfjSHAHNa53P3htWn/1vvpadLNKU2Z8bUs9hDzWu/IrqsKnRyZuPRXzmFGIqvJlPaLEdXR+Nm1xqbz0fWNrhRfJDRWKqVHDJQVLJNbWPvORIu7gaCanh2SmdhZrzYKcKnmr3pvXZpFYatrJ1Ekv3lYs9Ya05zszU80E6B81qmVfj9/jii1ns332O3X7t1HbjGjMMHpRlda9AWNt2J6IhwpqlHsCWep9dm3hR6cutX+akv2MopA88kLuvpuvwpd7ZogdqKKCGdvW7pLPYQ6u3n7+IEicPhXrwN+YNiZ3j8GIayPOPiJ/axgbhBlfgmYZ4SPaVT0BSSt3W0b8tzQs3S0QN7at2KewpQVCTLBBy0uTlsZiUFKZJj2LfrUiulQQk6jm66tN6rOfT9WsUwjWsEZ33QbrTrCtj+gY365hr9dfRSuth1txZSxu9ltYZHhZ9j1Qapg51P20oomS5rfPPm7oOk/PyrocqA1nDWE924ON6lQrp70vVN28dTLiMPbR62zQrTKzxjfeXXdo2OWWqcG9aO6yQ+ghaSuekPVp54+ZWIqbhnpK9VGsrJhjx/H303x6J8rWYiN7WdEHwUAc0zxQ7HlkqGYKScx5/qr44dearxalWaaN381A8+2l9Mps7NZ316l2fpTUx//V36dGA/W9jslOtKTobNua9H9li3ff9Rr8Au/NI6Xmz1Ps7si5a/JkdMn32GYroro8yp5j6YbVe44Krje7ObdK1of82+pmNEr3YT7PTKhXT81/Uu4j90zj7aIQugzwr0uP4kXnpE08Uqps78pSXzWGefMk/e+Jwc8sZzWIV2wn6SncEc5xXkEzyfZicL9nbOsYqQlrWGrBjEpvaWm1SyYwpRl7P089kszdey2DzBY+PBo5TksvZHYns6oGESrPuqPMQCeaW4lQ2b1o6G/VqBnukV32W0cJywk8/i4Z4O1opj7FzVY25Bp+8r3a5c9KdFuyitnSyrunE4HuD1xgK6RsDslea5InmF9yaPCT7XdonTxSpH3kgz//b0kzgKsX03+11T2P/NM6e66orP+yU7beb7tHJIm2eo2bu9qc3stLCNVzOkrJNzSlEz9SLF7sXvZBQx6oiWt42tkthL7fIZA0L8pg1hxLf1gNY8CgpKUhv9RrnW/13Um0ojUAjMXfmumXqC1zdtaCWgtZ+Lc3T3e0ivEuvITtWbtGGIiOe1H0AXjQ8drahkHbpmnvAlDU5pG/OulPFmrtonzxZqCmgnyF4prvoZzdP8WaH56ZXKKTC97Dr3yfCMzXmzP77ODGsT9f0pS4hq8V7VZyR7XgJRwouQRSIbn64sZVsfjSZQv/gG1Mzag2jkpfVbVPFWtQGNhRVWwgoJdhYO5xpL/by4ExjPCF2zsofKBa/E2I33uj0VyybZU7tP4PkkhIKF+pF9MQizQRt0/x/jF2XbTvl/Y++7/cF2hjRI12oSdL/nA6ZPnvpdbdIqdwzPbM8/cotlMQYPUyEpsWEuPM3574cO+dksfqtUwszUxyvw5FcciQrBmUwVWU6Pthc19+WGsfXhpCWF1XyVF9vqWXtGjdwSAHNaJHHhg/WiNmsrrSWNhSmGnV9Zls5vEuNO/KSFLXqldLvTg2Rscv7LHusROUViQHyPw290eJxmXOMzoRvVHD9q2kZH5wo0r7ORnASUUiX5AQairJeTKsK815cl3oe+6dx9vW8cDH5KDFA9tfuGanvCtfvTf2HGAfquSuZT4vir12xuKlVNLq/O1tXTPxavcBaF1NDO9ghic25K12sLW3UKNduxZMyeB9/sj5bThvPllixPaMrRjiosUR11+oeG7QLpAYIte2NWnpUI5XQhChun/hC9mzPBl8ZXW7VO2eTeF5XqO6p3yOPF+Z6GP48EtN76/t9R+9B+F2VZvNe3pF8BvuncfbuS0pxTTRO9PzleJF2vPBBZuzRxVmhjnRO+iq9gW8WhOOGVlNMTJ/i6VpNq6K3bm3b3vbJbLYgrC+1yGSNcuuzxNz8WhNPakbfp182K/ow/Y6MYeqFunaG653NU5KXMdfuwFrrd3HS95quDaNh9ZYetkA1ivSz6SzTUPgK7s47bcw1z2ye//cv87Vi7envhRlN9HvkgcJUeflSGrEutTQBqbLSmFOL1SU39if+if3TuJwU/VSuPm10E3tOFmpePVyY5ecY56Q83008nB8fjBtajZ3YHM3Sw2UsSCZhhblhdiumZV2U2sezKC8Za5ypFLvmjB6RwR7tVZ8VtMu1isd5d5eGbODALDHz9Psv6laZfUsdmGj4766iCJdaQ3QenJRf/fUcNDDL6q/lyr441izN3eYh3bpBMnbKCoMy9C0Q+3cKWqsXu81TtdONXcPDnqtf9n3HFmSEGe6TFQkp2SNNAsTSmOwoD7Z7empF56WXcV5qZAvRHbEsI1pOYd6Sj/tHz9dl8qoHHpkV4+4AHY64DFoIb/cPxM00wg6tjBQ7c0S482xtk0i7F9MHInzEzevs17dvXFTq8uumZLZ1SaoostMnati4URliQgx5kb37ZrMeT+Sw7o/rjMKy9N+eez6bjRieyd57SyOWwdAYtCObk8VpLqaePZOHn6SSsX1LI11qDVFtrzFN7M/YYGA0JXtoo+Q2E9FwT57tKrTOhyeaZEW/Z2q/qIVlbQH75qwz1hs9XOqNCgI4ijHOrUxEV2R5ViakZNQ7VhxFGaxgWyfXvUNM/1ibisb2Rhp9sKbwPJ2X7p2R+p4YSi/SPM0Ku/KO0JiB9X8QmbvG2vb54SxM2BCSvGVst5XrSs01CkPT/S2cYH8Rh/3LIlmkNy96pmtqMcxLnhlFZDo29GQxflJ2cIV1hZ0m2BizuVMEwRbv//DaKJYZY30xJRHdPDvM6qHqje8kf6AXuZbt834zqtylX4Mvy85Ai9SPGO6RZwtTQ6oSUrIX2gd9KXxQKEmsI2Nr3ky8Q0z/+Rr1paael7ZM9T6kv74nCzXdHKHv7lXqT4mbaHoJAc0E/Z+ZfXetad+21HV6eelh+5wMQxtrtK9uJNfA7v7iWbQtfi8lpqz7KEzcfGP9dL8/iLwmSiBJdhfF1Zq/n7o3GdMm8cIu29TWUsSidaaH1USUShx2L7ZuGL9Ha2/R6z0yTyOWvnw9I2NaUl5BiRHTXP7Rn42Km/Zibb7h/niyUJ1cnZCSjeoRtpx6/EZ4SVnxK/G3iynVl2LkmtHnpXSGTutmSNfS+lL6gGPv3Y+ExfczhdlwE00zCoeL7chCvdjJjvF2KaSnBYvzlIqbpL1eR5r8kR2rS+QiUZs4IPCOULQl7NiGaNEzp9mIMX7/zdOsK5exLl4+7FX/QHavV2nCw72+Vn3PFFI3xlOiMLqt7gN9uBjdJ4DqMC0WyqU/qXzszLYYq79+WuPCfb2s33gH9c1Zb8w1HtinwUZDQTy5IC3yNiEt0uYZI6RkU/pGLYrw5K9TI/6PX4wu34/3xs0DCf9g76zefv8qhiUHyViYB39j1Zikj0o7H43/vVhTz44zd93WRXjxJbiBpn9yog2XNovesX5265W2DvJkcf5Su76W5E3QdYwvHR4douDF/zZrVFCNRmz9/V0s27EoQkxqeqazL9NG3h66TFPIWSdBNAf6BbA366huswbuugScSQOtmzfw2JP1jUriotaMtrwXP6yIZF0ae5ktpFSfTi37bPW6aSxkeojijF7UGt+dd6par79J/uWf52knlYlosfottrGp1HB/FDyhLsYKKdncl2M/jfKWXqZrMPrhsNvE9OzK9H9KDsXfwP5ZvX0xXZc8lhHufurowvS3SUipxvR4oSbcTifBSGbRC7ZVWM3ZGjZ0aKirMR2XrrJLIe0Vozs7suf7qxfS1wUhe9zHj2W7K8RQq35TJg+yTZYH69nOh738qD8b91xAmVHTcwoLP97Wh90lfA1lhZbf1JMEr7O5hyd7xNuXDRM8z/LiaWij/ZUsVSG3+nzXXzYmi92dqtvsKenL0qUixhiN4+vXxZdF+fImeaEdcz3Zkkkh7PpB2/bwphGCuXGev5KYfTE582NjvNHnnmywpUxEhY36VKH6+fL7I2WOmiKkZCvHJE5PCpBfpGvyVCsl+22h+r/koy+RfGSs6du09myp/Oq/M2zNK+eWJfvYn5BKJaPpxVLyB25ezWpM68cpxLKYJRYcsWYpeylJN/Hjp9VRdi+khoI2UhC0noKotvH0YpkKBYtTSKvcxIOF6x8rlzKNIIJNPDxYZ8HjfNrHXwzZViWcFdlw4XsSFDpBnvGK9cT0nTe0RoV4F06vvZFy1H1oy5xwcV5vr/Y+4ii2vGSFWKrQUuPBujXzYq/2qsOKJwazC9/Uzoc1Ogqge9VWq5v68sTDDXdU6402zr98cI5m8m0iWKy+77aylxVZnqLAmiKkxeoxJwuzola/mfRAZoT7CXpd7TN8b+uCdGlbXTRrMMIu7Y4VIxvBCv7WgiHxc/6LHGj72l0mr1ImeYpu9poZaF5f47KYVVGi10TnkTtaRtuVkI5N02XBUbaxPQtpuJw3SuRIGIf46WywXwAbKvz5miC6popldUaea1KpmNLZ4U0rTKWhsiHqZGTMSLwT25LwrFURjqb71L1RnW+OLNBM1DbJ/7e6a0odj8qL4PFCTc5t3mixJsMUERVEctyxhWnx+u8/ODP9ntZpPj+IiYnRHmzn1JQyMb2yE8PAja2SoHP7esGKc7cNay/U3GtfyUZSaRu60XQehRtnRkH4tFAxtEWZvIftKJN3glo3+4/awtnrtevcyMtoIbWlkWinl4Z572/qZRWP6/CmZKZpVn0Hqs7dG7BrlYy6Q79WXcvDPnerNk54uf6yGnmjgpVvS3eySP2AaUJ65yiwY4Xqjo82DdgqHjEEytmyUQn/TYpBJq9RRhEPun4PNw742vB6/75YW99uhDRAztWjFzlG+NSNm2aeTXhRl8nbJdyb/d7RPoR0vAMIKdVw2qOQko2po2TNPHSlIanBMqu0Nlwzv55RIV6aA4vn7E6jUia6P4PuDV7btG3eCVPORg3PSA3DhdSUQRDSEUaLaLHmiYr2V/o5FDJ+pVvoKppyEqzg2YReEfpM3ps39if8jXtYfa03DSSgrkf6EXl2l3xUh+P8aBFSdiNumvmZvJT0QtdzeIp9NLh/K10npN8uhJCaYw97+4qvka4l3ePjm6Jr5bx0zhQ1nrVytvw9XV33k/fEbTWmbvTQ3Du90VNF6iG3eZILMsKMFVFqsl5VX1i9mH46OPbTeD/Z3/Rae7UMZEfmq3Vj1w7GX8F9rD7qQBG/9FDFaX2tcOl9G0qDBexlnNqle3I9ccMsYP/siWMFKe5icX9xXu335B1eV+cl0zkuhNQ8o/PY3NLyGOrUM/Qxf4v1jaUPYS+8mGXUzFLyYPGs/Wfz39R18GrcMuuEqXWjZd5NOY/yZHFGS2OF9HiRtml1e6xOTLWdtr+XMqV+lMdx/Si2PdNT2bmVaZfQk7d6G/Kov3ife7UK2HzbB5lC7WOGbR1rsynDD5SFh5tlGfvfGl3yUbyXtNbbCD4ZW1r+8k2sXQtptFxq90Kqtz4+/ixVrjs7DXGXiAPgt84NNzshic5AH3wsx6ih6OsWQkz1RgPCg328WZIR3qhh3ejtoVl1h9sydgvVzxvnjWqGl689rQph029HHpV+FBt9IHuieSBbOzEONaZGlGSJGfoK/ubqsQkf3nYvFqc3toemDCtpuCp1N8ENs2y4qanSgx3vUHudj9oGe4mN9u35WpGQxjmQkOrtSR8/lqFQlJXgpIfKxHaMlHhG0yxMuQYkwtRE4pUnlSwxK9MoMaX5rnjW4tk7AwJZTEr13aKoiX2lgrhY3VC/H1KY1uiwrsH3GYvwfa3FpvpdQ1YLonBDv34axnncfLt/YIk9l6rVlv22Pvq2AQu5sZ5Hbo8oqN86tTgjurZrSSfTiyNPCjfNcvZKT1222TNx/rUmpAmCV9w6w8PuhTRG5nhCqrdBfgGsrafwgUV+ezOI7Bg569HKW1wH7w1Wsjljg8QwJBllyVObyRe6+bF2ObruU/rva5/ny5p3zDHqzJTOVmujYYM92cCe4SZNeKnIDMtWjG0LKHqjNaxnpN6x9DOKR8TPqquUXyhfF52bqBATQCnSQY1fXPn+Uh1zRY1WRj4UtsJQTAVvf1itjl1TySTP0wuj7DcIoCXrBOPETZKu7UfZITYX0X2tY+y6ab2jnZEaK6rdvH1YgbsHSxaENciIjkA0AYd6xY7qHcAOLNc1Rjm/M5G17drQKDF9+pls9oeNGtzbm90UPkTktcoyacJLRWaYLHSiWNPbKCEtzMg1Z98lwSYBODArbVKbdJ8DhmvCsOdxhDfPaLAIfRijUWOuEjk8vTWmbKpPsOLOLlpR3tJ/9ePW/jNt99oL7fJ8e2t3cXFVo2QU+jQV6cHbvFkDibe9jlFzViEtb6+XJik971uH9fH1Z718/MSQcOfSBvnkrVZ2XUgc7+vewCgxzW+byzYVpbrc8zXvg/Rqr012i/yL1KihivrP8WwEJ6G9kNrPGdPNiEpjTDkbrYzjxWlqCkvS76RQb4hBqLdMNMqPpPPixZaZtHaoHePR9dFOdU9/+SKKDX+iDovy0WXJB8kq/xDaKdtvz53dpTKyaye0K+dS6EUNe9wf4mcF2zBTV+fWKNC256XUZ5c+udEnOwipfVlLD12kYs+SqseL/bMvgT3Zu75RYko2aGAWO7fDNbzTY1uTWEaL6ptZvDEge2U1jRRG/jc2TVNg3PmoupGl9t/jhZkJVEJDYrp8dMJMdaj7aWOn6xhGNdrW9xT7TlOP6G8WhNt1gmFFU6CmDlWWRfAq8kIruQ4lC0trSw0ysN84NT9LaXMhTeA4hfCiSh5q4Q3hs5KNeFJ3Xto/sY5NRJRGu1HWMPVDtfdrY46Qkrf3lODh3e/lw+7y9GQFHh4sx91dTALSW/3/s3ce8E1VXxwPWd27TfdOV5rVlr1B9hJQFBQRARVEtqIoQxFkqkwHDkRBIE0LyJCNiLJBNo6/otAJlE0pLe39v3PT1AItTZrX9r2Xcz//74c/CE3yct/5vXvvOb/j6EBaMH8O/70P8/dgVTjBw5vMqCMRhdcNYz4v+Ihacn2KzkSTdyclWSymKe2a0npTsCAU6v0E16TPc1Wv1pt3bJqTsbqKLVqjbkxZIpBRO9IC84V3D3+WImMzBoOxQGaqbir8fMjq7d/Sex+IhJ/M+tZ15YFEQ4gBLz/uTmaO8Ka7U3DuCsJVcKJutoivHTZ1Z/p8sh9ta1g+iSjAwfpOQ8khThkPfsfMtRxh3mWoZatAcUazOOxLWpP9HiHph261Nqn5+lKoYYXXgo7zQhJSEE44g2zKiGWYvGIje4VMQsIcZWXA7yv6e0HMa4Ihfg8XVzLa3avWhPUVd1M93PvDrXMTS/tSTdStmlksqO16Nibrl6npOWJtN3L4hQnWK2YoaEYtbNNBzS0AvsUwJ9ctCCDH14RW+7zvvSmWPVh89W79VRZs0w6hIsqsYiw7G62ZJtOm19dOML/OV2MjVii95NfY6g1bEbF+MtJa7Uj6tnWlpjywXQxJcLCqhW3jH5cGUeE9sTaUnt9D9mzG7nBy9VAkXfHC78sDfwf+/obFgeTb9xVk0Zu+9OwfhBxWm4mBsofeG5SQ2foZwTmqtr6nqkpgtgU6SkpqwpwbMXFuezjdgoFM2hMda7a+tG+IG01YYMswoKaFNOgRQjrF05euJBMd5PedG+nd3MgTgUFkdHQMmaXWkS+SG5K0xs3JhqatHgL+/Evmv89m/t44ZSzpGxxCGnl6kIByIgu1rNA5ZqibZ42Kqtly8PR66zsundkWTzo90dhiMQXg74OgFtXQvQ1BNfUDfxqIYZVtTQAMcpLQAAv2mmc3WHY9vv1YY9Hn7tG76e8WOhP1Mdd4WmBMP/XPTUqHmorDtOOMQfeq+fVOf6ma3yPF49fS61XCRtP1B89f/R3Y/ZkVPtzKQTAlrDWOf1CMI9xlt058rl7wUBOBlUlBtV0CMw/e1L8CO7jmGmkfmRKAegS6kJwaElEQaWgrBl1V+HBNzI2kK8qAbc2Ijlnsgh2kpKvCn0yKV5GVDZtWKJjWsrZJCzJXrScDw8KpMJdtiTnI6Er17Wq0Yasq+SiEeWiA8oZqe4+eVFLfXWvElG5zdm1CPp6roxnBbGSkb/o4kDzbzpU2YjdfN727nAwMd6ddh1Y0CiTbWoWSI+3DqTEJsPexMLKxRQhZkuJP3ojzpnXOwY7//fu2WkdaJlRZyce6r9XU3amqz6pq0fzunk+SPrXovNOg7QRlLJZ462akah+r6VhM34tR26/86346ImwVG6tTIdOvmdf+CkqUxrGRFIbt1DjIsF7u9Iv/UFczzcDHxHhxvnXao/qRQos0KB8xZyumeLiT8TFxla422eTz5AbkBUZUY10cy/qcwgryTUbU2RBS6JEKP3fOaB+br9uh9QlWr06BxJbNyNixKTTL19pVKhiIw9kWOKGZVzQghvP0ClpuVZ35+m+3aHoU8XyYe5moaoPldGuw/A4ZrEQtEVHg7ZENtlreuUXb4oJBo6nr1eiDloKZBn37sqbjzK9/LFPPe7qp50E4O0XhfHhVCo5H22bFLnk4i1fXsRbPSEUt4Q1BrRKKXc0ftutD5TRo7H+M3ZKYU50i6c+FDD6+XA+zkEKnla7OLiSg1By+uZcXmaPW1bh4VsS6Ji3Juwlq0sTTJHxQDwrbvrauUFuWbuuy5V4DtoJLPtJZlL1aEY06NqWr2/3rEh4pqmD6sHqOP9GFmAQ00klKJsR7s26B+VvnSDJF5UMinU3n35Aoc2xtGHlnYrLlW9mPN/m7qgSj+7xyjdpG5bdTa/ts9JG1pkZdEnQ5KV+S8+34yK/jfeVZVZ1/2iPtVK5nKrB/nP1gi7waG+4ikTe8keFPYBeY2gDamsFN0NLHiWbYshWIBoW782o1CgzqatpSNTfSVru6kPdVmjoR0IqArd+mXiZBDWREvpeLK92itVZEpzMPCpBUBckdbF9D2K4FQQTrwOoIKnX/YcR4xKj6xPilmmTt+6+ROIh+98amsgQQuPcSfcm5Gu65C4I6PNqTBHh6kOhky0UUHIx+/VK/yKo+ohYY1MO27ymDSl4X5YkZadqQjFTdpPt6p36nnTa8k98PwU6Suyig9/PN65HLK8rMrrUsXoWD+BIfyiWEZiH4NvNkz0bw2dLSZOr8XEd+lTHBw5s52/aliEiyllkNckVEyzOVWaHGu5pWlAlyORnr4WWVkA52M7m0zHvNp8auZcYvsWTy28lWZfdWRstuTUiP3joSERFCAjzcyeAoTypwtVG+tbNLAhnUpoFV7zeuabPilTPqf2uNiFKRtGA1ymbdaHXGRYPKlVkRD3vgfU/+ZX7CvM5at5MooPeXw1Tsi6xrU0uZu5IfQ10lJfbu3VmbDWuh5Rqcw+1sHWpT4DnfPZo09HKgbiBs98qsaUb0MQnMfG0yJwW0POmNW9DEJBB9fwbIJrZUSJuVtmCDGr4aL0E5HEMWzdGRpp2b2iyo/wlVc9K2RWMypE198l67JPJFRw3Z1FlFjnaLI+d7xNg2f5l/v72LikxvpyftW1h/7hvTpBnp2irqtLUiWv4M8lGrUbbrRqt1bsqsqKAVW/n3DO/t31W6We/2D/g+2FlagNu9JmYNCllTwRn3zIz0hj41f04qES+CN/HXVjSvry2gPguyHht7OdrkemROMPp0Iv9sHqG+kG7J1G/MeSE1A6JvXp02ZwTyPU/fR4rou8x/92f+bsfk2t3xgXPPrd8lUnek+ObNWRPVitA0a0batGhCerVqRAYzYjuybQp567FkMpkR3RmMQH7YXkfmMcD/f4f5s3Ftk8mA1g1IO0Y442x4XUieCvT1Jf2aex6ojpBaILRN67zVpUgU4C0TNfaVSJ5pGuW8uIvO7VijCOd/Yn3kV/3l4mJr60eFnnikUjhcPL9K88HDiUf6F2vBvF4yCN4IFEujyNUes0Z60wnwVjW3eFc3NpkvPNHChZedQKBgG94/1HnyRUgBQ6Nm5DEmgNMWag5yMvkRiUj9XE3nwND1pa6uM5yjQubrs4MaWpz9ynWadGpKdhvi6LXtovM4wbaI2tLhxZoRJBL5+shEDf0kkqd8pOLxvhLxx77Sej8wovC7Qia+W1kNbiOlAzW0B3N3ODKA8rrDhhDqYhTqKrHrVSmYNFS025CRnqSr4RIYUXJ1HFcQ2wCrrmbx1dvi3fdYOAl3kpIEfxkvzBce9SDxsb4+r4QU+L5JS/JsSCh9//GMmFaW1atl/hsEPjAv4MI1B1EFpyQog4HMXT6KaOeeyeTiAVNNLFxbZqV2jnUhtbHDy33JnEx89ZFIejNzZaxp96/eBkYkTyvk4vyKhCDQUULqRzqQXs1dyKinPKjjEBhfHFgVTO/1qh6ac3+JoJ2fytf52tGqtETpJb/693f3r0qpF2+q/p2abrcmY97APfTcrX2OpoUQaK7ezMfR4izes50jSYqXA73hwKSar5/9k7f9THW1Gj3vhNTM0IioMjF9cGX6hofpQQGyk7l4/SEgH1kfS1KSI0hEopokNuG2sDZu1oTEhgbSFZe5h3JSmJxoAhxy2RVS7QRLV6PejFYq5CItI5Q9fWXi0SaDm3prmXh6nBHKWxUFe7jfwWf28SbONE9g9igfsmq2P7VXhDwHtlzmwGQHEvpqwlWI64zpoai4fZ5B16ume5P+qgmSlaC41T7vvGQ654Q6uqpE9H9do0hzH1PyyvIZCl5/bvD1pAkCdVQzyhYvl4oprD6h1MUspN2dTc5NWzlqdgJCOqCjqZb3zThvks3MrwPd4mky0Zi2KTT5J5YDAtqiRROyuIOWJiallXpJg70gCA70c43wkOazejZq1CWVO6N09ZKL1NBy0kcmfpV57bl+0nrpEC8ZgbpW2Vkd1N12a+RMTVhmvOpN71UofQNxA3eo2vyeIffFngQVVqVRHrLr0ASgogSzGrUP9JGIv4Q3cXlfBIpbHWTxNlYyK0wHZoX5iN6lUMPXTmGq6wOPUr5/buhIAZ/l3YREXgsp8HRQMP0sYG1oFtJouZQkKGQ15nVrK2AsDu+5T7BrpbaVf/WIJRs7q8j8DjoyihHXbi0bEXWzZjUuninNmpLRzOttYF47+4H39HKkKdsbzPHhQQCE65+KEkwsAFyD1r6j/OqDF0OMo7ortndPdtvJrCwNvlLJQUZ4LlcWrMGEHXqDvtTDnUx/xZvaG4LRO4hWZTaHXPD8hjNVe9nyHf9kwA8VPyjph4ODVM0IqUw8HF58+xdBKG51wN4VpkDc2d+5wqAG27lt/EzZou++7CWIzwy2lPB53oiJ572QwpkpODLB53ne1Z0ML+30Am30uHjtz6wPpeeLOg85+dtKkwUQtiPd4khqJzUVWMjQHdSmPunKiGz95tZvDycxotmd+bcgnB8zK8+fuyY8JJ7l+bNLFIlykRJVgKzMdvOneQmfVBQ0/1yu+WjjtNgv5r0UZhzbU7EVfFnbqVzP6oMcs2AlW1kQjvOT0a5NQ7q50fsNksUgNkLz6bpqQ8YWcM46eYgXrOQFm+WrKD0rrWhV+uCuA7umDFJRM7a8QJHqAYkF8B18kux/X+AAL1OoFRWSiAJwvguf6dUoJe+FFFjeoAmJcJKTUGYl2qi0dvRMNTq91EZpDLgsMcGGbGoRwrqpAmzB/t49lvzKiC2I4pYuKrKmcyIxMsKbzvy6mfn9T8yfgxj/W8061Nka07FAjI9JDEZ3U2wb3ztgM/TzbJ/odiY5xDEjylN2qzKRiPWVkse0TmRgZzcqKl9M8aNb8Gc3hpHbx6LsIt7cOBJJdyV0oXLBrkon9Hl4VUoTjwy6yTXin+wvErkwL1wMXR1Q1OoG6OcYp5DRxtxnS51kwLUo3tVkoTf/dWH5IUP7LJqMExYhCCEFJsQm/NfRRMNNtzBYXdGEjFpqNl8TgOF9vJus0gAa5SUlrRIdqdsX9EX9bJIf2fRJIO2bCQKC8eY/4KwZrs1TrVwEtTqFs9J4P/nlyvyXLxj1XWoq4egslFPg5Ko7wCCciku4O1mUpKBG7rAFZ/zQX3CfNfOnCPpZoUdoZcK0sXmrou0d21zZ06t9zv6+3bOODXwy59SQfpfOvjTgyp/DBl3/a/iLt8p4ZcjN314ecOXk4L4Xf32+d86Bft2zdj/eLndbhzbXmJ9zrzaEdD1DAw/TzgJ0S+HaNYcynFg/KYllHs7+V8O+uTXNDI1vWdB8sbsbbSoNRidcKTXia+9kOI5QeksFI6izBwWlV7gqTdXN/HeFxov9elKJ+At44cyfMOGoLjMpezVzKZsE2mAZLbQW4meFLTT4jN39A8qEaMtjrW/ufbJzDiOGl869OrQge9w4wgZZY8eSv155Mf/Y80/m7OnVIeeHVq3u1JSYNmSEFB5+YIeBa9ccjm7o7oZewWsRBf7oElXWfm3BeOxexXaNOzzUQ+Yxnx2T4D1X5sFrQv9sTTgcDYYXX78IHY7qEkhogEAMZOwWdsP1EBcJae3nU3S4f8+cf0YMY004LRHWP4a9cH1vn87ZP7Rulc+WiIK5BNxDQ3tyr5vSzaOR9GxQ7S4nGd2jeS+kwMDSrkdQQoaxo2Y4vzOcfDjOhzal55uomnu4Lh0bsaLScqeV6lB2M3flogSclNzgvWGlrj9vCftJOyXcgbQIDCC1JaCVieqZF5/L29GlbZ6tQvpEoKnOkYtGGea63TlaP0GIKGCuK4VEPYwbNc+x9FB65gxHgHwS1Tbxrr9VXjesH872orSeQi6+3rm+M06aOubWr1FEHSQjkZ5ScnGvcLfaoaA+wcOtToW0PH8MfeH69s5tqiWoxkbNSYiDjDSPd+TktW6rdSQhjhLyF8/PRssDK2vsp1w3md+7vw4ibz7vSbQhck6LqkIuKVbIxMW7Por7tDIxzTYkqVhuqVbvhyAnSQlXi4rtCUgwEvrTNmSJBzhIOSOkZk4O7nv5h1bWbfmOUcZyNskIynDgvQ2O8BCMiFKnry5RKKQc4PiaUOqd3VLlyNlV6bMtvfZV1k4vI1U3jlWTBuYFJ8OLHlwdghOEA4lHYIUGT3m/pgvz+xjT15Thenb4cM6J6YVRI4t2dW93yVIhTXJ3oz6w1w9zN8kovWkwCilS42eqSyb5kf7tXUm4u4QTq1VmVXovzFWa/+c3mo8ssYa0eXhLpe3hhaFQFycFN/qWgkcm2JEJsfH6rJGmAL/7+ec5J6RmDj77eG5VIjpHraOfAyzYuHid2+udSJiTxKbet1zkREdTCdUbAzwxXnB0C/gQsyiDDjY9mzqTQKe6FdaJTwdsrLzJu3YCNFFnZ0UqErmBMQN4WOJE4AYQnGESgDet0D4b+KXCZ1vduzdnhRQ4/sLTsDItqUxI2/uZEnl+2xTGSQcbeBgDT10hiSiwp00YwRaQ/CH/eBT1JIa+qU+2dKE5ILXVlBx+dv0wpwu10T7PbMxwMl6BnWC4AjQSgAJpSD4Smn0ZJCzQusYO7TktpOXE9CER/SqlEfED8/dWLpy+xu+rfQUnpKlNguq8cTpi2/HV7z+Eke9m+tMFA7hRPdilhi1xhYQj+BW8lx9xVjqRvVWpRPwpvCB0MsAvm1udOoTQ9eXBmlnaxqtJY84LaWXbvP2CQwiXGz4sfMM0dzY0DxackM7TKzjdqg6pnlHLEWMI3a16+wVP0ruFC20iUNEKszqC2rep54FHrUqz0/QNWGqpJukPLwhPCfjFcsdpBJoBQ8eGSwJqdQct5GCuDUhU8UJIgV3d/ktASi0teYE2eFw9wx79tOlo4HSnSMEJ6SilqeMOPvQLH4h7P30TTEvm4DuHDj5KT9l1s+lCZWYMD4pvuKv0duUJR9rZrJ2VBjiKIrDImXuY+3cKLbEC6tBaBQfyRkj/HTW8cGOLVndBSIdFmh4Evn6Pu1uLjzdxpolGQhNRoKPCmWZK3zuD8cFeVqvRXlIS4y27Zjajh1ZpP0xXfr5gaEjq6738t/Zr7nmgTbzr7zpGaCPdZTcVDwgqZO9W2avWmFSfnbZqcnFWI+YpG788bp0nQFF9IBTVC+gJHLyFI12deCOkwNEBT+SmN25Bop0dqcsLrKy5en2bJziSFE8HwYloVg8lCXeSko7JThgf7IRv3zdt5Q/t6LvL0ubt0PQd+tWCTeDMgSFrds6N/exRf9/UZk3/Oit1pb4y8Up4w0J21eFzcg70URTKZ3q9v6kJ9plXXuGNkIKt4Lj4mLvwvuEMktMr/mBmxe/jJDgh3dEqVHA9epFH00bjSAIcJUWHPk1YZKmQVhdW3I58ZOJX0MCem/Rt60oDyCGBmGZ88rapdGRjv768EdKMMWNIgrvLPdhmAjN4Ll/fKE8p6ezvLDghnZboi4lGdgR0wYLvu5PW7VRNiyhdlbLhwauQi7TwppnVwm38ErnF6fWh9NC8R2NheCLv/Mq0yl7AgxIYM5927kTfM9iicf36QsajEIX0MV8n2j0o/zjamdoDr/Q2dfr59vXIb2tDSOmvhpQwW7VUrJCJrzeNcUIh5fCkAhHi+2eB4wNq85acxJvVaJKPNwlzk9IaX65fX8j2bu0rrK3dkx0jae0u2NBhPLCPWvpgZwnRBjrk1LSI3odB9xwbBvYbFXIJuXE48hp+mdwCko385WKaCi6Ez5MYICftw0J4IaQLO3agwg/uLHw5V9J4yAUlpGAuAd9B2kd49GQPmGuhxz8Z8ENtiWhmqm4WlMP8ZUjxsO2cVCp+A978qmlBf+CXyT3AqJvLRgDW8HQbFxLu7EAyx47ltIieHz2aqL08iNJbRq4eiuTNtQ10kJAcAQlpAw8HEukhxW1dOwBKm5LD5bCNX/DHMvW8Wl2R0lWptpONVoGiJAjUI7v73WM+EG7xcox/d4TTUpjHtPw3tJ/+iqmR+Z6BAzktpLPbtqHvc95r/HGYgrpjeM9H2kcIQkTXNAtGo3o7ApLJ4Pvu08TzUG2LKF2VpurfIbtaS21r9C0TX24Y7kTuHIo7hF8qdw3tNy7md+YirKppKUnHDpwV0T9ffZXEursQlb+cVyuhZdNMtXcrGgUKQkgfD3ShyXZ/bEY3I3ugX1tX+n1vfN/kkWtOBKpVQU3TJttaT7oCbsJfv4y/yXyoQvxiucX5XaZVaWu1I69XpdcOR9KbZYhWw1khfa1hA14apEMvW3q+FOvNexHd2dpUO9q/AyYZ2QP/7AincaFJpPO5irJqK/s92xm8GQbtMFt9dwfAxF08PIzcORJzGL9c7vHm86atuw08X5W2SHAkyb7enBTRA4MHkwC5lLRSOfHOjg56QkL3oBYCMGWA1SjM9eNrQvHetwPAbIMm9g0MWVPdEhabhZT67zL//7sUX1v6kwbCB3mmuRfJWae5gatS7pG9J4IEOfF/VWp+IDj84hDOCWmf2Bj63n5eHszLa/tCFzdaLgKNsPl+Nvp8Jze87+0AaNQR6ycl0Z6yG+dXaT5gu0bUWjIM+q429yeN8pCVXDDoyJ1DsXhWyuGzUj5n8G77nJu9SaHpOLyvQV35G8DXzA/gdU/SzB7RpKGnA31gPLc9HO95O2D1HFOTjsHtfPewnEA0IitV+1ZlglrRn1Ono1TtFBvrScVzqRXXzFiSs1YL2bsF+EVzs660WyP+uh1BAg8UXT8VF8MZEf1r5Eha7hLuJqXn0Xy9tmCqH+kpJQ28HHhZBjO11A5w6lBvvN/thI4pTsTfQVK8b0HCx+ytRLVvmc3ooVVaRnpDnwtGfcwFo7YR82sXMGDIMmpHZqTqJpVt6f7379+xSUi9pdL2MIkn9Q0kjJrjqpSjvNjdjQab/SuDefsZoOYx2FFGBYwLQjoyJZle088n+/F+fkwo3Tpf1TiIVyL6S9swWgfbINKB0112EPY4sdaUVNZO5XqGZSP6VpbqHght3vJG7mATmG3UJZ5bo/e0SUiVIpGDQia+1SLGhQpp9hq6KsW6Ug568NIO8G35m9G4arZpO+er7t3qXEQ3P/MMPVfsUt9ZEP0uYUUdwAhSGz8n3qxKM7pH0841kLkJTZ3xPrcPzM3ovxgVvpLFLd2ZWetTnEV1OXxl4tU0EeQTFRXT/ANYV8pFnnnM1BkGnuj4+P6vH47kxPbunyNGEJ23Fz2T+/2HMMEFqK8aBPBCSMfEmLI2p7yIrdLsBXAMg2btif4Ol1g9GzXonhbV9fCVSPrBhJ47JMS8Ki3AVSn3OLjaVDM4pBt/E2MgqUchk5DjL79cZ0I6IDGBXsclk/wENT+gQQCclarcZeR/XaI4LaJgIAHfQYtYl8LbR5SYl2EnfDrR1FZxdE/FVlaFdKU6tM6F1Esk8vCTiYu66NypkAK39sVjXSkHgfZqCrmY/L2Nnysp2MKDG2lis6Z12iKtf3s33lsvVgSc98Lney7MnbMiuqdNGAl1kpAYL5l5F+ze5U2JOfdOK4vxHhcucL81VjrArlTh6a/U89lLMtKPFnFl+EnrbYFuMGeWqqmQZqVp75Wcjb6EE4CbZSRQEsPXz9A83pHEebiSf0aNqlUR3frsszTZSRvsQPIORAo2WPVpZTI2WJzkzzkRPdUpkmg95JCxSda8E1324E4x6gqu7VJdLDmL97kQ2f21KXb1rO9xlNUkozR9A84Iqa9MPBQ+5Kcjwsom9o3dCcdxAnAvULZUOZJgFwndyuPjZ/hmuskfFkzia0tEj770Eolzd6XnoodWhwjexCMxUEaTj9Y1C+aMiP6vaxRp6u1Iv/tFr4TdL6LlyErT3bi1N+4q3u/CYkBHU45H+jvKr1gTUqN2mq2m8+wKqUgUxHzIkqeaeJZ/QiTFZ6LP4STgFoa5puzXGa/ys+6u8HQUaRjlQJRuzuR/I0bUiiF980DTNYNCcHuYI8fSQ0mIq4REOEvJlpYhdS6i/3aLJp39nel38NZTAZWKaHly1movFxyJvYX3PP/J2B1Oa+EbhDldYPVs1KjtLuLa8JVK9gc7SUr+Wq4pm8x52xKxXykHhUgfJieqABm5e4qftXfrFpjceEakJNeoiJ4bNYp0CDOVDs0Z7WNfW2nLgqiYhjhKSFrToDoV0S7+pu3mV7v4WSSi5bm4UZ1z76SyCO99/jJzhKmV4tT+Qd+zajif3tCHg0Iqfg0+7Jdjwu+byEUnlWdwMnALyDiF72rt/ADeblE/0cKF1nJu7Nu3xlai7cNMmc6TBttniQWIaYSHlChkJgvB2q4xPdc1qkxEX2zvQzIMOquFlG73puoKr+5IzMXzU/4BD/vw0B/pIb19boXuQ/a2dfUvirg4GGkPhu3d3g097pvElzZpMnFCcIvbx6JIjK+UPN6Ev7aBYCIQ4S4lai93cnrYMNbPRJsGmM5i337BU5AZupZyZn0oSQqX02vRmRG1I+3Da0VEf+8cSdr4OtHXHdbJt9oiep+gpuuu394Xfw1jAH9YW+oFPaCV915Wk4yMukQRV4efTPIjZNSZs3fN3D0WcxQnBbeYNdKHTtA/edwEOe0j003WKjiQriDZENE1ffrQJt20NnqMD86V30w9YV9+3J1eE7DkGxvjRX5jhK4mBBSEemK8D4l3k9HXi/GWk7TJ0eQCC0JqJned+hITk+7gd8ubkr2S3R/Ffcralm6qbpLZV5eTw1cmeREm/7yXQ+8/+De1WcOJyyEu74sgYW4SMv0Vfpt9zx5leiBoERhAjtlg1ACORaPqp9CfBUb0fN32rkmgg1DDaAd6jYIYQR0S4UF+aBFCsnvYJp6H2oWTWRo/0s7PmW7X+5aiC5GX/f8EPzkZ0dWPrH9PyZao3ru8OTGn+IyyBL9bbnJ2Yxj97lvHuf7B5mo0w6BtK+Ly8BCJvPxk4sIOareHJi6aNHCPNwZ4kpQIOe8/ByQCwQ0X7epEPunciWSOHWuxgEI96kft25F4D1N6fYckZ/LH5jCcH49IVvtupj9ttm4WOVg9DmZEdWGSgmxvFUq3ZStreXasQwQtq5mj9SPPh7mTRLf/xNIMlBmlfmDKkP41PYQ2cYZ5av7v6gAH8novf/Lz/HjbBdWoy7+xO+EyfrfcY/xzpmYKi4eHrWbRV3fWRYPKVcT14SuttxaMpM3eu+Xqu0qKz0Zn4QThDtC/Eb6r42tCef9ZNiwOJEpv03Zgsq83mdqyBdnevz+5MGbMQ+IJZTOpTz5BXk1OYsTXVFYR4yOjzj5FZ3BeWArU1ELnGPMZankg2zfOVUa07nJKpLP0vtWmGVjhvvqkO80kpytPf1mlXYpAVN95yYuog2Rl/75tgitZMCyU/PGNxiZBzV6jvXLnUNxN/F65wY0jkTTRLd5XfiVjNXur0axU/bMiPgw/ieQpmODvPRf00GS9uj3xd5wk3GJgZzeaXi6Ez5K3P5JMHuIFGX5lgdZfLiV6Hy/SLMCfovJ0vy+QJ4c7kAXjfcnNo5E4H2xJ/toZTpuEw1wa2tOdZlW31zuRVomOlC4NnOlce72/J/VM3fFlEP2+wK6yrdaxdDfAiWT+VLVRCDzswDYz+EYHOUtMwu0iIQPbeJON02JsEtSLG7BchgssnWpK9hvexW8nq0lGK/URvBDSEJHIiVnl3Gwc6VzhRC06qTyJE4U7HFgVTAOYkD5TwYkosnVJIF29PNXahTSNdSD6UEBOtySf6+hKPhznQw6nhth1Ri4XMjLBKJ/6Jw/yIgUnra9rho4gEHRBtM0PR82incnCV0JJ+Zp2a8tlru1UYblMHQL3aaCjpOjE5+oFLCYZjRPxafhKxF/AhN4y8+Gnw4vr1eDBi098HAJWC5CZidcCqQ1A/F7pbdoZgDKsLcxDDxs/F7Z+R/bxoEYS8LOjPGRkdHcF2bcwvprlMprrtw/EXcfvrHbZu8LUnKJbkttxdpOMkprwSkh9ZKKGtGVXO58KJ2j+QexZyjWnINgqw2uB1Ebmr/mME+qYs35i3/P5ysFI8snbfqSR0pRhDHkAUN/+/VRl9cplvtfkFp5QFuL3Vzu82N2Nfm+rJkYuY01EU/XvnzKo5CK+DV+Z+FSoi7SkoiSArHRtYcnZaMyU4whw5gQ1mXgtkJoCxG3UU6bm4VB2BUJ3r4YTu2DbfudXQWUdbWjNcawLWTougpxfpbV6uzdve2IuHgXULNBMI9BRQpJDHDPZXI1mGfU9RXwczFPgCJi4kFFX0cS8ulN1GicOtyYwXgekJsQMzP7j/Eyr0J5Nnck/O8LrxKEJtn2htIbWqAY5kLlDQsj/rDxHhe4y6I5Uc3ww1lTKNvHpgI1sCmnud6MPLU8AAFnISURBVGp/Xgqpu0jkrZCJ77aKc6l0UqIPL4IIu6AenGkgMEIpw7JpijpP7sr9JYKakMDZLLwvpZeMvNc/iPz5rcZKdyTNxcLjMQX4PbO7MwYmHGGu0vw/v9F8xKIBwzARn4evTLwcJuuuD+IqO3u4WnIWE48QREhA4/O3BnrSLTq4/yGxKOdnbu14QLkTbC+DIbo5MYlZBZHflqmtckfK2wruSPids8GmjwPpd9GvuecBNlejF4xqLb+FVCptTdtdda28/dHNX+Kx1RqCCKHs6GQUWTzBl0R7mVZ7j2mdyEGON0K/czyKls+Y7QihBnl8b39y+qtEy7d7jbpbt36Jv4JzwDaebOlCE8O2zYpdwlbJS2aqdgqZIhKLeD7qMRfmD2apXlKp84gRtnhj8MwBQXh8DgrJamYbPzgPhW3cezxaqZmtDxtEOZT5LcMK1RrHpJy1aIZfXf7aavLVba50/h+rSUapug4iIQxz0tGcwSGVTsDLm9R5OJkQhH8CunFxIGmtNjkThbtLaVchPrtEmQXV/FAAZ6jTBgSRv1doLN/u3YLbvdYChhxwvT94McTIZvPuvOWN3IUhpCKRq0Imvpkc4vjIrg35B2JzcEIhCH/qQc3WfpAJC31boaOQkLapYcvXXPMa7ycnH74UQv5ZqbV8u3cvbvdaAvRHVnpLSYy37Pr5VZoP2Ksd1Q4QCWkwE/EjmIwrJ0RVbhqdrr1XfFqZjxMLQbgJbNV+vzCAtNM5lfoYi6nhPDRZF+pnzj8eRZOSYkvLd/TBjuTr1yIsbjReut2L2b2PYMUMk6/u0A6+P7KaZGRIVgpKSP0dRZHMhSrpnuT+yEmXtz0Rn+AQhIOrs2/fV5Q5BQW7SMi4ZzwELaAVZfnCtjWYScA1aKdyJZvej8HtXhaApDR/B8m9Q58mLGIvyUj3Bqebd9vQXm0dTMCfPop75KS7czA2FycXgnCjjAU645i3N0FEJg32Itl77Ne8Az77mL4edDUO1+SZ5l7kwOIEzO6tJtA4Aq5jJ43bKTZXo5kGXXOREIevVNqGLt87+lbVF7Co+HQ0Zr4hSF0ZKWwIpWIBrcno+aBCRldjQjoDZcMpqV9bUzP4AEcJGfu4wuIMXzRz+I/hT5iaF3z9euRy1kTUqJtxbmmEo0ioA/x3g5wkJSe/fHSN1pVtKsziRZBadpWBgvhezf7zpYVs3JWz/KvV3sxe2P11EO23Ctcr1kdOPh0RZun56b2rYOZw1r53PIKdJUQT6JDDbpcX7ZMiIQ9fieQZmHBQ8FzVRCs4HHsRb1QEqVmgIff7w71JYqCsrFMK9Gv9eXkwXh8rHkK+etePZp7CNWyb4Eq2z461dLv35q39cVft8botetOXXq83ngjYzKaQnl+ZFCQS+JAqZOJz4W7SkqqsuLLXaAuLz0Tj9gcPawvxOnCbu6eiaPbt021MTjIQzEBIQVBBWPEaVX+FBUlYCrnpgQSOsU4vVVuz3XvXnjLAoVY3xEVScPYr9XwWk4xGiOxh+MrEQ+HGndo/qMrJdWW7Clut8S3D82jMXayf46Z4Qu0ndEAxr5wg4D/zmCvd0gUjArxO7HB8TSjp0sBk1h/tJSOLh1u83Vt0dZt9bPfCXITr07uh52FWk4zStMl2IaQRIpEjsyrNVXrJSyxxC7lzGLN4eZfZmK69duOnBHwI4qB4Ao2VDjR56MKPuPqsyZ0Zw1z/svrTzjo3sndBvGXbvem667cPxF8X8vV5tp0pUWvjtNgvWFyNTiW7WktF9jJ8pOLxcBGhH2BVk6rUqOE23pz84dpOVS58d5c22XcyBZfEMylcTt592YscSw/F61Sb2737I8mIPh5lDlBT+gVa7I6Uu16TW3hCWSjEc3nY+m4U4XyO3S4v+i4iexq+IpEbcyGvJyocSv61oFP95c2JV/Gm5NHT+BllMTOxC01P15rrtw/GXcfrUoPb6SeiyLbP7xdPCFRQ6D5zhDet1cMHmrplz7fBZYYWjSKcmJWYZWYOcB/Bg2mJgL6/qUO96XWYOTBkLZu+uv+u0HiJ7G0wF/IduJjzXg61aELd3o9evHzi8iZ1jj08XdfZqv9wJO24MqSbG4n0lJaex0nJ4K5uZNVsf3JxL9Z8cvGBBx5sYGUKDzqjuivIX8s1Fm73aq/eORR3QwjXIE4hI9Gespv/sOirm2nUDRLZ4/Bk/mdelVqy1ZGVpispOqm8gTckPwDRZL634gefrkFgi1BQq0XWTxHUSP2p1i40GIOAginA/Nd9yaHVIbQMA68T9/ltUxhprzf5FdcPcyQ/WG41SC5uVOfcO6m8x9fPDufG8LlfaOO7h9V2aUZNvMheh59UPBEu6qxBwRZNoksb1SCkJXgz8gO46SsrRme+yxx7SvevLn9sDiPzXvOhK03IsIUuKxCMfv8hjFf9PpEHHjRPR5EPxvrQByIFszod11NB/v7OsrNTZvVVcP1H1SU+fu7O9Z3BXrH4l/kJH7O1pZuVqn1LkL66VrZYy4vzsSyDF7ixJx6zePkSLBihfHBV+lB3jHWai9R/FM/wEDu1GoSzbPPZ6dZZsRavTrPXaK8UHIm9xZfPenJdqMmwQuV6ltUko1R9a5G9D3MGLzTPtfBpjNz9NQYtBHnCpcpXpQ9+r7fztqizC47EYCs9xO5Wp7NH+ZAABwl0QSHvPhv4yN7ND1ByaZM6BxL8uP45x/YzZS9/NiJsFXtJRrpZWetTnO1eSENEIieoK432lJX8+a3Gwh5/6HrEGweTk8oicwavpUAdHYgq88CEoorYlZFD49LM3k5aN/LrZyqL7xnmQTT/5p4Ezi4wrh+OJKGuEqJSOFxi1YAhVdtXhKPM7Wg0TJ7JfQMtnjjYu5Q/gFuLNUL6YOspOGu9+XNCHvPUjefjiKC59WsU7bxjdkVa/kakVfdLzlrNZS42Ev9skh/9TGN6KLax2y4tJQwV9L8hZ8T0nxAXacnxzxMtnjRYEsMflxcw566umJajOHuNNu/yD+rsm7/E5907xZ/sRbgGdw7H4gobsYh1CwLKaoJf6exHLM0hKesswyGrQXgfTWIcoNNL4YnP1QvYSjLKMOrGoHQ+3BmmL0yalzv4WrNaKSk6GXMNbzzuc3t/3FUWhLSisqgbues1OVe3J+bAa3BFXIvPMJ/5YNx1CGiQUJVp1N29vQ89iBHLAQvHbo1Mnr1No5zJ/kUJxNojkvwD8XUeH3/6Jph+hp71PX5lczWanaZvgMr58KjnK5UcUMjEJbs/jLO8rmq95nbJ2egivPG4T+73jKDUgJhWcF50h1m5Xr64QZ19ZUti9o2fEi5BMTsjsqwnZMDPLDgcdxu8heG1QNTBzQmSQMonhHD5/ArhLlAbPONVkxNQlIeMfDch0ur7AcxQIFehrj7DwM5u9P2nTYleyl7dqHba4c9SZCibFdaVilqUPrlYNVGu7khEg3R+JB5B0lFBrYhpFUILT+uwTZy7TpPLBJrsixvV2Zc2qbOAvC3/wfw++9JGdRb8HRBJWF1mp2uvQHLHA2JZaVYlGvgjtrJlSWDZVu+EPgHkwmqttfP+7rVdqlrv8QwmIv5yMJ5wusDu2ai2ByrmI60D662ByZI+JdqqiZJ/MA7rS3kAIyp5dS6ktUcxiijCFv/sCCdtNI5UTLsluZPTXyVaPSdru/Z01kjTavrd/gHfs+pk9F2KL6rlo4TUQRTrJxPfaxrlXGJFLVWphWAMmqPjFi9XKMK+rAjb3DkeVdZNRhPgQHZ9EFeduVlCOzPVcBY81MdCw/gId+ntcys0H7ImogbdS6iUlpk0zLfG0L7sLOB7TX7x2Wj0ceV6ButpZTFLWbxc5S52vEFqkmXTFCTQUULC3KRk5YSo6h5x3IaysprMPIY4/lxL772sJhkZdYmokpYb2l+KdJeVnF6qtmpyXNmuwqQOPjxZH4q7WZV9IB+BB4S7R9FIAql5flkeTDupgFfvzIHB1Z6zues0F2vC9/rxJs5EIReX7Jwb+xlrJS+puklkikiMKmlp4pFMMgieZoZ29LV6Ytzeh/WlfACMt4UkopC8VJfZkYj98e+OcNI83uSGBLHSkv7OlfU9vcpi31PocAPvqWWMyx+sJhkZk9qhOlo3xFAOA337ts+OtXZVQAqPxeL5FB+8eDepc4UgouC+hM2zkboAetM+2dKFCldXvTv5fZm62vM4B/qeHo6zORnpzec96ftZMCzUwJ6IamdfWhfnhtJo7VmpTNSA+TJK2ia4kgyDlRMC/HhPR+MWG9dhxAdszXgsovf42tIKEZbx/cjSJKTmSmdijUNcRclIl21IRgKbwwgPKYnzlV/JWM1mz1Fdf1TFajseiT+HybF4eJjVE+LyJvV1JlAX443G8eSjM9ElkJbPu/PQdN31giNxt/E7RLjCzBGmchNdkCPZtzDB1vP+W9XJPIfm8/Aehnfy28nmtm6OQRuJiljNESAS+fnJxFegO8ypL61/ymJWCxfxBuNJJq/JEYg/W7looo9wEBAyhVxMEvzk5McP42ye61CuVnhCaXE1REuVI2QUFx39TLWQrSSjzFTta6iGticevQBPOAPbeFdrItxBswZ+OB+dUt7j+soUntJv749Hf2eE06R+4E/LY2K8ZWTLzBjb532qrtASZ6T9K02+ul2TPE6wuRrNMCQ1QSVkxYe33i7q1zg5ujrG5iWFJ2Ku4g3Gh21eZUnOWi0Xz0zN50Z4VIDwgk2fBJIgJwkYIpDNM2JYy0x/VJ/glx93p0K6ckL0N6yJaKr+/T83KR1QBllyPFLIxHf1QY4lVrYUMicf3S0+rcTkIz6I6VmazZvDpbIWPAtF+MjuZUEkxJVdMYUEu7ztiQ+VylzcG0FXwUyMzmLVDtCg64UKyKoPr3gyPO2Mf8K/WhPg0kb1DebLv4c3GE98eXerYGV6r862cdO0ebf2xqPBByIIMY3ylLFyZlq+VKa8b+9H43zoavStPgGb2BTS3O/U/qh+7A65n0x8ViGXlOycW70JcXW7Ck3EeUTB0ZjbtNtKba5A07XXbv6Ebc8QYXWPgdVirLfM5mzeBxsz5G1JzCk6HU30oXIS5iq98+c3mo/YOxvVDkPZq4HhLRM1Zp56isHUvrouHjd/icfkI57Vml7fqcqs4RZsJWCVholEiFBJnxdAs3nB7P7YEhWr98+3b0bchtVo36aeB1hNMkpP0qHq1dwW7xz40iY+HVBds2ZScCQWi+h5mNV7dWtiDvQTZXN76uq2xBxr0vsRhK98M91U49ks2tkmB6QH6ZHsQcCFbvMs5efslbzo3yGGPhJUvBoaESKRI/Ol/W7LFm9WmhYzeXmcjHTzp4TL0JQb0vKtfIjKz/1ek3NtpwrFE7Fr04buye7VaRD+EPsXJVARZcT5L1aTjIy6jqh2tbTFC09W1d3iNdkIKjEbk+fbvpBRe2N3wsUrWxKzL/+gzrq4UZ0NXNqkzsrbos6+9qMqN/9A3LWiE0pMNEPwQZS5Z17pbSpTGdHVz2YhHfu4aZU7d0hIGmu+usyK9C9DigcqHR+2eMGhZoPmFvYwRRDErpL4TkaRzvWdqQA+39qbzBoUTFInRZH/LbeutPDv77QE2l3GeMmun1+l+YC9JCP9QFS4OtjitcW94/KWRNjiRbs3BEHshtxfIkiDKFMLNjMBDhLSTuVKnm7qSYa08yFjeijIpL6BZDYjtB+/Gka+fSOSrHtXSXbMiSUHFyeQj14KMYvxpkyDbjJbQnrBqI9BhavFAR1iGDG9lxziWGLt01R5ru3CDh4IgtjfNu+FH8PJT98Ek0Vv+pJezV1omUx5ca0KfwfJvf2LExZDm7OsVP1o0682JBkZdG8SIqqH6lb7W7yTqtsE/L6ymJ+xLAZBEPsm86cIMnmIF/GXm4TyhTa+exYPD1s9fWDI2vFPBvwwrLPfrgGtvH/p3dDjcGet28nxvQM23y+G2ikghtVfkWpboKrVzZD4yST7TB6PUTaJaf4BNLhHEAQ5sCqYRHtJSYiLpOAgs+K0/pxTNzYjVT/duubduhkXDE2cUNLqaCgcRNF+MvHtGG95tdqtPVBjiq3XEASxe5ZNM2Xkjumh2FZNw/npGam6cVb8/T6oZnU8mFXpYPjSe9X3IMzTkA0eq7qSwmOxV/BGQhDEnjm9PpQK6YBW3nttLGcZz8TWqVX9vfMrk4JQybiQfCStlwpf/MwXgm31W71XdDIG7eIQBLFbFoz3Zc2InomrszKMujGVJRllGbUjUcE4MjyZ//nJxOcDHCQl22bH2to+q6jopPIm3lAIgtgbx9JDSZgbbcF2+7dl6nmsmS0YdG9CQtLD7dI0KahgXHI9koqaMGJanBTsWPLHNxrbvFjXae6i+xGCIPbE2vkBJNxdSlejbz8VsIGuGFm0/zOXyvznq6ubSna1lqJ6cW6LVzzB7NphqwVW7vea/OLT0XfwBkMQRMj8b0sYebadKxVQs5BqAh1yz36lns+2mJaK6DulTkZdUbW4OcS+0nrbYSKAI4etYnpxg+Y2iimCIEIGeorSdmhtXalRw9ShJoP7dirXsxmr2RXR8uejFwyJ3ihZXM3iFYkCFDLxxSAnSQkbneFRTBEEETKbPwske74NLvv9vTPR5JnHTCvUIe29d9eIkBq0g1GtOO96JG0NXWKSQ5xsPi9FMUUQxN64fjiSNIx2oE3BP341bBXrYroqOQGVig8rU6l4IjxRPdvCi5UmtiYxjbqFNxmCIPZSTxrsIiFRnrJbhz5NWMTWlm6GQf82+uryZ9Tzldb7obRnHitimvu95s6901gagyCIfbkctYpz/Z2txKMLqfrWKE88GkEika9CKs7wd5CUbJ4Rw4qYQmPwe6eUaNqAIIhdAElIIKazBwWlV2iqYKVBQ843WhdUJ76VxMhEjfxk4kKVwqHkpC1+vA+IadHJmDy8yRAEETr/7ginW7xqf4fcqmtFk9pdMCQrc9K16uw0fQPo6sL8eQdGcB/PNOievmDQNURV4mvykUw8FJ6oOmndyIXVWlbEFByQmJXpVbzREMR6zu8Kx+vAI1590p2uSje+H/vFo84/s4zaaVnrU5xRdYS6MpWIl8JEGNdTwYqQljogFRSfjsYzUwSxkm+mK/A68ARoBD60p0lIjVOil1bdSi2pCSqOQEeISOTkJxP/CpPh69ciWBPTSxvVN5jJVow3HIJYzsg+HngdeEDG7nDSq7kLFVFdkGPO+VWaDyw4C+2AiiPg4e8oigQ/3lAXKdnNglmDmeu747ExOIJYSNGZaNIxxQmvBcc5bAghMT5Ss8vRmWNLVAstSipCI3rhD4VMnFv6dEXOLFWzI6ZGHSk8EYPnpQhiAWBD1yrREa8Fx9EEyYi/XFwy/smAHyytEQUf3cOfpchQaYSeeCQVHwchBbolubOWfHR5swpLYhDEAg6tDkEh5QGPN3EmfjIx+f495VcWl7ekaZNRZexg+EnrbfV3kNAOMSCmYx5nL/mo6GTMdbwBEeTRrFsQgELKA8B/F2JkZ53bSUuFFJp444rUPkphVsDkgJrSVrGmQ/Qlo8JZEdKbP8dn4w2III9mySQ/0lKFQsoHOtd3JszC494RqywC9c+iBaDwt3Y/APE8/ImKHPlURWK95STYSULY6BSTtzURTRoQpAreG+ZN9GFyvBY8YPUcf7rYeKOX/xZrHIwy0nRtUG2EXE8qFb8JE2P77FgqfltmxpBwNylpGOFE/lqusdHYXo2m9ghSBW8+74lCyhOuHoosy9q11pz+/Cp1NCqOcLd2X4aJkT4lukwAYTXaIMyJjOjqhwlHCFLDDH/CnWgCHYrvHo8pwOvBfdRBMlI/zOmCtUKaadBNRpcjoa5IJZIBIKRLx91vyvDPSi303SN/r6j+qvTaLlUO3ngI8mgGdHQF39YS5p65e2tv/BW8Jtwle08E7UkK3V+q0+klI1U7AFVHmELaE4QURJOtbF0zBUdiL+LNhyCP5okWLmYhNbmDbUrMARs6vDbcouBEFOnTypSQOWtQyJrqtk3LNiSpUHkENryl0g5s9igt57t7l5l8JXgDIsij6dHY+T4hBbLSNdfvHI7DHAOOcHZDKGmnc6Ii2rO+x6+2NfLWjUXlEVwdqaiF6QkrmFUhvXMwDm0CEaSaQlpKcd5mZnV6Bh9I64qbRyPJtGHeJMhJQrd0B7X1/Tljte3NvDPSG/qg+ghJSGUiPQjpu88GsiaimGSEINYJaayPvKSy+ynLqLt5a38cWm7WMj99E0xUATK6CtUGOuR++3rkt7YKqJmLBlUAqo+QhNRBpISJMvHpANaafBefjs7HGxFBLBfSSHdplfdW7jrNxbvHMLO3tpg8xIuKKKxCLezyYhkG7Sg0aBDYCHAURcBkGf+Ev80impWmLUGzegSxjv4dXKmHq4X3WTEkI907pbyH165mWTpVQYV0+oCgdbaKJ23yXepydG5phCMqj0CFdFR32zx2s4w6cvfXmMt4AyKI9UIK96CVDSPuXt2O56c1vbUL38vwTn47bRZSo3Z2dpq+ASoOCukjVqK6koIjsZfw5kMQ6xnc1Y0G7Gq1MTTq8k2CqkRBZZkTa0Pp9zKglfdeNlak2YYkP1QcFNIKyU7XFhcei0FPXQSpJuOe8aABe9/CBFt6ABeUCmoxXlN2hbRfc88DbJyNZhh1T6HiCFxIRz/pnXNxveaylab0V++dVmKtG4LYAJRXwD0IPtc25ymk6govb1LnFB6PuYvX1jb2fWfa2h3a0XcXG0LKfD+zLhiaOKHqCFhIZ430Nk2gs9HXik7GHM/fH3fg6g7VqUubNJnZa7T3mJUnrD5LGLHNvbkn4UjRiZhMvNkQxHYWT/ClAXv121Fs1nKX5H6vyb1zKO4mXmPbvpeZA6vvYvQgFwy6hqg6Ahy+DqLY+4QUQZBaZdVsf1b7AD9EuvbatR9VubjtazmFp6NI01gHEuAoKTrxuXoBa6UvqfpnUXWEWEdaasiAQoogdcPWJYGlK5/gmhHS/yi6uEGdnX8w7gZe90d76r7S251+J32aeB5iT0R1czMM2mGoOgIcPjJRI5gwH4z1wZsIQeqA42tMSS2v9fKvaSEtX6526/JmdXbBkRi7N085vT6UrF8UQOtGoTesNtjkZtQwwun8b8vU81gVUuz+ItCtXam0NUyaT972w6CGIHXApX0RNHA/19K71oT0PtK0165sS7RLUc0/HkX85WJ6/c1EekhvD27nu+fcCs2HbIoodn4R8tauRNIZJs+37yswqCFIHRHkLCGdtG51I6QPrFQvbVJn3z4Qd73EDlq5/bsjnIpns2jnv2YPCkrfME35JRum9BVbA+p6oeIIdWu3tB9p6gf+GNAQpI5IiXAgKaFOdS6kD7on5a7T5F7bqcq5eyzmjhCv++HUECqkQ9p7764J8QQjBooxqR366wp5a1cieQYm0sbFgRjQEKSO6N7YmQQ7S7kmpA+aPtzOXa/Juf6j6qJQhHXb50FUSCc9HbiRbQEtNWEYk7lSHYpKI/hkI/FwmEi7lwVhQEOQOsKcJXrii0Rui+kD5g85a7SXIGnp5i/xeUUnlEV8u+6QGwLXffHwMAPrq1FchdrRGalU/DZMpEOrQzCgIUgdMWe0Dw3oG6fH8EZIK9sOzl6jzbu4UZ19dYcq5/b+uKtFJ7nbqcb8APPTvIRP2BbSCwaNBhXGbrJ2xXNhIv25OQwDGoLUEZCjUKOmDHVPcZZRdwNWsLkb1Nl5W9TZYBLBrGQv3z4Yd/3urzH5904pi61NcCo4GUVWzvKnW+Mv9XAnn0/2o+eed09FWfTvG0Y7kChP2c0aSS5K1bZAhbGbZCPxl3AD5+2PxICGIHXEEaMp6WVy30ChCqlVW8bMrwWQQUxJ093IStNeNQPlOj/Pi8sf11NRGOsjL4Hr5i8Xl5QvYQl2kZBOKU5k0mAvsmZ+ADm3Pfyha34s3VS/20XvdrxmhFTXARXGbrZ266XBZCo+i8EMQeqKvAORNKi3T3Qj699TkvOrtHYvqA+ybXYsmdAngDQIcyoTTKWn7AbUfB76NGHRL/MTPgZf3H7NvPY3DHM6H+QkKSwvrtFeUvJ4E2dquvDVu36kc31n+uffvB65vCaE9IJR3wUVxm62duvtjPGRYi9DBKljor2lZUE/3E1KnmrsSeYOCSE75sRa2/RbEPwyP54sfCWUPN/am6gUDmXXJsxVmt9F53Fi/tCQ1POrNB9UJmT/MP8tdWLk16/38t/aPdntuC7IMSfAUXKvvLjCn9fQahTMF1qhwtjJUMjEp+GcAAMZgtQt3Ro5E4VcQsb39ictY1wIc2+WBfxQFynprHMjbzzhT5aOi6AiIyRxPfyJiqx4M5JubT/VxJPE+cjvcxtifn+ldwOPI5+OCFv1zyPEsyrg326cFvvFrEEha6YPDFlbY+YLIKRGXSIqjL0IqVx8uUOyEwYyBKljXnvWk4oGiAqIy5mlath2JGMfV5B2ia4k2Elyn7hA3WmrOBfyQlsfMqVfIPlyTDjd/vxtmZqTYvnHNxq6uoYHgff6B5Eh7XxIR40bifaU3fe5mJhUolLIL/es7/Hr1P5B3+9bmLC4psSupmA+78xzSyMcUWHsY8hg4vbv4IqBDEHqmC+mmGoaV71VcV/Sf1dpqVAueiWMjOquoCtU5QMiZCaEWcHWD3MiXfXuVGhf7+VPpg0Ioluly9+IJBumKcnOuXHk4OIEcvzzRPK7FeL793daKtYnv0wk+xbGk60zY0na5Giy7PUIqMck05nXGddTQb2D4T3C+4hwl1b8Pp0ld/VBjlmwxTq6p2Lr169HLmfbKL4uyEjVdUN5sZfzUZEoCCbzuGc8MJAhSB2z59tgKi6wWrNmpXeaWbn+8H4M+WxkOJnUN5AKZxedO7UcBEGtSMAeBWwpR7jLyiFlVr8Sq39OqVAWxvvK8xpGOP3bQe12hhHXvW/1Cdj01diIFYyIL+a7YFbiZjT08GcpMlQYeyl9kYkawGSfOwZbqCEIV7rAQHINm1uqsHrcuyCebGLEduWEKLpqnPlCMJn4dADdNn6lsx8ZxIhvn8aeZfRI9iCdNG4kwEFCIPu1SZTz3y1inP9sHef6B/PnpwBmtbu3e5LbjgGtvHcwK+TtYLM3d0hI2pdjw79bP1X55dmv1POFJJRVC6l2SoZB25YY+khQXeyp9EUi6ULTv6dj5xcE4QIJ/jLoRMKZc01mJUlivGTXqhQRg25ylkE7KitV+5ZdiadBOxhao2V9l+KLdoD2urUrk7wIQrr9C/TZRRAu0LuFC10FcqWO9PEUDzA7KLYqu9WonQZm7QDz+/eELKQZabo2qCR2X0MqngpCeur7UAxiCMIB3n3Zi27v7vogjhNCOrSjr81etJmp+neyUvWjMwy6sczPnCqoFalRl4RKYu9buzLxMrhJLu+LwCCGIBwgfV6AuRsJJ4R0an9TmzFIDmIvo1X/fkaqbhyzch3JiOx4KBXhq5BeMCQrUUnsfkUq+THUVYKuRgjCEf63JYwK1/DOfpwQUjDRh/cz5Zmg9TVbLqKfnmnQv246Z9WPzkrVTmBefxbXhTRveSN3VBI7Hwq5+J9m8Y4YwBCEI4DndaSnlLSJd+WEkEK9KQjpS+19d9eRscEsZvU6KTNV+xoVWWYVS5tlg+imat+CreK6ElxIsEIVwSHxk4nv9WuLZgwIwiV6NnWmLkZcSDgClyUQUnAZ4r4Jgv59SHQCgQNAgGFlW4634Lw206ibYa75zDRqZ1dUC2rh6/VBGbHz4S0ShcANMv45TwxeCMIhJg/hTsIR+PmC/29zpfP/BJVtm6qbCDWfWetTnC+ti3MDX1zo1gJmCiC0lohr5kp1KCqJvScaSUUt4GZd9KYvBi8E4RBpH5kSjsAKkAvbu5oAB5Lo73CJz25DpdvEUxmhfCpjlS72UTWfZIpI/E9aSuAFo7YRs8J9AraUH0qIYv4cVQSHyE8meQFu1vWLAjB4IQiH+HeHKcHn5Q6+nBDSDmo36onLN+EsPcd8k/mzx3OMmigQyOrGS/i3YLoA5gs56Vo1mi/goMNHKp4ON+vJdVhDiiBcQxUgo65CXBBSsCyEWHHic/UCTosm83tTUpKu1wWjWnvRoHLFSI+jhoW0XircHLd+jcLAhSAcY0BHV+InE3OiJRr0QIVYYZwY/XVdi2V59yTmvY2ALdYMQ1KTTENKGBrF46iDrV3xCW2wHIMWgnCQBeNNjkKpk6LqXEjnDw2l7wUM6a0VQWuyYB+qK03VvZGRqns506jtl2XUdcwyaFKy0pLCIUEIIzgOrghpPqTZY9BCEO6x7ztTSzXo0FLXQmqYGEXfy+huim3Wi6F2CPMzXshI1Q5g/n9fIMuo7wn9Opk/e4wR2qZgs5e1KjkBRDLbkOSHK0sc/NjWFYmCsQ8pgnCX/ONR1Ly+e7J7nQvpno/iqZD2bep5wLqVpfYtjLY4BHw+Km0LN8bHb2HpC4JwlfZ6J9pUG2o561JI/7dcQ4W0ncr1rHWG7trZmN2KQ8jbuiPgxtiyJBADFoJw3Jhh59y6N2ZQeslIcohjJnrR4sBhFlKJeDHcoFCvhgELQbjJxsWBVEjnDA6pcyFtrnQhUR6ym1YnDqUlhWPExSHIYe76AgbZGLAQhJvk7Y8sPZv0qnMh7dPYE8pxSs6t0HxoVcKRQa/HiItDkEMhF+e10zlhsEIQjgPdmWJ95HUupCO7+VFR3zIzdolV/TpT9a0x4uIQ3AgQifxov8Mn3DFQIQjHgcx6uF9/nh9fp0I6Y6CpHOfTEWGrrNraNeh6YdTFIcBtXWlruCEWvoEZuwjCFwP7BcNC61RIwUAf3sdbfQI2WZe5qxuEUReH8BKNMGMXQXhD9p4IKmDPtfSuMxE1ToqmZTj+cnHJZ1auSDNSdeMw6uIQ3opUIv4CbsyM3ZixiyB8oLHSgcTV0Tnpx6+GkQBHCQlylBR+8GKI0eqsXaN2GkZdHALc2pUcVHpLSzBAIQg/eL2/J12VgsNQbYrolH6m8ptId+ntFRMiv6mu8fy5pRGOGHlxCGlI/GTiO72auWCAQhCesG5BgNk0vlYEFJyUXmzvQ18zwVeet22WdZm6D3LRoArA0ItDMMNHLoqHm+PtFzwxQCEIj+pJoaXa0009a1xE/1quIb0amDKFk0McM458mrDI5nZoq5ITMPriEE6ikUTyNNwgK2f5Y4BCEB7RKtERnIXIBUPNieipLxNJ6zhXKqLMr3/8sUw9j6Weok0x+uIQjpBKxTNpp/u1oRicEIRHTBps8t3dNju2RkT0wOIEZgXqRF+jZ32Po/+s0nzAVnPuDIO+K0ZfHAJKNKq3LdBRUnL3VBQGJwThEVuXmBJ/3usfxLqIgjiDexL8/Bfbef/EloD+h/5ZjL44hDLqKeTi62gNiCD84/axKBLoJCGddW6simjqpCgS5kprRIvffipgI9simpmqn5Np0L2K4ReHMLZ1HUQx2MwbQfhLz6bOJNBRQhOC2KwRDXGWFM4fGpLK/kq0VEwNuskYgXEIY1tXIukLQrp8hgKDEoLwkHmvmUpSVr0dZbOIThsQRH9WhKttNaKWrkqJoY8EozAOAZyPiufCjXN6PSYaIQgfOZYeSsVvTA9FtQU0w6Cj/x5+ToyX7NrmWcrPa1JEy7rAGBK9MQrjEICQSn4KcZGUFJ3BgIQgfOQec+/G+spIowjnaono+VVa8kJb06pW7e+Qu29hwuLaEFEgx6iJwiiMg+9D7CcT3+pc3xkDEoLwmJd6uFMhPPRxgvVGC/VNRgsNw5zOH1uiWlhbImpqp6ZJwTCMg9fDRy5KgBto4iAvDEYIwmMMc/2pGH70kuV2gb8tU5N2KpPRQqs4lz/+XK75qLYElGbtGrWzcwzaSIzEOPgtpBLJALiJ4CbEYIQg/OXyvgiikItJ74YeFono0c9UpHGkMxXRLnq342waLVgmoroZWUZNPEZhHAIQUvECuJH+3ByGwQhBeE7HFCcoWSF/f6d9pIjuWxhPtIEOVESfbem1r1a3cqmQaqdcMOiCMQLjEMTwk0r2RXhIS4rPYhBCEL4zd4wpYQjMFCoT0e2zYyErl/694V38dta+iOre+HeFxgujLw6hDKmfTFzQqzm2TkMQIXB8jakMZmQ3vwpFdNP7MSTC3eRWNLlv0IZaF1GD7tULhiZOGHpxCGc1KhPp4aZ792VMNEIQIQA7S4kBMpIU7PiQiK55J5pu+wY6Su7NGRKSbj6rrC0RzUjVDiC7Wksx8uIQ1vmoTDwMhHT9ogAMQggiEEY9ZSpl2bfwvzKYFW9GUsu/IEdJ0eLhYYbaXolmGfU9yRSRGKMuDsENX5l4Odxw2XsiMAAhiECAB2O4r2cNCr5PRME3d+nYiBW1mZlLV6JpujYYbXEIdijk4r+Tw+UYfBBEQNw4YhLO7snuZSIa5iq9U9O+uRXViKLZAg5hi6hI5A9PreCGgsEHQYRFr2YuJMBBUrYS/eb1yOW1KaIZqfrpGat0sRhpcQj7fFQi6QlC+sUUPww8CCIwFk/wpdu7tb2dWyqk72CNKA77OB+VimfBjQZdIzDwIIiwAIMVuL/bq91O125ikfYt7OaCw46EVPJzqKukpPB0FAYeBBEgzeIcSKirtKAq6z+2SmAyDLqxFw0qV4yuOOxlyMCIoWdT7PiCIEJl2jBvuipdPDxsdY3XiBp1Q88tjXDE0IrDfs5HZaJGcIPBjYYBB0GEydG0ECqkvRp4HKlZEdU/Twx9JBhZcdjXtq5MPBpusK1LAjHgIIiAXY60wXIS7Sm7WXNuRfo+aLSAw16FdDUIad7+SAw4CCJg3hjgSVel374R+a2lBgoW/z2DthNGUxx2OxRycVaTGAcMNAgicHZ/HcRqqzSziGYadM0xkuKw2+EtEoXCjTWijwcGGgQROHdPRRGlt5SoFPLLbLkVZRp1SRhJcdj3tq5E0o9u9byvwECDIHbAsF7udFW6cVrsFzaJaKpuZtaq5ASMojhQSCXij+Gm+mNzGAYZBLEjE/uX2vvurv5KVDfjgiFZiREUBw4R9CAVn4zzk5VggEEQ++D2sSgS7CKBHqVZ1fXNzTSkhGH0xIGDGR4ikRfzZFryfCc3DDAIYkf0b+9KmIdo8tO8hE+s3M6dir65OHDcfz7aFbZ4Pn7LF4MLgtgRq+f40+3dkd18t1u1El2pDsXIiQNH+W1dqXgm3ExHjCEYXBDEjrh2OJIEOUlIcohThoVGC7idiwNHhStSNKpHELvlmcdM27u7P4r7tMoVqVHbDyMmDhwPjAiRyFEhE9/t1dwFgwqC2CGpH5i2d0d0U+ywYFX6Hlr/4cDx0LauqDncRLNGolE9gtgjN49G0uzd5BDHTEu2d7HcBQeOB4aPVPwmCOmPS4MwqCCInQIZ+xAHdsyKXVKlmBr1PTFy4sBx3/lovY3+cjF9KsWAgiD2SdpHJnOGoR18f6w64Ug3CSMnDhz/DbFCLr7eTueEwQRBcHuX6IIcsy3K3k3ThmD4xIGDGf5ykQaeQt9+wRODCYLYOS90sWJ7F1ul4cBRej4qEw+DG+f7hQEYSBDEzoE4APFgSHvv3VU7G2lfwwiKA4eINvL+Dm6c3F8iMJAgiJ2TfzyKhLlJiCbQIdciu8DvUnwxiuKw+6GQizMaRmMjbwRBTLzUw9Ra7fv3lF9VWQaTqm+NURSHXQ8vkSgMG3kjCFKebZ8HUSF9trnXfguM60dgJMVh39u6EskzcMMsn4GNvBEEMVF0Jpok+MuI0kt2I2N11Qb2l9bFuWE0xWHHQir+BIT0T2zkjSBIOSCLn3aDejVsVZXeu2n6ZhhNcdhzotEpbOSNIMiDHF8TSoW0i87jRJXbu0b9cIymOOxyeDL/g0beAzq6YuBAEOQhmic4khAXSeFvy9TzqhLTvOWN3DGq4rC74SeRdIEnzsUTsJE3giAPs2C8L12VTnkmaH2V27sGXXOMqjjsT0il4hlwkxxOxUbeCII8TOZPEbRHabMo57+r3N416F7FqIrD/s5HpZI9IS7YyBtBkMrp3cKF+MvFJfsWJHxc1ar03Bq9J0ZWHHYzlCKRA23k3QwbeSMIUjkrZ5kafg/r7LerKiHNNiS1wuiKw26GQipqBjfHzBHYyBtBkMq59WsUCXeXEJVCfrmq7d0so3YkRlccdjN8pOLxIKQ7v8JG3giCPJoxfT3oqnTp2IgVuL2LA0dZolG9NEgiuH4YG3kjCPJoICHRkppSU49SXRuMsDjsY2tXJs5pGotG9QiCWEaLBEcS5CQpPPG5esGjtnczjLoxGGFxCH6YjepHPYVG9QiCWMbnk/3oqnR0N8U2C5KO/DDS4hD2tq5E8jTcEMumoVE9giCWAcdApUlHeVUKaaqmM0ZaHIIejIh+CEJ6Zn0oBggEQSxm3DMeVRrZ0+3dVN1EQkT1MNriEHCikWRfuLu05N4ZDAwIgljO2Q0mI/uOGrfTVa1Kz69SR2O0xSHIAUYMfjJxIbiVYGBAEKQ6RvZhrtL8qvqUZhh1T2HExSHI4SMTNYInyumvoBEDgiDWM3GQF12VLn8z8ttHCmmqfvrhz1JkGHVxCO98VCYeDTfB1iWBGBQQBLEaMHGBGDK4ne+eKmtKDXo9Rl0cQhTSVXAT5O1HIwYEQawn/3gUCXaWkEYRzv9U3VpNOxijLg7hJRrJxecbRqMRA4Ig1adDshM0/C6oUkiN2tkXDSpXjLw4hLMaFYkCaReHXu4YDBAEqTav9/ek27s/TFd+XpWYZqVqW2D0xSGcRCOJ5HGY/F++44fBAEGQarN8hoIK6Tv9gjZU2fA7VfsaRl8cwlmRSsWTYPIfWBWMwQBBkGpzYq2pnrR/S+99Va9I4aw0JQwjMA5hrEil9VJh8t84golGCILYZhcIsaS9umpjBqwpxSGsRCOZ+LgmSFaCgQBBEFtRektJcohjhkUrUqNuxp+blA4YhXHwfijk4lvdGztjEEAQxGbaaBxJlKfsliVCWnpe2hSjMA5eDw+RyAu2Yl7pjRm7CILYztNtXEigo6TIQhGdk2nQv46RGAe/z0flongQ0ndf9sIggCCIzQzo6ErPSS1dkaKRPQ7+n49KRS1h0i+e4ItBAEEQmxn+hDsV0qOfqRZavr2r7YvRGAdvh69E0gMm/Xcz/TEIIAhiM6Of8iyEmLJvYcJiy4VUNxX7lOLgs5A+C5P++4UBGAQQBLGVkkHtvAqtXZECFwy6YIzIOPi5tSuTDIRJv3Exdn1BEMQ2bv4cn/tMc1M7tT+Xaz6yRkgzDNq2GJFxoJAiCGK3FByJvZSZqiO9G3pYnWwE2btZBt1LGJFxoJAiCGKXFJ2MuZ6Vpi0GIW0d50rCXKX51ggpxaidhhEZBy+Hj0TyPAopgiDVF1Hlzew12iIQUSDGS0a0gY45VgspbO+mN/TBqIyDj0LaE4R09RzM2kUQxEoRPaW8kbNWW2gW0T+/1dBtXWZV+ke1hNSg12NUxsE/IZVKH4OJ/8UUbKGGIIgVInoi5hqzEi0TUWDn3DgqpE839TxYHSHNMuo6YlTGwcMzUpEeJv6skT4YHBAEsSyx6Gjspax005loeeYPNbVRm/JM0PrqCGmmUdsPozIO/gmpSBQAE3/cMx4YIBAEqbrE5Zf4nEzj/QJqZlBbHyqkW2bGLrFaRKnvru5VjMo4+DjqMRO/EIymMUggCFIZxaeV+Zc3q65VJKBmUkKdqpexW9boWzcZQzIOXg5GSH9vEuOA/UgRBKmQOwfjcrPTtfceJaIHFifQ1Wg7levZagupUTcDIzIOfm7vSuul+8vFJYWnozBoIAhyX0LR5U3q648SUDMzBgZTIX2nX9CG6gopgBEZB19XpO/CDfDbpjAMHgiC0NrQqzsSL1sioGYeS3Al8EB+bIl1HrsPe+42ccKojIN/K1KJpA8IqWEu1pIiiL07FF3bqbqUZbRcQIGDixOIn0xMmkU5/11dAc1I1b8Pv140qFwxKuPg3fCRixJASN9+wRODCYLYYceWgiOxFy9vSbxqjXiW57Ve/nRbd/rAkLXVOhtN1c8xCymuSHHwddRjniYvd0hywoQjBLETCk/EXL2xJyGnvDNRdfh7hYZEe8pIhLv01rkVug+rtRo16saY/z8x9JFgSMbBz1WptJ5RIReX3DwaiUEGQQS68iw8FpMH4pm7XnPHFvEsz6JXwuhqdEAr773V29LVjcNkIxzCEFKZeBjcDJs/Q/N6BBGKcBYxq87b++Ky87Ym5mVX4ERkK/+s1BK1vwMJcZbcPfRpwiLrhVT7FvNzZv23xaubitEYB5/PSeNBSMc/h+ekCMI7s4Sz0QWFx2Mu5x+Iy76+OyEHSlay0tgVzYqYMzik2qtRZiU6CepG7+9Jqh2F0RgHr4evTPyvJkhWzNyUGJwQzqyqmPl4t/i08nbRSeWNopMxV0EwCn6NuVRwJDa34GhsTv7B2Oz8g3HZt/fGZQE3f46/jxt7ErIYccl+EObPs81/59Yv8fTf5u9nYH4e/FzmNS7Ca8Fr3julvFl8OvpOydnoe3XjKhR9h3kf15j3dRHE8uae+OxrO1W5l35Qg3F8cU0LZkVAp5d4XzldjR79zLqSFxDRjFT99If/XDsAIzEOfgupVPwhPF0eWh2CARxha6V0F0So8ETsFRC/O4cZ4WOE4NZeKnDZ13apcq7uUF3M25KYB6JwcYPmVs46zd3sdC3JNNa+OFgKvL+ctdqi3O81BRfXa25d2qS+dnlz4pW8rYmXrzCAyFF+VOVUJOJm4POb/+6VbYmXmOtwudx1KKTXgaPXYEwPBV2NDu3ou8vK7dwJ5VeiD7RR64qRGAevh0IqaoplMMgjV4enlflw7garNWbllnPbLIg7VTkgIIygXM9dr8lnVkklXBUAxHa2zY4lCrmEJPo7XLImUzczVfta+TNR7EeKQ4gDymD+ivaWFt49hXaBdsPZ6MKik8rrhcdMK0ZYLcI5G6wUmVXW1YsmYSxGAUGAC6u1pEWMC12NLhkVvrI6JS6VuxolemMYxiGE7d0pcIN8MyXoHKxAUGh4vrV6JroAztYKj8bmwpYqrB7NAgkrx6w0LYoDYhVv9QmgItojxeNXC80W3oHt3CpbqBl172IExiEMIRWJgpib5F4XnTvJ26L6m1mtXEJB4nRrq9tQGwjbrDd/NiWgwFkdiiRSE6x5J5ooZGKSoJDn/bZMPc+SVeijtnLvR/8sRmAcghk+0nqp8MS5+8M4kr1Gm194XHkCRavOknUKwYGmALZcf4nPgrNIKpTfawqyjBjYkdrj5JeJJMFPTvwdJMWrJkYuq6o+NCNVN9GqTF48H8UhpOEtEzUGIX2+tXfZTXRth+osszq9jOJWM5mthcdjr+QfMq0qYev10kb1DTyXRLgCGC901LjRLd1R3RXbH1kbmqp9zfo+pNrZ55ZGOGL0xSGws1LJjwqZuGTfwoTyKf938w/GHWKCfwEKoPUZr1AGAnWAUK9Y1zWACGINg9r6UBHt/v/2rgO+6WoLh6y26UibpulukzZt6cg/KUWGIDgQxafIEFHh8XCDigMfIIoUARVcCIqykY1pWhXECaK4UJEtKDwFaZsWECnKEqT3/b+bppbSSZM2Sc/38/yQEqAk997vf879znfaBW+rJZt8orrVX6OI1CrcSacuwQeJVH559azUGaVvC3+c+j5lk0gOZ4gga7Bl22E8hoZ+ZJe/f5z526F3TSepDEvhrTFxcAwn0fYJAYV7l5qmVc0ii6zmkfUJiRoSpQVCFp26BB8l0zbrMWNw/YtpNW4wkVCP494OpcnWSJpihnkcGebxrxzlWDTRE2FS+FK8PsJhSJ+iUZZtnJk+02moYM+zPOwce9aU4GrdPCGX5UqkdOISfJNIFZL24iYqv1YIrnOz2fOF8qPrMg/DucZ3s8yUslPfpcKlpvTw+xllJQVkOEDh2zHnoUSu0E1SK46/O9n4NHxwYSrfVPKsIXrSaUvwaYgZ6SI8kS58VN+gzYfZhsc+zSjlpNpCvqRNVsluTTlyYmOaw8v03SzKMilaXSx7zAB1bnmcSnbinVzjPDeQp8Ok3iZMtq/OUdFJS/BpREokOpFMy1I0ynM/Lspq1GZEporxTSh9gpw8iljF74WbgG9KLYVJAbxe4W1KhyhFa49Fo/Qsyl/GzeiXjDEscQeJUjZKaIUlXtndyEpvvzK8SRsUmd0hMcPDfeLxL9qWYHoHhDnIAt1AlGcxLQTTOyps7yqnZcBsnA5MCoqah3SjnJsQJD+VN87whrsI1JmNFlo7B9AJS2gtaBMhb/MRtw4cZXDLBoYLz8FVplMgOkzQOIqJGOszSo9t+GfU1XnxOfeDLXFOzfjtw8zfD6/JOoY/gxx9KCgaH8/8J5YLi3AnumqScYGbM9EXSqzZ3eloJbQqaCSSePFJtcwQoijf9HoGHTwUFD5kQv/g9RGcRFM1yrI1k1PnuZtE0XNKSl1Cq0S4TNYHm617WiB3OqFDiILCu2PPYhPr017NSbRdnH/xPy0u7o1Sq2CgE5XQeu9L5dIXsenuaOJ9KQUFRcvGtzPTWQd9ACfRq9KDftzTABN6F0U/OkkJrR0yrbzNWmw+OJ7QgURB4X2R92QSSw5VcBI1RfmV/rAga3pzkGhxnmX0ptk5CjpGCa0eYRKJOkIh3YVNOPP+BDqYKCi8yHx+dP9IBsey+EA5iw+SczIV///0oK5hGze8nP66u1S6GKd2YEV2DJ2gBMI/ZJqgU0rtkMrDAYUOKQoKz461z6WyLskqTpwo6X4xvS1DbzjUumJWyr8eqZSeu86s3u4OwZFIppfSyUkgVEOEnyRFJNIjRKYUFJ4b2+Zmsnt7ankWqg9RsNzbotm+5eeLBQ+sFLh7WffUQE6oeC3uTeufO9rAsAn96cQkEGpBpFJiEjPTEpDp9GHxdHBRUHhIbJ+XyUb3i2SdDCo2oFMoe/neeLZ3iane32cbn8x6mR2zRxGXpaj2LhtrWHzRrS5WYTizDpDRaUkg1J2ZGsUn2APYdGP6R7IiKx1iFBTeHu8/k8J6t1NXEuoVbYN+ys9NXtg4IhXGli4WAumUJBAaQqYSSZRIpluw4W4Wn37Rn0aHEQWFbxEqSr5XZwbv+mCqcW79w7rN4/e9ZQml05FAaEyZVyIJDJe3ycOGy471L//khTQ6iCgofIhQnSVfiJL6tFdv/npG+mu1KHQnlhYIOjoVCYSLQ5twuXS0+OT6d7S/jE0eEsMKqdRLQeEzYXsymXU1OkRJMf6yM3dcqf3ixwozB6cZfVG+EEdHIYHQRGgUkk5xKllRxd0Ko+yUgqL+2DI7g3vfevr3CR3EvEcSmTnG32l0/+cTN0etKRIz0f35OdF0AhIILoIQKQm8OjNkLe5VdEoZe+C6CPbDgkw6MCl8Jn5ZZmK738hi372Wzvsy8cC45ukU9s5TRvbmE0lsyRgDWzBSz157IIGr2qcMjWVPDIxiD92g4zab0BNcYwrmPz4+IMrrHjhh8PD0kBimD3EYO0QHSLdq5JLOdPoRCC4ExAaLHtXPF59cS7DRsOHGiQdJY4eEU3ifGTo+Y2fsmJ/Jyaa2+GqGg4Rqiw+nOMiptlgqEtaSKgHicgbct6beEVsZU26P5WsQMapvJCc1TD8BsSFu6xrG20X6dwhl14okh7gsJZB11Ku4cYExTMkSg+WVataGRpSfjGVF+nHivPOqcDbp3zHMOi6Jvzfe/nnvFP8N9/WK4A/MFaKkRToumyAQCC5BaYGQdWCl6UXx4FqTEqY45iTUR/voGI1k88z4daXAP5v3nknhxIRsasJt0byqMOiyMD4xpEdGEO9RBDng84wJkDWaXDw5RDIoj1PJ/kJFBSTYLs6fOwP1yAxi/7KEcLId0l3D7uoRzskY1nvjb4nmZI0B2Sh94j7xs5fSONG0hnWDfyseFPD+6RTSP8UfR4pHgJxOQQLBBSi2CTdAjLB3qWnamL6RH2LuYcVm49L62Q8msp8oS22+GZRWMyfKgtxkTpJ4qLm1Sxi/z26rVfI2h7pIBqrNhCD5KWOYokzM0g62Twgo7JKk+gXN+wgxi9vpjF5C8I5+l6i/rzU6hG4SCemrOuLL4b0i1tcWj/TWfTz6pqj3nTHh1ph3nx4a97YzXrgrLl/MSt90xvyRictXjE1ejHj/aePcD6ekzlk/LW3W5tkZryD2LTO/VFWFmhauPNouLoDWTSPvT8V1VF7xQLItXCHpQKcggdBEYIhvUZ75XhxMC0bql4mH0+/YZDi0dRWHNlS+/Tqo2Yzh8Uw80OhQckGALOFU8+LdcUwkHHZTx1Dus4r3uiaCTAhSnDRF+x0UyfB/Yta55a4emg2j+0V9ADJ6Y5Rh6bqpqXOacdyWR4SYee/Ge4M7UFpTjSvvY81VlHvLI2TSVzUSSQidhgRCEzBlQJJaJMp1OqW0HAc5ymDw/IQXKEphg7tpOLE6D3XcSQ27Rsvmi0+3uEejw6n27PKbmels+VgDF37gng/D12u6x0O5Uswij4lkur93jnrL8Gu166cMjXvLlpu8cO9i07TWRJANjTkPJa7Ae3d9dohXKGo9KUrfFk6unZ60/9KUgBO8AqWUloTLZDfSaUggXAQiFBKLmHlud7bD1PV0D/EFsqhnh8byO7mBl4byRnBkU+hLBfG2xkMJxuJ433BniftK3M+hny9OdWF2KX7tdE5cQOH12cHbUP58/q64glWTjAtQWidybHygPI33FYIassCskziPH/ssfcuZbSmby3cn/1b+YzJDnN2VzF5/IoLFB8l4uVerkC4LlkjC6WQkEBqGNhAciJnQ2Sg/WTmUivRUX39LxfoX03jbBJSluLuEqAeCl+qEqQ+Wn+yQEHAA2eWD12vX4g7wy+kXus1QNC1gONAhUVWI9xyKW7R90Fp1hD1fKC/7NOPgma0pR5zEWVvsX5fIbuzsGOWm85MeouyUQKgHMRKJNkLZ5r2K+YflIAc6eP4ZbQXLNYyuQjkWJezrzCFcAVvT3WWyWvFnZ4NqX78O6k2j+kZ+hHLjd7PSXyWSa77YOifjlU76gF/xeVyeFsS+fqV135mWvmP66/hXbUvP7U4+Ux+BVg3x9WxebpXsVCadFyGRBNGJSSBUg1Yuv1ynkB3ERkF59pflgleTHnoV10xOuaC/cfWkKn2Mow3/NN5X9Co+cqOO3XO1lvVtr+aHL/oQaxP6iF8/mxnpd1h83Z5BXcM2QoG6eJRh6Q/zM6YTkXlGQNGLh5mK8jm/fmhtFZaSt4SzJ75OLS3fnfx3Ywi0euxbm8h6ta/ITpXSX+CGRicngeCATNwYEyFqSVIrzq18PMkn5PxonL+/VwRvzL+YfkkoF9PCleyShABWoVY+cscV2s+fHBi9Bu0Yn01Lm0VE5T0BFbO4vo/js+xsULH88cm+T6I2Mzv2acbBxmagdQXuTp9/OBztVBDCnQuXS8fgOoiOUULrzUIlkugIhexzHC5oWvflFhYMTUapGlkqmu6ruurAGm7VRCPPWDe+mn6eLSIUtvGBcpS6fyVC8u7YPjdrBrJTqNCx5vteombrnk/1yfV+cLXp5JntKUddRaDVY5M1jlkSHH2nWnmb1SESiYZOVEIrLeVKD2EjjO4XyRWmdBd6YcB0Atlpt5TAPURGvhGrJxrn4/N0Vh9gMAJHKF9Zs2XrMw6X704+6y4Sdcbv3xrYv68JcrRpKaUHtApJOzpZCa0FzrFp5xKD5eW4KyTCrD1gWM4fNm6Kep9IyLdi2VjDYrg6OQkVFopv/FfvtQ+VdpuZnfwm7aCriPLE1iT23Ztx7PT2pDqFSDPHap2l3lMRMtkAOmIJPg0o7cLlbWw4NDoZVOVfv0KmCXXF2xOM3MUpQ6c8QuYHvhsFE4wLbmgXvC3aX/Y39gYEZuj79ab+Z3uBcO6vLfW3szQ2QKQ9swPYiAFqtrUgvtbXfbYohhk18opSr3QC3ZsSfJNE/SRG8YlxFxb6v7tp2M9LTUSWdQTUvTB2j1PJzqwcZ1hEhOP7gfaku3toNmBWJ/cn9pNxcxEI8Dw5Sy0pEP4+sy31d3eVcE9tS2ITh2l4XzRUu2vnxdT4ul8+TmBd0irawWTSeRAy0slL8Blo5PKrdUppGZS5E4dE/VnylnDCnk93orUFekXRKoEMZeb9CVYimX+iOM/yPMLX/k1FeZannf8utMw8PSTmna5G1f+cwiQouOFD62nzR+355vKGGCu4Inauimc9zA4Ve892AeyrZbEXvKZsk4H17uRokYmQt8kXjx8lncAE789EFdIR4qI+lxQqL6/hSfLkuV3J+89uT9l68tu0b8o+Td92cJWprLUSKNxvRt6o44dAfKD8NNpcWj1x2oTnxPdmoj1PeLzIZn6kyCoML7YKd4pfu90Rwi2VYTUPFMnoxlrDKvQW/8yetUWx1XK1+PdcVlsUWbM7l+RbLnFGkdViwcg/Z9htprYHVmYlO8Oen514YEV2DKKooEN4oTVT87M1R11o7RyAwGCGqntF/P4fq/7v3/By+uvDemo/TdcqjzjvUtsnBPCh3p++1PKkevr71MPNQaJV219wJxof5Ggpu/fGEHb4a/0FGeyQChESFL1EpgRvhkIrk87iG9/gV/7T+wkN3zC7k3/7a3PKprK1GbvwxNta5jJidiXeLyHar/TjqalzfCXbqvnr5okgRpCh3WruKxLklYVWcwf7ynbpxdacBAx4Z+svb1VzKe15lkF1vZcLR+qX9Wmv3mwIkZ/wBFL9Y0NblwiLzvyQxD6aE812r2n4GQHrwP6XBfL3IDVCwd6eHnUB4YJkK3x6l1OZl+B1CJNI1OKT4Dou7e+kYke+MTRlo/156vvU7w69ayr1SZ/c5QIbKx6EUf4yPtNzQOfQ77xNWFQTWfJypdXyRMUovH72fFO3Eps585A1I6q1EWRDUWoVDA15vzH0fvaIhJUYW5cQJD/pJNWc+AA+JxbOWe6+Uz38btZxcW+Wu1KhO3m4hl2W7s9eejScFX2W2CDrwOVTIllSqGNq0f39Q9jxLUnnEfSgHs7MVPoirTCC1yBUIkl0ioqgtDu9I8l1ZZ3txu2H38sq8hUSXfaYgVli/FnFHdjRWeLh6HXZpU2YXGyz3C9mlDfxEqiYUZZYsyOYdQBlABcBlKcb85nsF0l1xvB4a+926q1O5ySEQa3gor65DyeyXQuzXO5Y5C6zhT0fJLB+YqaJh8rBPYPYl0tj6/09xRv0rG8XR3YKsdHud/9R9+L8uSYnoEKAJLuNVhjB44GGaJ1Cyv1yn3so3G33JH99n7q55C3hpLcSKByOMKsS75OYif49pLvmK0/PQkUSnVBkMw9Ddlmcb+mCO8DD76QF06p3LTbNzlHgHvhiPqOiN80vLH3MsEQk0K+yIv0OVdpNiqR0jSmYPTUomn38XCp3y2rK+j26NtPt96KrXoli2YmOWcNXCQHM+kIkzzBre/3fu5LZ9FGOflLcn9peijyPaNvqFOU6pfQPuKnRKiN4LDRyeU/xKfIERp+tmBrZHMKDsqMfZ/7kTQT67cx09p/LNfxpGwdE97Sgnz6c4ll3oUV55iftNsvdEOcU2oSOvNy4OkdFK7z5sG+h3r+iJN6kz3Ld1NQ5GJXXOUn1i/jAdrZyMlCogt3WNYy9el8C2/R64205z+5IOdYcwqKT25LYtEfDK0u3HY1+nGBR0q3t9yCDTY9UsOoP8++9Hu14cFXKFtEKI3gkImSygZgfijFHnyyIYc2p4jvxTepOlJo8mUBxWGHsWVTFFJf2CQGFC0bql7VcdmmeIh7UjxblCUNK8ky9oEAtXpEVv/c9ox+tZs8AFL14mKlLsNWY2LMo6+Xpw+LyBnQK3ZQeofyt6oAE3K1ifc5/JLFeE4jD72b92Zz7G3H0OwObcE8Yiw2UVba+wKihttcf+CSRdWnruDJ5fGhoJfFe31GFjPXctPtiLbTCCB6FcIX0AbS3pGjl5TCSbqyU3SUN25tSD9k9kEzh3ISRaE4CNUX7lb58T4KtmUuyo0XCvEp82MguWWHRH1naMYRWrfcALTXFVvN4V6+LT15InT2mb+SHV6UH/Yhh71WJtYM+gI8yhF1hdWI9/kXbkuYmUmeUfK5nj9yixgg1/n0O63Nh60vVflI4IuF1uXeH8a8tecbRWvbU4KhVRfnmKxgj9yOCJ5CoXPoYFmZWjKK8odJ1PB1+MDual10OfaV32SY7vTn1sKeQ6RfT27I7rgznZvP8/Yn0O4QGe9xhtUCp9l5aqd4NVAoqemHdZkRhG5f8xojrdeu6paj2xgXKT1cl1nZx/uzOq8J5KXjnW4lH6yqtNkfseCeeXXeJo1UsJVzO3ny+5qukP743VBo4LJqs4+cO/v/hPrqPHD3K5jvo2oLgESSao1eWH1if2KANgF6xy7P82cMDXavmrcxMv0092JIEihFpN3UMrbwDzY71tz9/V1xBSxBoJZFaLUNptfoGoIbG5+nuNYP2GoiWhl+rXd89LXBPYrWMFeQ18IpA/jC8bn4ML702N5mCzEGg6CHF93RP7/NbX5yBh3VTjIILkPpc6iDfeQ8lrqjyoDmu0GqOpdVFaAkSfdpJog3p94IZAyTtWMzo+3LnBjv2Wfqh5iRPKCCXjDawq9Ir+9VgyL9/5v0Jb3qCeAj3n7RifQs4+LmRRTOuo1WTjAtQCr5WCN6ZolGWVR9E3znFjz1wUwhbOFHHvrfVPbHFlXHwSz275UrH3rtS8K+x1PvZGzGV32cXo+qXGjUDBdlmWlmE5iTRsc6NUx+J/rUziU19UMNiAmQX9He5Mc6hWdzdBLr7jSz27NBYuBDxDQoRw9VZwT+sGJu82GNaVqyWUWR+4Ls4uDwr0m4T+oMIXCVKamh8PSP9tefuiCkY1DVsI4bOx6pkZ6oSKwzmUX1CL/m83AguDoIK1x17Hq0vk4ZrKltlaiJxCI3w61vnZLxSR390T7o3JbifRBXS+xuaif6wOp51z3Qo5x66We22TVSjiGlHyjF3KXk3TEvjCse4QIckP04lO31rl7CNn01Lm+VpJujweKVV6/vAPR/EM05RUkuY+qMcbMtNXoisFSPhzDH+9qiKsXCV/axKKetk9GO3XxcsPmCHs9WvRrH/fZjAidAV+x7KXvw9M0ZrL/g1nEH4NTwA1HkVYjPfXN0DmUBwGbQy2SCnsAjy8rqeDtH7hSw0MUR+XmN0c0bZ+gyXlXgL3xR4+baXObjyUICJ+EM36Nb+sCBruudNRzFPKbS2M9KqbV0AARRaTSaIaJxk2pKTcjDF5s1xhkVj+kd9AI/gdnH+RWLm+lf1snBckIxdYfLn95xTRmi4+cKWgjh2bFPj7l6huzCEyrmTkfNrRzYa2KuPaTFJiaVolEcbpCuwWf5DzlwElyNCLumGPlG0uPz8Ue3q3NIv9Kxv18DK+wrMB2wpZd+5H4wn7flCkwzvN8/OYLm3RvNBy3wsk0JaDlUjLNlaUkBUT0zC1BFata0bcJ0qzLNcLq7jMZ62RjGQIfe26Hl39dBs6JERtCtD53eoevbqjFStnJ8lmOaCnlCQIogWk6RwF7tvbSL7dV0iz2wLXo7iJWWIoQZ0D2SXpvpVCv/0IfITS8YYljR86pD5DiJTgsug85Mk65TSozEqWfm3dTRB40Lf6SgyanBoo8UGUP7+/q3BxcKjto1W8cLsW9xwrF8HNbdWw78HxuC3XBr6jae5EF0Ylod/XWYKo1VLqApM08GEneI8Idcj3LOs5pE12RuCYGcMi8tDG07fS9Tfd0lW/SyS7OG4GrLY+iLST/Z3ikZxDO5hvHI0P+MiKkeWQVTmJTQZkRJJoPhEtxsLs/qYoqoxf0JEpcdl3ouRjTKoxr3G4KuD2MdzXe+I9PdO4+8NJdCNr6azMf0jWVut0pl9so561f6Jg2NW7V3quT64zkHXxTbhBhIWEeos/TJJG275yEkVM15bQgBnHn8x5ebtc7Nm4A4W1SDsyZF9dB/dLWa08KnGvNbhvSLWPzkweg3I2JX7FfuKVg6hSdDKpHNAKlDe1uZMNGZIqGOGZqySbXsrvkH3GOj/+lcHFS/BzH4yok4z6qbGbx9k1Doo/MdFWUzcmNzQ2/kkawxV/DG4m+Zrb5kHimHQpTZTEq1WQqNIFfepNksKH0JQxTnJ3XeqNQ0v9/zh8uZsWjGEiyvpymT9QSwYT1STlR9UuBhz5LwPtW/Q12tAPWtcBDPHKXn2ivIvhABuN77+JvW8Oab7ljuEQzd3DuUCBHz/sQGyM72E4B3o/fTgu88Let+4XJ+yUIILMlX0ptpt5mvgwey+NSv81xsH00MBT9aahEZDLZGE6fykh5PD5OUQENXkY3lDJ0dfFkQAGMpbG5Eh25w7PqLSgQTE3Ez9pJWiI5gmvDPRyO7tqeVzGiul+AbVfpSDdnuY8rZ+2z9hSKE1U0MrleAO7HvLEopReSLx3eXsUXVNtio87m1EWiWTHkgrg9C4kq5cOhVkA5eS6sQE55BuGY7+UJR16+oB+3BONOuQ7FC8YrYgRiA1p4UYmsBxB5sVpSx3lm6FaL+DuFP5eGpqrjc9FVf8eB8pcgnNmq2uv1xetNKcirtCGHw0aTyfl5JoxV3pc+TLS2gwQsX/IhTSUzBTqE6SINGu6Q4SRb9XbSS2f10iG9TDUfaNC5Tx5uvmMGRwkueTd4bxErKTPNO0yqNDumu+XD3ROL8+9aAnEmiRzfwIDjNanYSWxs/WHHWh1dzBbjMPxrD3Bq9nm/CgNxMp34dkI0hocDaqkN4D8kGvVvVyLiy/8Gsv/ze8VvER+rziKuYGgkzrMm9wJ3kmhSr+HNA59Lv6esc8+d4GRI8Ge7ItI3gqDlkzolAGrjDTn+RLIqML92N2Z/rECQ0l0qUgoqquIvDMdRotPHVvWK2tLBi4i9dY4pV8Ir3bLABFwv5yaewF5Imma9iTzRqRsBKWZU3pa2thIdEI+8p26USgBK8qAztFS/mmbnAHqp6xtqTLkksGQKyw6OlTJjQIEfI2HyUEy8qrEhccRUBU9/cPYTXNIsTAXPSQ4jWP3qZmf252vRoXgqY1M6P5hAmncAlhUMtPwH5sdiPJ0yPJ1Gq+58DKrGRahQRfAUa/oRQMsY49TxjrvWIj4U76NAkNJ1KZdCYICkIhp2AIP0e2WX2GKH4OcsWvZ0Yr2CcLXGuqgFmCS5/VccOG2IpyMS/bqhV/DOgUumnBSP0yV7WrQExQtZ+u2QRE+Httwq1kME9oJaXgIJFcM0ryTL0wdB6tJd5ApPsW6v3p0yM0nEj9JEadUnoqUiktv/fGEG60oFfLuZ9l9TtT55T6GzurWE1tMhdz37m1IJ6b3vdqr6r0yeTDhDXKMtj0LR5lWOq+Xk/3y/Mry1s2YXKhzXId9acRWns5GPesDgGT0B+ipKotN54SeACgT4vQKIQrJB1FEtviJDEIiKqbK/TMDqgckXa2CWOQfvtazyfEDO8bUunV67Tos8T42+/sof08Pzd5YfP1aLqvIb3i/nOMSKaX7rRmKGmlEQg1kGuuRLo/PycaQ+ntNkufYqv5gZoy1+a4c3X8HcJY+lQIF0+octmXMKsvqzbOCMN6QXa4O63pzrSugEHDNytj2bMPaDgZV806MRy4W0rgHsw03PBy+ustZAf2FO8Zc7U7itUyFJZsJCAiEC4OGMgAEV6RVbgShvLQNdSWvbqKZCGYKsoX4ujdJ1x8mVch3dPe4HceEW5/O97hUNQ1sEEDeUGcGHeErBajjRKCZedNacB0B7SpwJ5v3zLTSx4hc7eZH3FR9jlRJNB/kQsRgeCm7FV8MAXB4iEVbTiODFa4k1eWbMLki9izU8U9+wTcw1A52vue0Y/eZUKToJVJ54HshvYK5rP+Nq6IrTSpR1ZZ4zi0TxK5unbScA3r3UnFh/ZWJc4kteJYL3PwDljzfTm97mn1LWfBZx7XBPeh56G+LbRlCTTPkEBoWUAkxO9gRaLFnhSzy05F+eYr4FNdYs3ubs8TLoMpPciY9ivBLQiWSMIjFG0+qWneH8wWMBVm/F1hbFifEHZtTgCDN2/V12AQNob29m6n3uocceQ9kvfGCY84+drM19A8UAKBQCBcAI1SkqGVyQZpFdKHETqldHmkn+yokzDFn5+I9pPvCZe3+SAr0n8lZgUuHKlf5m1m8Of3dAoP1Wvdl2d5Bv1x6P2ku08CgUAgNBmF1s4BXKzj5Q4mTtFRXaVblIM2zc5R0KdOIBAIBJcBwhpvJ9ALJj5UESDhToX6PgkEAoHgvmzUAxupmziD8LEKUUIEfcIEAoFAcG82mi908hHyHF+UZ76eescIBAKB0KywWy23eS15YkqFTehfajMlkWiIQCAQCC1EpOZ7vElkVJwn5Irfc99Sq2Ag8iQQCARCyxNpnrmfxw/mzTM/WWwTbrDnZycSeRIIBALBs4h0eY4WYiPPy0qFsVATF6/IiifyJBAIBIJHo9iak9DSA7JB5CKhj4Cx9cHlWZH0qRAIBALBCwnV/EBzZqYYscSnq1jNHQ6/kxZMnwCBQCAQvJ1IH2uOuaFoU+H2fGQ2TSAQCARfQpHNfLNrBuqebwqPPxfWfJR1EggEAsGnYV+doxJJb9jFkiYfhI15gnnmfs4RR/SuEggEAqHVAWKf4nyhHWb+OcIySCTHSVWM4Z/lZWCb5W6QJtyRIFgiM3gCgUAgNBb/B2NSqSPpz5pAAAAAAElFTkSuQmCC;" vertex="1" parent="pdbDPgBVpFcdV0zUKIh2-5">
          <mxGeometry x="90" y="125" width="92.62" height="140" as="geometry" />
        </mxCell>
        <mxCell id="pdbDPgBVpFcdV0zUKIh2-1" value="&lt;font style=&quot;font-size: 20px;&quot;&gt;&lt;b&gt;USUARIO&lt;/b&gt;&lt;/font&gt;" style="shape=umlActor;verticalLabelPosition=bottom;verticalAlign=top;html=1;outlineConnect=0;fillColor=#e2edee;" vertex="1" parent="pdbDPgBVpFcdV0zUKIh2-5">
          <mxGeometry y="21.632653061224488" width="139" height="243.36734693877548" as="geometry" />
        </mxCell>
        <mxCell id="pdbDPgBVpFcdV0zUKIh2-4" value="" style="shape=image;imageAspect=0;aspect=fixed;verticalLabelPosition=bottom;verticalAlign=top;image=data:image/png,iVBORw0KGgoAAAANSUhEUgAAAUwAAAD7CAYAAAAB1q0mAACAAElEQVR42uydB3hU1dq2d3rvnZDeey+TXgkQehelI4qIgBXFRu+9KSroARQUVLCBdBCk915CepvMZHpLef611jAczjnfd/D79Rwx2e91rWtKymRPZt/7edfbOI433njjjTfeeOsYdvDg6SHz356FoSXdkREeiuSoUMQnRCMiMQaRIYGICgtGYkIc8gryMWDIUEx7cwa2fP0N+HeON95461S2cOUaZCQno4sRh3hTDqXulhgX2xUvZIbh2axQPJsegIGRrsjxtkS0gxE8yfc4cBy8ne0QFxmKqa++gQ0bP+PhyRtvvHVs+/izL2DpYAEvJ3O81EOAXVOH4+AL/fDLpN44/mJPHJhYjFOTeuDguCLse64UP08Zjs+fG4L3euTimZgw9PL3gYN7V5jZOiMsNhmz5i/mwckbb7x1PNuzZ/8Kaxs7vBzB4cjEQtx+sRTlowpQ/0whygal494zWbg7Jhe/PpWMS2OycHN8Lm6OzkbZqCxUjclG1Yh0lA1OwO6hWZiX4Y/+fpZwI8ozItgXf9vOu+u88cZbB7LX3ngdVjbWmDcsDztfGYXtz/TCzv5FOPLMAOx9qhS7R/TA16N74vOR3bF9pP7+D+P6YO/YPkRx9sGpF4bgyisjcOPVEbg4fTz2vTwGc/sWoqhrF/gYW2DyU+N5aPLGG29Prh07dSr0mx9+OP3J5s1YuHw5ZsycieHPPI3BQ4egoKgQqelpSM8QICIqEg5OjrCwsoSvixOCHZ0QaGyGNDsn5Dq7IZgoRS+y/G3N4GduDE9y38+YQ4KDHQTuzsh0dUBxV3cMjQ7F9OQALChOxur+hdj8/Ghsfnky+sVEIdzRHjMmTeKhyRtvvP159tPuH6+uWb4a016ciqeHDEeyIAUhkaFwdHOCsYUJODMjWNpZwdnDBZ4+XggJC0ZSSiJKenRDn369MWz4UIyfMA7jnh2L5yZOwPAxEzHj3flYsXQd+vXoDxPOFF5dfDH5zTfwzooleGfWXEx8aRpGjh2H0WPGYcigwcgWpCMqNIi43wHwcTeHr6MZXAhUKVgLYsJRmJEEOxcrcNYcNn36Nx6avPHG23/Wvv/625ZP1qzHs2NGo1+vUsRHR8HJzpYAjYONhTn8u3ojISYavfr0wIhRw/HmjNexZt1K7Ph6Ow4e3odzF07j+s0rqKopR11DNcQSIeRKCVrbtWhHC7vVtarJPUCpacPKtR/ANzAEqbk52P7DLtS1yiFGGzTk6wryXbI2LbTksZbcb1aJUdlQgbLaOzh08xo+//FHvDt7PtLTsmBpYQvO3BKcLVmu9rAl6jU7vwCTXnwJa9d9wMOTN954+52u9LFToUsWr8CYUWORnZmFQF8fONvawt7KHCHB/sjLzcRzE8Zi4YI52LJ5Ew4f2oeye7egkDdDIm2ARislWNOw1dauQkur4uFjlVbGMCdXNRMwSqHWydEoqoVI0gBdmwoatRJTp0yGpZUp8gtzcPHaeYJEDarE5WhuEUEsbUSzrAEyZRP5XWIoyXNyXSMULUKo25sevArQ3g6IhQoc3HMUM6bPRFR0Ajgjc7JMwRkT5WtiCnNLC3h5eaC4KA/zZr+Ln77fyQOUN954+/f25TffSae/MxNjJrwA74AA2Du7ECXmgKCQYHTrVoSXJk/ERxvW4uCBPbh7/zoBXDWBm4IoQwJEqKEl6o+uVqgglddDqW6CtkXCFr0vUzSwpVAJUddYBU2LAk3N9QR8QgZAmVJMfpeOgXPMiGdgRFTrU8MHQ6mSMPxVV99Ffc1dtKjFUMmboFaIoFI1QaEg8JRWQySthERRBaW2Hm1KGaRN9ZDLyPeoZeTniWZtb8Hdy5dwYNd36DtoKHyDg2FkZgpjYw4mZNlbmcDD0RKOVhxi4yLx0pQXsGPHlzw8eeONN447deqUy5KlyzF85BiERceDs7CDmb0bAqMS8exLk/H23FnY+d0ulNdUQN2qIjBUQteiJPDREW2ogrJNBolGBJGy8V9WS0szNJomKJUEkIp6tlSqxoeLQpIqTCmBHlWZFJwUlgq1BK+8PgWmpuaY/NJU1DcJCYDbIBIJoVFI0SIn8FTIoCG3SilRlgSISkUz5IomSAikxYpaSFT1QFsdxOLrEGvuo15Xjhr1fUh1dVArawl7ReSVgZPnz2PZqpXo0bMYpkYcTAmgIwM9IEgIRVxCLAKDA2BBXPiYhHi8NmMGfj56tJD/1PDGWyey3d/vkr7z3ttISomHh5crrGzMCRj8MGBQXyxcPA9HfzkEoaieqUa6qFqkqlGllRCYiZkLLFUI2e3vWVICrgZRGXkNFYTiGoJEHVraWvHKq6/D1MwKE18cR1RoBfsbmppridtOoKgSESj+3RX/PUujUz7cN5XKxTh89ABefX0aIqPDiLvOIdrHHcWJ0RhZkIu+CXEItDKDuxmHPj1zsW7DEl518sZbR7Vvd31XNn7CswiLCIWDkz0cne1Q2rs7pkx7kQVjauurGDjooiBRaxUMjnRRSBkgaYCVWFr/u4Gl1DZC2FwBkaTmARhbsHrtKgIiYwwaPBRVtfcYLNU6KXtdCkz6uvRW0yL73a+vUElZwEnU3MiO1wDOM+dOYvtXnyMtJQIedqbwNOHQMyoC03r3xrj8PKR5e8KbPGcZ64EXXp2Iq8ePx/OfMN54+4vb4cPHBa+/MQNBwaFMMTm7OhFI9sSqNctx/NejzCWme4jUDTa4wvQ56h63tKsZnB5dFJSPrt8LLKG4iqlLkaSOvf7efT8ymKdnpOF+RTmDJYV0WcVN9noU3HTPlEL8jwB2Q1MNO1b6HtBjl8ib2C19TLceFJDhp5+/wejBfRFkY4VA4q4Xe/thfFoWJucUYWhIOIIcrWDpZYH8Z3pg576vedXJG29/NXt3+lvIS8uAkbEpPDy7EEj2Ysrt0pWL+hQeAgm6b2gI0FDFZoCgQVVSIFFVR4H1qPtNoUWXwTX/vYu+DgVUWcVtJCTHMOV78vRxpvbo16krTt31lnYl2xKgfyNVnA1NVb/7temx099Lg1b0mOjvpsdKj42+lrBNBDUBehuUuHHxJGZOmYQED3f4EHDGOzphYXYJZuV2w/DYGPg4mMPYgUNyzxR8tG09D07eeHuSbee2HejXsxccLSzhZmuH7KREzF+4AD/v34dmKY08t7HcRn0KTzMDhVwlZIsFSqS1LDWHKj61rpkAqeIhPB91zR9df4RLTHMxqTs89tmRMLM0wgcfrWGwoqCkAKMwo4Ckz1GYUTVK79Nj+N2vr6ZArka9sPzh8dNjp+9Js6wOUqIwZZBD3NoMSauEwfNezW0sXDIbiUlR5ILEIcLaAq9EpeLT4kF4KyYN8cbG8HYwQkp2OD78cDMPTt54e5Lsvfdnwc/Pj6XERIQE48Xnn8XPP+xi6TQqjZqBki6JTMTSeAwgoqCQKem+oIjd0seG5yhIpIp/dLkN+5eGPcw/wiUXNetBvmbdalham2Hy1IksNYkCXNMiYeqTgpq64VRl0p+h9+kxUIj+7qATO8ZGBkr6ehSU9D2gr69tJZBWSghMq1EpJq9JHHQJdGggAK1pIX9Tuwzzt6xCQrcUmBPFmW1pj5VJxdiS0QfTQ+LQ280d9pwJeuSWYMPGL3hw8sbbn6Ymv/625fmJk2DlYAc3by8UlBRi5eplzK2l6T40X1GjIQCgeYhyCYOlfn9OzEBDgUgVlERBVJWOuKZtRHVqieut1D9Hb2Wq+ofuuAGUj8LyjwCmrqUNV65eh4eXO6JjI3Cv/AZTuPT1G8X32d9rCPRQRUvVpsFNp3/L7319ubrh4TE/etwKTSN7X1obhIBcDq1OCTF5P+vUIjTRbQGtFGI5udAQvDfJxNi65VOkpcXBzIhDkqsT5iTm4Pv0AXglMR5Z1lbwMzZH3+59sf3bPXX8p5c33v5L9rcvviRw7AkHVw/YObthwrRJ2LZrBxoVTWihe35qCRqaa5h7SaHY0qZjsGwSNzBXnLqyVD3RqDSFAwUGBQS9pZCg0KS39DGDyT+lDv3RLnk7QfuIkaPh5OKMT//2CUtfou6xSieEWFb1MNBDv9cAafqYQvSPAKa6RcQWPVYKTPpe0McUlvQxRDJASL5H1ETUJlG0cjEkwnq0iESAWgtUy6BrVrJ8znry+9Z+sBxJof5wI+BM8HTBZykR2FJaiNcz0xBkYQ4rExP0HzIA+4/tX8F/mnnj7T9ka9auR0ZWJkzNTRAQ5It335+Bi1fOPsyTpCk2hvxEA0j+CKD93kXdW+ryU4VISx1pbqe2RcVUb2t7C777/keWQvTCpMkMnqJmWgnUTECvYRU/f/bf/7hFSztpGScNoNHjo5H1ypoyLFm+AP5BXcGZcxgaHISvBbn4KS0VbwR5wteYg5OHC0ZOeZ1303nj7Y+0des/RGZWDoxMjBGfGIdVa1bixq2r7ESlaTiGgAh1XQ3u8pMETBpAoUpXH4UXMhjSQI9aq0JjUwNycvMRHBKGA4cOsr1MCkwamKqpr2DH+KQDk9a+0+MypCLRx/T/Qv/2S1fP4eXRL8LT3o41L34zNgJn+w3Drqxi9PF0h6UTB8dwb2zayo/Q4I2332UffbwR4eHhMDWzYH0iFy1ZjFt3bj5ILNfnS9Lgx6OJ5Ib1JAGTwlIfwJHp91AJLCk0KRzXrl/D1OXM2bOI2mwjX5OzrQOq0mobKlkU/0kHJoUlrXmnCpMeX1Xtffa4lSl/Haiv/v13+9C9Ty/YEmgKTDl8XJCP/QP7YWNCNLq5OMPGkkPi4GzsOrV3C//J5423/4N9sX0bklKSYWlpjsjIcKIoV+Pq9SsPIt0tEIrrWLTYkCf4aDL5ozmT/5w7+WctmphO91OpwqSQp0CkCrKiqpzVaAsyM1BZXcHc8+raCrbPyoJBRDn/EWlD/+lFIUldckPyP+24RJ+jx0FhWqOUge41NN6rw7z5C+GfGAxLAs7hBJKXcgtwLKIQr8bHwMyGA+fMYcacabza5I23x9mP+/ZuKS7pBhMzYwQF+2HhgtmoIwDRtWqZ+0qTzWlVCgUkBSVNf2kUVf5LQvk/pwD9+UCpfwhM1opN2sTAP3vuLFZ5tP2rbQ9c8UaWvkNVJc2z1LXJHqQ4PdnApGCkx0UhSWFJF3XH6cWBXtzqWirRpGlkCpocJq6duYLRQwbBlQDSjaxDWX1wOLMX/paTh16hLnAgIM1NDcNX2/j8Td54+x9tzISxsLa1QldfL7zz7nRUVd3R947UyZkLS5f+RJQ8COzoo9q6dsn/mFT+JAGT7mFSYOpB2MBgee/+bfj6+yAnL5vVbdPGwdSl1QdRJCzdqVFcro/gP+HANOxbGkpKDW3q6PHQ44WuCs2KMlTIycVOowbx1dGqbsPKbRvBxboijKjNOZHJOJzVE79kFmN1VCQSyHPuHlYY9f4UHpq88fYwoLPhE7h1cWfdgkaPHYFLl88yUGopFEXVUCsb2H4fjRbTk5AqL5poTVNeaEoQ7fLzz+k9T5pLTpUw/Zv1nY5kLPr93sy3YWNn/UBd6rcZKHT0e4J1LLWJNuTQtIqeeGDS/UqqLg3/I4PapI/pbXvjfbSR/xvdw20kx39b1ABJezvrJH/rxm30LO0Nny4uKHC0ws7ENFwu7o0PMwXo7esJPwLOnqV98eVX/JRL3jqxbf/2x7rCnv2IS2qBnr1K8O3unWhr1/cGl0rrGCylzVVQMldW+uDk0+9P0hQdmidIu/zQ1mj/XH1j+L4nZ49PXzFDE81pIKSs/A78A32QnJrEgjx/b3yhP0aWOwopWRLIVHV/ibQiCnv6f6Iq0/CY3qf/NykBpUYtg7KxHuSfCyhV5L4YaCZqUwXUa4FpC96HVZA5PFw4vB3nh0tFvXEyox+WBCTBwtoJji5d8NY7c3ho8tb5bNyz48EZGyE8MgwrV6942PyCpgYZej3qQfPH9Hv8s5dYVs2ORduiQWsbsGLlarZ3+eXOLURdKv7yx/e7swja5WwP98CeQ0iNTIU7UZWvJSTicFERLkZF4HB0Fsa6urKa9YT+RTw0eesctnrNB/D1C4CzqwubhnjqzEnmjlJQGhpLGPYhH1WNHQGY9IIgkTWjsqoGhUXdkJicgPuVt4jLLe70wJSQ94AGvGgk/cbVexg15Gk23bKftTG+71uM4+EJ2J2TgxcTQ9HVkYNvuA+Wfsh3QuKtA9vQYc/A3MKKgCIJ27784mGKUGX1/f81YPOk7EH+7uYa0ip9VySlDH/bvJXlXS5bsVTf51JZ1+mBKW5r1A9/k6loPAiVoma8+MY0eDiYIsHDEoeKsnEwOw17slOwJj0K2c7GsLE0wVOTXuOhyVvHMjonJyY2nkFi4OBBqKmrZrCkoKTBArrf9c9BmictaPNHAJOVbRJgFnfrDnsHpwfvg0Zfu93ZgYlG1kZPWi+EXKIGnadZRz4jiz5ZDys3GySZcViRE4+f02JwMjYUx3MyMM7NDXbGlgjo1gcnT57syp9pvP3lbfjTI2Bja8/263r37YNfThxjydk0n5JGU2mTCUOD3kdXR4KlwSWncPz11AnyXpg8qBlv0yffaxo7PTBrNNVQaUSARgNVgwR19bRhMVAvk+PLr3bCztkWwc6meDM1CL/mp+BOVAwupWZhVmISHMlnyzukC9Zs28SrTd7+mrb1820QZGQxVUlXdm4OgwWFBIUlTTuhiktfnVP3v8Kyo0CT5lLS/pYvvzoNFpbWOHP2PDQ6NQMmTY/q7MCskJWDhst1wnrIa6rZCGCxRARhTQ0rq9z94xF4hPvDyY3D3F7pOJSRhPPh4TiTLcD2/GT423BwdzHFtJlv8NDk7a9lr736MpydnekHF3b2jkhMSsHZ82dY+gzNp6SVLLTkjyrLiupbrO/jvza07VjApH02b9y+hODQIDbUjPa/pA02WNmjqr7TA1OoFqK+vgzKpioCTjkk2nrUSMqhVdJenDVobwe+O3IE4RnRsCafq5nZ8TjeqxA/BXngYloYtpbmoYeDKbxMOUx6cSoPTd7+GtanRzEsTDhER0XAyckJgUEhOPbLiYdlf3TpS+bED7r3iNge3v/UW7IjAbONQGD7js1sa2Ljps9YCze6n0kvHHR/s9PvYSqJC65uhlJOPgutdahHNSp09yDRVEErqUB1cwMLBh09eACp4SEINuYwSxCOA0VxOBnjgSNRkdjdrQgDvH1hQzya0h5DeGjy9uTali+/JKrSGtH25pjdvQClIV3BWXD48tghyIlL1eFPeGkjS9Cmydq0LJBeFAwNKWjyNq3sycoRIDQiENV1ZexCQSt/aHJ6s7ym0wPztyh0XZMQNBp0+eQlRMRGwo4ozWXd0rAvPxXf5XrifLQfrsQmYkV8AvxM9WNKvt31Qxl/dvL2RNmkqRPhbc0h090Ra8ePwoT8dLgRWM6d9y6qaYdudHxgUjAaoEmBSVNk6GMKS9q959jxw/Ds4oZxE0YxVUkrfyg0DZ3eeSg+ZgwwGiGVNaJVqma5mjv370VMXCCSyOfsk25ZuJmXgoPp0difFo99yelYmSZAmIs1XPzc8OGHH/Jqk7cnw54ZNQx25Go+Ia4Ltg7rhy3jx8LT2gjd+pVALiaKoLUFDXJhhz+hacTfsCgoaakjrQ2nM80pMF+f/grMLU2w+4evWbScdliiA8dorfhfobnGn73KiIsup8PXJBIoiMciJRfhDTu/QCzxZMKIe74vNg17C3NxuCgLJ2NjcS43Bwsy4hHqxMG/iz0WzFvMQ5O3P9f6lhTD14jDmORYnHy+H36ZNAIldlaIDPTD0UvnodRqoBLVQyPr+HmG+jlBsofNJwzuOIUlzTVNTI5jw830TXVVDJh0SiMPzN+2ykHeLzRDo5CjoqwG1c1K8hj4dPs2Nqmyh40jvhAU4KQgE0fjQnAuJRIXczPwcU4yMrzNYWdhg/lzF/HQ5O3PsSG9ShFJPqirexbhwPiRuDiqN95KCYEXeW7rho1sg75Bo0Sd8B6gFXaCk1rMmmdQcNKWZhSa1C2nwNx38CeYmHF4c8br7DHttmQYY0thyacV/YZuSNpKiCWVgIxoS5UOVeV1UJIPmZa456tWfwCOqMxJkfH4MT0LB2JCcCyyK85FBuBQcgy+6pGF3NAAeFhYYNKEF3ho8vZfdsOfHoogAsZF2Wm4/NwIXBnZG7uG94cPeW4scdE1YhV0sjbUKiWQtYmga7zdKYI+dL/S0GWc3rayoWwKTJ/xKgPm0V8OMWDSjkUt7XLWhZ328uRryX/LlkcF2nViqIQ1QKsO7RoNqqur0drazvY0x7w6FbZWxpgQEoDjGdk4HRWO45mx2JcQihsJCfhwcHcM8nFHoIkRnh81nocmb/8dm7dwFhwIGJ8L98ON157H6SG5uDEyF/lBAXCzs8avFy8wdamSaljSsULVgCrRtU6hMKmyfDRCTqcnVlTfQ0x8BHLyMlmXdfqcYcYPTdhnsOSDPr+ptJR2dWqQlKNOch9a4pCL5HVoltSjrVUNRZsO4Rmx8LTg8GFuPk7ml+BYRjJ+SYvB6YgA/CwIxf7eBRjp6Egu9kaYMnYSD03e/rP2zdbNcDLnMDA2BIdfmYijQwtxc1wBvs11gbGzM96ZtYBFxGvU5OMsVwMKDZpr76EaHR8INLhDoUkDPXR4GZsMSR6fOf8rcxffn/UOazRCoUo7MtGZ49Qtpy457arOQ/ExY4rJ+1SrrkFtey3KdfdRobmL5vY6KFqELI9XS97bG9cvIdjfAwHkM/pxTi5OBMfheloydueFoiLRDydig7CnpAdej8+AO2eMvsW9eWjy9p+zoPgwDPG2w699BLg0OgdnxnXHT5OeRqSfDeKTonH3/k0GC0PTWDp7xzAMq6Of0DSnkipGmnhP3XOVRs4AOfXlKXB2dcKVK1fQ3NwMrUYBlVyMVqUIICpTI6mCsukemw7J8jUJeOmtIU2Jvn/Ureeh+e9XXcMd4prr8Pk3O8DZW6IwIhw/FJbialQ8bkYG4WBJCA6leONiYhjOpKRidXAkYgk0UzLyeGjy9sfb5DfeRICrDRblx6N8Ql9cGpyJSy8OwxvZCbAkCmrDJ+vYnh0FpmEAll5NyR7OqenQQQlRJVOMtOclVZcUmEJRPYJCAhEbH0PcbiV5f9qg1BG3kqjQJlktJMQVp93i5Wr9eFq692kIGunfM72br8/v5KH4b2cmaYnSJO55g6gJU998He4mHJZmZ+FAUgKuRkfgQKo/jqUG4pwgBqeIq74nLx+vhEcjxtUDKfn5PDR5++Ps1KlTLp6uVhjk74Kj43qjfGwprpTm4uD4pxHjZI7IiGC2d6cPaPx9+JVheqBecXbsE5YmodNADm0oQo+dqsuz50+xUshFSxaSd0ZL3Ee6B1ePmuZqiHVNkLSL0NjSgIbW+ocXlkcnL1JlSfc8Dfue/Po3Hds1+qYtaGtFzd17SE+IQLgth1UZ8bggyMDx6GAcSgrGvtQQ7IkPxqmCHBzoXYoXwgIQQODap6QPD03e/hgbOeJphJEP387+Bbg7sQ/O9E7G3cEDMDczCw72Vlj74QYGSwpK6oYb9vIoKA2qqTO45LR6p15Y+aC6pwUz3pnOgEm7yuvUMmhVUn29NB21S9RorbQKDUrixkP2UFEaQGkAqOHiw0PxMe8/Tc9qlUEpbASR9/j+p6/B2XHo4eeA473643JSGg4kRuGHjHD8lByIIzFBOJOVjG8LUjA7NRhenBUGlA7gocnb77Mjxw694mlthZfSgnDv+SG4PSwdZwak4dq4scixc0FiThbqmpqJs6ll6ojWUtP7FJj0pDe4mB0/cV3IgFnXWMGOnzYZCSPKOysnE0q1AmhVkRO5Ge0EiqCD3uhqVUKlJBcV2d/BSGFLgUm3NgyJ8LxL/huCbjSC3lyFdjl5j5uaaEIXRrz3HGw4DgvTc3AqNQs/JsZiT04cThbG45doXxwN9cLxrGj8XJyAl5My4U2+t2/vfjw0efv/t2kTxiLU0hpfP90b158qxNXSMFwb3w0f9C6Bh7EFZi5ZBm27jp3ohlxEerIbRsYaoNnhZ9LI61mpI+3CRNX28V+Pws7BGq+98SqaxEIcO/4Tvt29FV99tQl7f9yJMycOo+bebbQp5ax8lP4MDfhQaFKVTiuCKCwNuZ08FB/jkqMZdQ132QVJQy5WklYJLtbfRFR4ACI4c3yXn4+fsjOISx6DU5lkpYbieGIgzmZE4WhyKHYXFWNaWCj8jTmMGTWWhyZv/z97l8cF8Z7ueDYtAxfGjsKZwZm40T8KZ8YXItfPERFxcbh26y4USv3eG1VJtNeloTzQ4JLrlVLHPmFpmpCuTcaaBNNjX7BoLiytzeDr74OIqHAYBVnC2N8SFv42MHU3h5GdCYLCAzF69EgsWbAQl6+df1hKScFpeN8MQTQeio9pzqGqgVJeBzmtnmoRo7zxPtrbtPho1VpYmVpidkoUfiopxMnkZJyICsWRlFAcyIrAyZwEnIgJw4noQOwuSMPk5BjYE6U5cexEHpq8/d9s2eI5bHLfuuFjcW34CFwe1x2VYwTYMzQV5kbEfXl2LAghoJDVMDeSnuhUGRlcSqqWKAQ6AzBpE+Tyqpv4aONaDBraj+1dOrnYIzA4AJHREfAdnoyA4WmIHZWPhKfyEZAdC49wXzh0cYexpTkCgn3w5tuv4eqNiw/ne9MLj+Hiw0PxMXuY7SK0q8kiyrKRDlQjFy/INVDWNCOlqAQp5HP8aVoCrpCL/8XoKKI0w/BVeggOZcfjQkIiahP8cUQQgdXdstCTXODczO3wyvN8I2Le/g8WGh2O5yJ8cWd0P1wblIbaYT2JunwaQ/Pi2Yb66QsnoVI1obG1tgOkBdU+BBWFPAWVocSRKmVIKqAT3YNaUQWJogbV4irIWhXQtLeisrYGK+auRWaKAJwJB+sgDqGjQxA0WwD7VTkw+bgARuuzwa1IBbcyHaarM2GxOA0OC9LhPjcdrm/Fo2uKJyxMOYTZWOKnL74gDqYSRKujTlqPNmEDiwDThHcaMKJjPWi3eprzSbcAOsIY4t+9h6wEpEoNxOT/1ayqJasaWkjRIK7Hzl27YWRphDF+QThd0gvfhXjjXG4UTiUF42hGLHbkJ2BvYjT2J0Xgl4Jk/NQ9DZN8XRFoaoxRk6fz0OTt8bblwM8tXbxcMUMQg6tP9cDNYZm491QvfD+0L8LdLCDomYGG5hq0tEghxl//hKOpO3TvkMLSoI5pihSFJf2aWk1UnoxAlYCrlYAL0LCSvC1bNyE8MgTGpkZwDPeE//AEBM7Mh/PiLJguSIHZIgLNlcXgFhBYzk+F5cp8OKwrgeXyPLasVhXAdGk2YlYORMCENHC+HEysOcyc8yZBpoqc+ATaMhGDomEUsX4OUsPDDvU8MJvI/0qBZrkMCh25qLQ2okleAVWrGK3QEWg2okefnkjkjLBVIMCxjEQcjQ/Ar9QtT4nAHuKW70+Mw6VuuSzl6Ju0MGzvW4TSLm4I9vLBO4vX8dDk7TGpRC9MQIS3Mz4f3gt3RvbC1WFZuDq6P5YVZrNO1ys/Wc7cUJVGiOY2cQfIo5T+Q9DKoDANe4i1ShkaJWKoaLcctRKnj+xHQUE6OHMOHjGecB6fBP93iuC7tDtsCSyNFqXDZFk2TBbng5ubg6RVw+ExLRM2Y2PgNjEFbi9nwmFGLmzmFcNscTdwH+XBbE0BfOcTuMaawtKBw6qFs1h6UhlVTbKGh6M6DMPiDOM86Nc6fa05HX9Cu9trGqHSNaBOeBvC5nLWe5TuC+/c+Q3cyef2WV9P/NKjAPvC/XE8LYI15zgpSMDPsTHkNgUH4kKwN5m46n3zsTI/FT2JaIiys8GOHTt4aPL2v1tYaAAGJYfhl5dG4P7IUlwYmoUTE4djWEgAooO64nb5VfJBlKFJUgmR+q8PTEMNON1/NaT30Fv6PEvroUXy7YCsToQVc+bAzcMWHIGaV+9QxLxcCAvidpt8kANuSTK4eSmwW1oIz0W94P1eD/i82R2cjwXbxjCx52DnYgaOqEjOmYN5ti8CniuE04dF4JaRn12RjsgVfWAVZw13Z3Ncu3gOYp2GQfHRyZr6VCYemA+j5KoGCEXlaJZWkfv1BKCVaBJXsYCkVNYEtUSNAnKxDyUXuL9lpeNociIOp0YRZRmGC4kxOJxI3PLwEJxNi8fZjBj8RNz1w/0KsLlHDvqbcgj288axY6dCeTLw9i/2zc7dcDXiMLdfDk5N6I+r/bNxeVQRthGF6UWenzLpBTbZT6qoYMAUy//6aUMUkI/WcFN1SV1yCkxa8kmHZJ868CuGDxoCIxsCukh7xL1Rgqg1A2A+m7jSK+LISgS3UgCzD3rCc1l/OA9PhLGvJcyMOaSkJ+DZEcPx5Zp1OLtjF3avWo/XxoxFTHQYOHJCOmc7IGouUZfzkpn77jOVqFdHoohGPE1eu/2h622Y4W5wx6nq5F1yAkSiKikspfJ6BkmFUgK1Rg6lingORH0SkYlPv9kBOxuqMrvgeEl3HEqOw7GUKJyJDsUvglT8mpqEM6nxOJMchRNULOTGY19hEr5ID4OvJYfs9BReZfL2r/bq5FcRY2OMr58biFMjCnG5jwDXn++NVwqS2Ojcr77ZTdSWgnxA70Cuo7NW/vrNIQwdhgzpUfryRh1bNPCzad16dPXzBEdOuIChSQh5sxgOs7JhujwL3EICy6WxMF+cDo8F3RD8Rg9YZfqzIXBJEWHYvnIlyiW1kGllQBs5czVaQNtCQKjB2aNH8Pb01+BB3leHaHtELiqF3YoCWL+dBrNcD7i720NztZLVqOv7btYzSD4KzI4wVfN3A1NDQKmoh1IhgbBBjNoq4jXUk4teI10iQAwItTokFQoQZ00+291KiMpMwsmkaLafeTAlBqezU3EyJRZHY8LwayLNz4xke5xH8xIxIycaXcj/aNSz43ho8vaPlhGXhqHh/sQdH4orBJj3hxXg3JgSZHlbIzA1BTcr6skVWwqp9AbkreTklak7QOK5XmUauisZKm5OnzuB92e/zdxvpwxPBL+UDd8F3WG9NJ+43+nMhbb8MAdGxA2PXjUQPoMTGShjfIOwbv4SlN+/Ay0dU9EqgbidqPI2OYSyRggf5FzSRVXsliUbYG5DXPUEO4Qv6QP3hUVwGBPPVObZr75ne3GspPIRYBpGEfNpRU1QKeogFTegqU6EO1ercfVsBW5dqsWty5Uou1mN+mtCtLQBczeshaudCd6OimTVP7/GhmNvZjD2JoXpo+TEJT+WGIcD0RE4npqIX7NSsC8xHD/mx+OFUG90sbXCa++9y0OTt7+bHWeFyYJYHB5fiusj8lA3qgT7+gvgSdzx4dOnQ0GHaiua0Nx8DU3Kasia//rNIagrTmFp6BpEI+Mnz/yCwcP6s36W3n39EELcZBrUMV9TQFxvmiJEVOCyVFjNTUDSnJ6w6OYNzom4boWFOLz3CHMDdToNRAqap6kvF6XNN4ijCJG2GTXNtSwNRteipF43FhI3nSpY8z5dEby0lAWJuC4m+GLZKgZMNblIGYI/j6rLR2e5d9q0ImkNaivv496NKlw6VY7LpwgsLwpx+XQFrp0vw93j91FfLcev9+7AwcseA+ztcCmjECcigvF9cQSOEAWphyZxxzPTcVyQjoOJCTiYnIBjWak4E+uHnd3zkObmAm9vb/ywYxcPTd447u0F8+Bux+HLnhm4PaIExwZnoGxkf7xVNAABnDFO79nDTtIaeTWaW0RsprbiLzDkDHI5tM36VCEZBRbBVpW8HmKNvtZdrmxEU3Ul2poUoF2Qv9u+C74RAQyAESNSYfzxQHCz02C/Khc2ywXg5sfBdmk23N8vQPBbPeDq7gI3D1cG102fffygGUkDqzGnJZOP+/uqdeRvUIgx643XWOQ9YlAeBFOGgnMxwbz5Mxkw6fveKKpmt4Z8TDofqHPkWSpYnqxYVg25phqqlhpIVZVQ6YRsmJykth2VNyW4ca6GrdsX63HzfC1b9P71q42o/7UWzZcaMP6FF2BjxmFpjgBHUpNwgbjjxxMScJy44b+khOF4eihOZETgWDoBZlI69sVl4ER6Ko76RuBkQW8kkJ/1SvDmgckbxw0bNwpRXjbYM6gYZaN74gJRl3dGDUahdzAExM0su36FaCUVhNpGopKELDqpVT75QQcKSyr5qCtcI9NDU6jWN72gDTDu15YB7cRnU7VjxdvzYWZiCpMge8S/1h1+7+TDeEEuHFeXwGxeMoznJcJqUTp85hUhaHQaOHsO8cSNo8D09ffG9ZtXGDBp5yJDjfnj/r4bonL299Xcvoms/Axwnhbo/sooWHZ1xAfLljwEplBc8yAN6u8J7J0DmDJWMUaBqdDWQKkjFw7i3dABcjToVXtXgXtXhA9hefdyI7u9daEOdwgkL1+pQ9WpakhuirFu42dwsrfC84HB+DGFwDA5BafSMpgLfoS45QcTA3AoKRCHUsJxOC0Bh1NTcTY3FSfjyH1BLt5LT4afuwUGjB7IQ7OzW1RCDPomBuPEqD4oe7oEN8b3x/EBpSz38oWxo8nVXQo1OXmFrfqxAWptE1oUjX+JxPSq+grUEkWmJsivZ8nfQgJJLWrL7rA5RHU1tXhx3AQW2LINc0XYi3lwmZsH2/VFcF6ZB8vZSbCZlwrHRdkIpak/vQLYfuVzRaU4cfI4MrMzUFCUyxLN6f4nTTKnPTIpNB+7JQB94jxatNjyxafg3C3hnxkNE6I2927eykbzUmDSAWr6qL74YdS8swCTbpkwj0arX7T5Mq1+oo2aDYqSApLCksKTPkcXA+a1atw+U476O804f6Mc8XHJSDWywaakQnwfl4fDSVk4kpKOwynxxA0Pw75Ef+xL9seh9BAczYjEkfRwHEmLJl9LxNG+AzDEyxN25H+z6EM+qb1z71/aWmB69wxcHNsfNwbk4vKY/tiQlcxqozd/uZnAhignclWv09QzYOp0YijF1U9+6SNRk3Q1KIkL1yrX95oUNwBaFdoVMty8cBn9+/cFZ0Vgme2PhNkD4b+qN4yWEgW5JhXcskRYL8uA2+wMBL9XBLtB4eC8zfHskKeA89W4duMqa7RBR+m2tGkepCfVE3BKWK/Mx9ZCk3eW/kyLSgaRuB7dB5eCI66fn5sL7h08xqLkFJgGQBqA2WlyMBXN+mNWEHWprX/Qpb4BSrUMNXW1uHam6h/UJYUkhadBYV6/WY0rZ8tw+xrxMIQtmDT5TbhzpngvqhCfRJZgZ3AyfoxNx6G0TBzNTMFBQST2p/hhf6o3Dgm6Ym+8D34SBOHX7CScSRZgR0YBcgk0I4hnwVOjk9pHX21jnVo+GNAdV0b3xrUBOTg9egBeCPOFrZcjLty9QhxZHSqk1ahXkA+sWsiAKWmqeOJPuGpVI4O9vE2hj4LLxQABGwXUtYtnIYiLgZmHBWx7hSFw2QCYLM4FtygFVh/kkVtywfggBS4fFCPsvUIYpzoyN3zi9GloVbcAsnbMXziPXVT2H9zLqnP0zZSrmLr8LcCk2wMU4o0N1cyd37T9U7YfKoiNhvZuOVNSFJgGQHa+HEyxvufoA2DKVHX6hstqFcruV/+LK379bDVbBmDevFqJS+fv4/KlKpSXybFzx364GjtjuF8Klkf3wNaAVHwZlobdsZnYl5qJw5mpZBFFmU6gmeJJ1Cdx37NCcLogEccDAnG1oBcW5hTA09ISI54Zw0OzM9q092cg1MIUOweW4uroHrgxvAgHRg1EVhd7pOYLUCttYOpMqCTKRtnARsVSl1wqrXnyFaaumUGJdYKnsKQhbOKOf/fjN4hPiQXnwiFirAC+cwrBzYkHtz6DKEuy3omB45xsOGzuDatXEmCUZA8zF1NMfvkliORS4twDjZImjBj1DPwCfJl7SFUP3QKgqpCe5GLp44NiNDLfLGlETT25+GilLILef0hfvPXaNECj/pecy86ZVtSod8N1+mbNVHUqVTrculXFwEjdcLqoa371dOVDYDKQnisnsKzA1ct1etf9ciVS4tMgcOqK+XHF+CI6D5tDMvC3oHR8FZ6BvdRFz0jD4XTalIPOA4rDntRwNuLiVFwYTsbGY4cgB89Fx8PH1AI/HDo0midIJ7PCXj3Qs2tXHB3aHzfH9MD1USXYOqQEbg4cpr/1GjRaBcTNxG1sISCQE2ASGLCZ2ponX+XQvUu6r1hXfR9yYT20Cgk+3fwx4jITmBvu8Voaus7LgfOKLJgsI88tTYDJghTYzMqB68wSdH0xDU55XWHuZII5b80gvKU6sp2lCVXW3GYBn2HDhzJ1qdYqHjRPljBgyn5DUEzaVI92onjVrUpU0yR3ouXLmypRLaxilUZ8viWFZR1TlhSYdEKnTCGHUtmGq1cqGAQfBSaFpWH/kkKz5gyB6CXy/JV6VJyrRe3tekye8hKCLMzxbmwaPo8rxOaIPGwKysWWgDzsDMsjLnoWDiSm6CuCEgXYExOJH5ODcTwvBvvCfHAsIRk7ikohMDdDv+HP8Cqzs5l/cBAmxMfj8jPDcHd8Kc6NLMSK7gKW5vLtju1EkbVAWFUOtCihIACi0GySVUPW9uTnAVIFx5SlTg206rBt8ybYu9gS19oYfSYOh9mGPP0+5YoEOC9PgM3MCNi+l8zqwbssHQLfeHc4Oppi3bz5tFERRPViSOUS4tYrcHD358wdX7t+DdqIcqUKkypZmvJDlZAemo+P4itlxCUnKl5BdOsdUQVr8UaT3asVDf9QP/5o3mXnycH8OzDVLQ/q5xkwgUsXyxkgKRypS27Yu3wUoM3nRbhxgQDzEvm/XGlCzbVybNj0AdyNObwSFoaNEVnYHFVElGYpvgjpgc/98vClvwA/RaXjSHIGTqUU4lBMPA7nJ+KHwnCiOENwLy0T38WnY1pUBDgTMx6Ync08zEzwbnYYLo/IQP2oXFx8diD6hoXA1jsQ9ytvsZOWTkU0uIL0Pk2mfhIitVqNXD/OQd2MJm0zagmk6tRNEGrEqKVpRIr7gFIIIv/wwdyFrH6bi7OD+/wScEsyycoHt0gAs+UCmC9JIgozDty6QvhMyUFosBuLVm/8bB0LPND0lmYpcfOb6oiibMPLr06DqQWHazcvMWVJcz1pqeWj0x/5apzfWfpI/q9yJfk/tjSiTn4fTYoalvDfWE3c7fN3HkbE/7dVebUGN87fJyqzGteu1uLm9Wqc3H8ScZ7+yPELxqehufgiMBc7iLrcFlqAT4ja/CA8B1tD8/F1QD5OpKfhZFoiTieF40SsP44m+ONgaiS+T0vA9qQkeNrbYvj4CTw0O4t9tm0P3MjVdkn3BFwbnY2qEXk4MqI38r09kdm9D8v/o2rGEHx4tD/jkwBMCqp6US0rO1S2KlgHJVpho6TJzgRcaCPgIupt9rtvsVQg40hnxL7TB64LC8EtTmHQdFiWC/v5aTBdkAiHVQXwmp4Dp3RvOFib4pNP1xLFWMNGUFAYaltULH2osakBKWnJiImPQF1j1T8MgzPUpPNTH/8oYDbqgSmrgEhZC61OifqK3wbM8ivVDJjXLtcQF74Gt6/X4ebZmyiMTUGkgys2hufh85B8fBWYRxRmPgPmhvBcbA7LZxD9OiwWe2Jj8UtSLFGbUfglMYR1OtovSMCBvAxEebpCkJ3DA7Oz2IzZyxBgaYItw/JwY2w+bo0oxBd98xFowmHqjHdYAIPC8tF+jIYgxJMQqaWubAtxh2VEZdLgiYa4xWpFMzRKiT7Ao5bjxSkTYNTVBsaCrgh9sxR+S0phOpu44asFMF2fBat3Y+A+KxUWM5MRvqAUXTL9YclxWPz+HOZW0/6ftNKGglDXqkZruxbXb16Dk4sjnp80nilJw7hhCkwDLPkhZn9ArTidrkmBqROiXl4JsaqBdSOqKavBvQtljwVm2ZUqXD9XjltX69le5q1rtai/J8SYAU/BlTPGB1EEmJFF2BagV5qfhuczYG4JL2DA/Mg3loA0AT/FJ7Oqn19So3EoIQRH02NwrliAYXFR8HV1wf7DpwQ8TTqBPT32RSQ6WeOHkYW4NjIHl8f2xLLiLDgRYGzatvVh8wdDWgtVloY0lychICFtVzB3XCYXoU2jgEYigrqZKEuNkgVUJj4/jqUCcQJPRC0dDttFNBqeCDPag3J2KLjlsbBelATbmUkIX9ILjt2DmBs+a/LrrFTy0bnjNF9STk5gmm/55Y7tMDU3YQEkGpyh7joFJAWmYSZPZ5hp9B9v8EzzMJWiB8CsgkQjglIpR+WdKgLM8scC8y5RmNfPVeLetSbcomlGF2sgrJLh/dffZRfFFVHZ2BpXogemfw42RxTg4wfApM99FJKLTSEZ2BaZjh/j03A4JZFB89eUcJwWhGNZjwL4mhlh1aoNvMrsDJaWU4QCD3scIq74pWECnH5uAKZkJKKLjSUuXj7HXFFDpQl1zen+paFH45MATFGbjKXi6LQKBsnG8jLWSk0iFWLS1Ims649Lz0iEzekLy/l54IjbzRFlyS2Og9G8KHDzo9isHZ9VpfB+hnzNlsPwcaPZkDeIW1lUlrrk+iYYRG0TdUOj4S++NAmW1ha4cPkMU5iGeUAGhcnUaJuKh97vDdrJxFCqiIejE6FBUUtuiYsul6PsegXKLlQ+Fph3rtYyYJZfb8b9y2KW6F5zX4QP138Ma2trzAxNwd8SuzN1uZ0A8/OwAnwSkqMHZlAePo3siY1hhQSaWdgaloIf4lJxPC2Fuee/xgXgmx5FSLUyxYTx/LTJTmG+oRF4KsIbF8d1w7Xhmdg3fiC6BXgjOToCQmEFAySFI438UlDSYI+h2uRJcMlpgEdL02/EDWhVSBksb9y+gkkzprJO504j4xE8szu8l3cHNzcexmsz2OJmRsFqWTaclmTCbmEe7MfGM1j2H9gP5URFEvxCWi1kLrkBmDS4RKPhNOcyPSMNSURtUFVJlSQdpkYDPayMTyZkj3mF+QcsaTNrBkxB2UAzD3QySKVy3L58/zcBk1b40Ch5+ZVmVFxuxvVTVbhzoxY7vvkeTl08MNU3Ep8kleDz4DwGzG0Ejp8EZbE9TPrcxpBuBJjF+JjubwZl4PPwVOxNpE2HE1ggaG96IgZ5OiI3M4sHZmcwJw8PTE4Px90J3XHzmTzsHDUAgZYWGDSwD3QaIQOkYRzCoy3FnpTyPBXBpYKAqaLsFoNlo7AGvUcMAOdmCrvsMLiv6gHuvViYz4uD6fxIAs0IWK7IhOkSojZnZsJtPnGpJqTD2MUIfQqKcO/mXdpkHTUUwGp9Ajp1y/V7tk0MmCdOHoODkz1en/4a27ukIKURcoM7TlOZmPuuauaB93u3XJolUKllLKmfAlNB1LxEIiMQvIv7F2seC8yb18hiCeyNuH9ejDvn6tg+5p5Dx+Ec4ItR7n5Yn9xNH/jxz8VXoYXY4C/A30L1waDPiPL8jDy3Kbwbg+bGYAG+ikjB/sREFj0/EReO1yKDEejVhQdmR7ddu3+8amxpiWnpYbg1Oh/Xh5Mr7OhBcDMxwutvvMzGUVCFSfcwDQ0fHp0x8yREyevkDRDRZhoEXHTPcsTYp9meZddeqSiYOQHcmnRwqxJhvy4ZNgvDYTUnktymw4i45+Yr+6Hr3J7s+/uExqLp9E3QbhxNdTQNScGmRdJqHW2rPoWKKkaaoL7l889Y/uW3u7952JmdAtLgjtNoOsv/VEt46P0RwFQpGDAbaQ057ZAvluP6+Xu/EZiNRI024uapepSdEZKfEeHOzQYcOnkOjkF+GOLoiTVJRQyONMjDgOmbzoD5RWgBtgfnYit57m8RPbEpood+TzMwEbsi43EsJRnXkyKxODMRjpbm2LXn6AaeKh3YPtj0BYzIib+hIAd1Q4pxdUwvvNM3D05WFvh211fQtv/5LjdEzVBJRahsqiInjBAquRiKJhoplUHSSmAuVrFguKyyBiOH9mUDxrxGRCJgdSmrCTdfWgqLBcWwpfmWS1LJc9GsAbDz8nx4vpsFV3c3+Ph1xe7vv2Fut0RWQ4BH+07WEADWoYm8trZdx+YXVTfUEJ62ofeAPnD1csPt+3eg0RD3XUEUt5SoUFmjfq7Mgy0Luu9br7hLVHA96+MoltyBUnIPOnEZWpvukWO7jwqpFPUqNaQtrVDodCwpWyImylQsIt8rYg05WINjAmDxA/efvge0agmKju/yNysk5NgfXHjk5H+hVaOuWoiLp+6g7Lr48UGfCxUou0hU5VlaESQmyrQONy9V4faNSmSm50Lg6o0dkb3wgy9Rj1FZ+DgsTV8qGV2AzYF52BKa9W/X6YQIfBsfx3rJzvpoLa8yO7K9P385HG2tsK1vDzQMK8GZEd0wISsWHs4OOHHqKIHDn59HqKab/gQ5NS1iNu6Bpg/J6GhVoippVQyF5b2rNzB0GHHDLTn4D4pF8hJy/9VImK+giemFMFqQBbMF6cQNT2PuuPfKYgS9mgGPnn5wd/fFBx99SnQjEZVtbZBrlcTJb9F3NmqT6kshVTq2aCBIJpIiNyMH2elZ7LGaYFb9YKirmjyhaW+Ftq2VlU/S1nE0gk/TnuicbBoEamvXoEWnZNFfHXE1FSqpflIlnUOuIuBVNUKqbYKiVQRVezP7edrsuFpcgzt191jXJQ3dhmiRs/egMwGTNlrWaFSorWpkwLx3TfRYYN67WPkvwLx1uRr3btegMK8EcQ6u+Dy0BLu8cxgwN4anM2B+FpWPTwNyHgvMU4lR+CElFb7Oxpg2byYPzI5sYydMgZejFb57qh/qn+qOEyO6o1ekLyIiIlBbX0VO+T8fmBQWVQQgl8X3UdcmYeARNdagpqkazQRRypp65BdkgetiBt/RGQif3xdOc3Jh9H4CbJZnwWhFDlOa3LwEGC9IgNOSLAS9m4+u3QJhZMqhNLsXfv56P/Z/fwgfrvkIGz7ciAVLlmL6u2/jlbffxKQpUzHhhUkY99zzeOGlKRg5dhxMLa3gGxiE6W+/g5dffw1vv/sOFixYgNXLV+CTNeux/ZPPsGf71zi2ew/O3r6Dq5VVuFlbh3KiHOlAriZdC0REUSoJUKERAVox2nRCNtCLNsdtUlZCqK6CUFPNjp8uOh9IQxatZqIlk1VqIcTo+FF4iVL6EJgKZTNzz6vK63Dp9N3/EzBvnqnB3csiBszbV2pQfq8e/fsMRrC1HTYGFeDbLtnYFJmFz8IF2EKA+WlkHj4JyH4sMI8mxGIvuXjGeNth6IRRPDA7svXqOwR+dkb4eXgf1AwvwbHxfZDu74qiHr2IViJo0tY8EcCs1xF1CTnBg5q545Dqk9Jv1dxBaRGBpZsxHAdEI3LdM7BYWgRuAVGSSzNgNT8FFqsEMFtMZ4bHEHAmwHJxJlxfF8A+25uVSdpamsHD3RnGJhzMbE1h4WLFZoebeFrpo+xu5rB3NoEVuW9szsHOyRjW9hzcvKxhaUuec+FgTl7f0oUsB3LfgvweI47l+FlzdB65NWxcneDl54Pk1BQMGjQIL0x4Du9Ofwvrl63Ej99uwdkTP6Oh8iZaaQknUY5okT1YRFurpSyQJZUIWR9PGlySkq8JWySo1jR1KmDS9CK5XEpgp+9xefdq0+MT1y/RfM1apjDvXGpiASAKzOqKJowZ+Sx87OzwUWghvu2ag88is7E5NB1bgx8AM/DxCnNvTDwOCIqQH+qN3G65PDA7suUVdkeyhwUrhawYVow9Y3oj2N0Ooya/xPbq6H7bn94xnbqtdKqjTs5gqbx7n/jBOvLhv4C8klyWZxk6PBkhc3qBey8V3Jp8mH9czFKIHBdnwHJRMiwXJMF0Ybx+gNmaHFjMy4XD8+nw7J8Aj6fD4TEiAn7PJyHk5Rx0eSEFQa/nIXHhIPi9ng+32VlwfDcN3gsL4D4nGx5zc+BJfp7e0q/5vE3WmxnweUMAfwLioFfJ7dQU+DwfB4+xEQjrE4eAbmFwT/aEc4QDXAKsYU3BasbB3oZjULbt6oCIlCj07tsTr06dgs/WbcD5A8chvFEJsbCWBaCIHw80E4VVW8saiWh1CjSrxB0/6KOSPQQmvXhIJGLiTlfg6rn7uPNId/V/B8y752seApMmr1Ng1lSKMOXFV9CVXMw2RBOX3D8fmykwg9OwNSCdueQbQ/MfC8ydYfHYl1aMgbGhiI0K5oHZkS05RYCBMV1wYcJA3HuqCJ8NyoOdtRHeWbGGDYKVN93+85trSMWsm09V+R29siSwPLrja3QryWfR7eip2Qh4M5e54cZLiQu+Pg/cqgwGTHs6DndOCsznJsNifjKMlhKluZp8bWk2rOd2Q9D8gQyiJusyYbqeuO7L02G0Mgsmq2iCO4Hr/DRwS8jPLCbAXZPFRutyy8jzy8nzC+Jhvo78zAay1meCWysA9wH5no35+kX7aq5Mhuuq7iy1yXVJETwWFiJgUQl8Z+bB8400+L2ZiYBx2XDpFwsuxQOcjwU4omY5Z1s4eHnC2z8IY14aj8XL5uP62dMgtGCzzVvFIjRUl7MIfYePlKvlZEkfzCCXQSwm0Lt+D9cvVLDo929xye+cq8btc3XMJac/Q/cwqcJ88/V34ObphHXx3bEroABbI3NYQ+GtfmnYFJWHjeEFjwXm1pBk7IkvwuikWAR3ceKB2ZEtMCAU49P8cW3SYNwdXoSl3RJZ951New5A3dYCrfjun++SSYVMXUo1ejf87NHDEGQQiHlZIXZCbwKhfNjOyYDpbPLcnAQYLUyG+ZI0mMxPgPm8BAK7XJgtyYPt3HQCSQLOpekwXpQOs5kCuM0shMsnJbAikDSamwirBZnosqYUXkt6wGlWAfyW9kHXlaUIXN8fbouK2OqyvAf81vSBx5JucJ6fD7/FveGzuBf5mVK4Ly2Fy7JSOK/sBXvyczYre5LXz4L56iIYryQQXZUPiw09YP5RD6aEudV5cJwjgOucLHjNyYP/rGIC/25wfz4D5v0jweV3JcdpCo64+4FxIZj+2lTcv3YFaNWguq4cTRpxpwEm65KllaOpqRE3rt7BDQJCphZ/Q5T89tkqBkwa9KHApD9bVS7E++/MgZWLNZbHFLHORBSYXwSm4YsHwPw47PEK8zPiwn8fXYQJSfHwd7BA1YkTVjxZOqi5uLhhXHIXXHu+P+4+XYxZudEwtjXFz9dvQ0tc8jZZ+ROQmK5BhbwOtMf5sQvHEZsSQ9xwY0SO7YGgNwYzRchGSizNgNPybDgsEsB6QTJsCTQd1hDlt64UVmv7wGVBPjwJnHxW5sFrGVGkbyfD+eVEuI6PgOuoMJaK1HVoFCyz3GCZ7ALPLH/YxbjBK9wFXaPcYelhjKBEH/jHdYGttzmc/G3gFuwAX38X+Aa7wyfcEx6RHnCMdodDYhc4ZwfCs4i4+kMjETomCT5j4uEyJgZeL2fA+z0C6vfy4TgzH1YfJxKIJhK1SmC+JhWWq7JgTRSuzfJC2C4rQup7YxA3sR+soroQRW2CGe+/CVWbkvXOLFc1dDpgCoUNuHb5FksN+r8A8875egZM6sZTdVpR1oBZ780DZ2eC+eE52OGXi22RufgyMB3b/NOxkdzfEJL7WGD+LTwbu4gSfSGR/I+tOFw4tH8FT5YOaMeOnQq1c3bHvMJEVI3pgfNjizEwNRiRoUG4X3OLnJDNUMmk/6Umv/rcRUNFkaGCiE0GbJIQ1xP4Yf/38IjzAhfJoet0AWwJII0+ykTg0lz4z8uC/9sCBL+WgciXshH9bBbCh6YgsHccfGKD0TU6EF7BXeHg7gBzC2OYcBws6IRIYyMYG5FbGwt4ehDw+XjB388boSEBSEyIQVZmGrKyU5CalojBg4ciNiaJuFxmKC3tjcKiXJR0z0O34nzk5mQgQ5DCVmZGKlKS4xEeFoSu3h7s97m5OsLC3BhGNAhkzMHK0hR2tpawt7OCXVg4nOKj4J4bhy59k+A9kpx4L6bAb3oqAt9LJ2o1Az7rusF3dj5MCtzQJcYL5XduoE3TCpWurcMDU6EiwFTQqqka6LRK1JXLcOUknTnegLtXqx5fGnmpGncu1+DWxSq27l6pZc/V3G3Goplr4GhphvcjsvBNYAG2ReRgQyQBZlg2vgrMwaawx7vkHxMXnpZTzknIh6utFT778RveLe+ItvuHn3eaWtpgZc90VI7ujlNjilAc6QVBeioaJbV0uCsUkv9eWtGjs2oMTT3YuFoCy7Xr1yEuPhLWRFkmlSagx9sD4flsHLinvcHFmoOLIiuIuK6enL4zkSUHIwIoMwtzdIn0R1R6HAp6F+PpsU9j2suTMW/We/hw5XJs/WgD9v78A44cPYAzZ3/F5Svnce36Jdy9dxO1dZUQNzdCJheyER1SqRT9+g4i7082qqur2XMarRQtrWpWutcsEUIkbiCAr0N1TTlu3rqK8xdO49z5Uzh67CC++/4bbNn6KdasXYFZs9/FlKmTMHbcSPQu7IXk2ES4uDixDvccDQTR4wjiYBxOuyyZwGVoMBJezEOXbD94+znh0q/HoVVrIG3RdQpgSln3+hpoNYonDpgbg9JZRdCs2Bw4mpviwx2f88DsiPbpZ5vBGZli48A8lI0sxtHRhYj1tMaAAYNYaZ8GMsik/8Vo6CNDvh6tV5+/Zil8ArsyVehiZYEuTrYwt9RD0THMBX7BPkjPSMHw4cPw5htvYe2yddj9+fc4e/ACyi9UokxYgXpFI5saSXM4DUPQ0EZWu44AT59MDhbm0qK1Tf0Pz2l0zeyWdsjx8w1Cr9J+0Ol0LEqt1ooffj/tAk7v48Fr0Pv0e+gt/Rpdht9JF/0ZGvWFohUttULUXb2Jy7/8gp//H3vvAR/FdbX/iyJACIkmihDq2qrtvasDBtc4jlucxIl7je24JLHjOLFT7NhxEseOjU01YMAU2xSBkFCXkAQChCimCfXeO+X5n3MX8WIn/xfyI8lriIbPYVa7s7OzM3u/85x7zz1n43r87U9v4PFH7sXNNyQjNjYc08MmIiDYX1ST9KfzULh9O+2vF1Xd/x11yRmY3X216OvtRM2JdhzYVfeNAeZyiVNkav+lyoWAUSPw5pLhNG/X5PL222/ThR2JVd9OxNG7E5H6/QTMIHXz2GM/AU9h6SGXvKv7PwfLocxHPG+dTcRgdtRjpjRYxEea9Ro88t3v4rkHHsbvfvoLrFm8AnsKS1BRcwrN7W0YOOudWTNA/3UTC3liziD58jz/uKWv2ZsWbOB8MgxSjV1kfd0tX1G2Q/PjeUojZ5pn6x9sIfVYj5KSIgQETMRrr/1WnJ+W1lpSPw0XuhCG0t0NdS/wd+AuhUEC9dBc/KHthrbh9elzXqByFvHTpwdw7tw5nD1Lxz5ILncPfYmaDhws2IO1qz7BS88/j2cffBBVhw6Jm1rt6f8eYPb016Gnux2VR1tQXlSPI6X13whgrpS6Rab2V9WkMH1H4Tfv/WkYmNfi8uqvX4G/vz/Wfiseh+9KwJq73fAf64NXXvsTzp4+I0oCXE4Rr383MPN2Z6JwTy4qTh1Fc30dutu6wJ2a3K/ZT/76aW++IlKQnQKMrCbryOr7W9B8plNk6ObphhfsfL1wrnzZS9u0dtejpatOrPn1zn5yAwcJeKfbxLp/sBmDZzqEO02nDatXrwZ/ak8fN+Y6sT0b12rnEsS8r+bO2gv75P10DbR89Rh6veWK+fWq7mo09tN76VjbT3ehrZ9uVd196CDi95AgPddManUAIoMSW2tLk1DGfL7q+uv/K4DZ3llHNx/6rh0tqDjShEMljd8YYK6SuLE6JgG/1yVi5ng/vPL2G8PAvBaXn77wHGZMD8Km2xJw9J5kvHezCX4TfPHuwvU4238OreQCdfwHG+T/n0vOyS3OnPGWgOglJdZGbm5DfxdOUOM50dWKPgJTD9dHb61ER1slujur0Ntdg76eWmE9/ZzDs43g2i6yDvUNegE2BLi2vkZhDNahx+0EMDbxd0cVOPX6r379EoKCpgilyYqQgdvYfOIfvo/ngnedbiVvuw2NnaRUuwigPfViG35tyHjbzs56UYWTFS93gbS3NXkTb3R0or+7h77/IIF/ABXnulFJx99BUOWyDaxw+wmh/y3A7BtsEOfm+MF6HN7d9M0CZlQ83jKmICwwEC/+7tVhYF6LyxOPPIjZIcHIvHsuTt47D68mycQUvjUb80U3W1tvLVp7qv7PB33OdLajq5WA1MbKrR5NBLqGAU4c3IiG0y1iJgwn4+jvasG5vjZiWxvOMmjJne5tqEBTSwWaW08R+KpFudaOvgZhbX31BLs6UVSL1//IeBvOXHQOXfjuPbcjNlaBmpoqEUDN7ji/1jHQeMG4jELXaW/iDF6ztfc3XDDe35Dx3/yewY5GOuQ6dPHc+KZKtLWcQns7HStBtrO7TnzvWvqsCrSgkqyVVG87Jytubxbg/m8BZj95PK0tDThWXieAeXhPHY6WVf6fA3M1AzPCgzcNyWKa5dNcbG94ufaW++/9HkJmzUThvTfi1P0L8Lx1NiYSQLdklLPHKdRlY1fF/3lYUU8dKUVyQ88SpDi8pK7lJDoHGrjkGHpJddT39qJlYMA7YtzfK2qGdxBMeHbQQHc7+giwPT0NAj4MzLaeugvQaqHv2NRV/RVochlXNn6Ot+ns8cKLE3yYTAYCWIsYvOH9seoR++mpvbCPITjy37zvITCyXQzpoe3ZtWcTEKf9tZ6l836uBrVnT6H67EmcIXg2d51CLRrouQZRqmGgs1lMj2xrrvuvASbfnFqavSUnjuxp/kYB85NwN/6gTUSovz8eff6ZYWBei8utN86DSzIDR24y4sgLD+IHZg3kMSE4VFFKjbIG3dTQu/q/+fkWhxTpxZUsL7bOXoJjFwGQXGu29u5aAU5+ntcNA62izEV9T5NIndZM8OY52px7kktNnD0HHD52HEF0c7n5rm+RG9xPerMTTWcacKrz5IV9sfG++bN43UUA7B1s/rvj+frxDicJvkRY0UCVyFHKad3qa1pRvufEBfgd2Xvq0sDcfQrHSqtwfF+NACfPI+epkVUn2/GLn72B0RNH4HV1nHCtP9S5sUhiwfJwK5bLk7EyZs4lgbk4NhGrIuLxZ1kCdFNn4IHnnxoG5rW4zGXFFDoRx79jR/Fjd2FO2HQBzFONR9B7rkE0+taulqsKmP9IuTK0egaahPHjob8ZaMJFJ7U2ZJyglvNUch9hX2+HMB5dOlR+WKjxxx97CKfPdIuyr739TWJAiEHJ+xqyIRAP2VBXw+Ue87B9HZg1Aph9fT2oq27BwdKTpBBrLxuYR/dU4vje6gvAZFiKueQVHXjpp69j7MSReIOAyUpxEQFzccw/B8xFygSsJnX6jiIJmsnT8MNnHh8G5rW4JLkssIVNxsnvepDxo1tgCvSFQSsXbmM/WoRS4uS2Vwswv+7eD9ng2U4x4NM70HpRfZ4G8ZgHhM50tOF0eysGyNXubW0S/aXdHd7yrgxMDhBP3boZgeP98O6f3hJ1g9Dfhf6WOgy2NdBn8Od6R9+5nAVXmbx4/xcfy8XwHAbmZbrk/dUCmD09PSLDkEi6QcA8XFotXOtLT42sEsA8trf6AjBZZdZWduGnz/4GEyaOxh9V8VgTQ7DUeoH5cYQNy5QpWCG5NDC5JO866Rz8TT0XyoDJ+O7jDw4D85pUmB475qojUPGDJOy4/1vQETDnzYtHD7mbPWeaRezb2bOnr2qFyVbfVIHmtuoLEGNjuHElSH7+NAOzqx2DPR1CWbLK5EzmjR0NqO9sENnXl36yVOTOXLJ0oTfofbAX/R3krhNUG5pPoam1SoByCJK8Zng2tlT+Px3zsF0ETI7W4Jk+XV2oPNmIQwTKo/sacGhPFQGw7jKyFVXjBKvLUm//pShPQcCsq+rG00+8jMmTx+IvqgSsi3ZjidqFJRIrlp0H5jJJyiWBuVDmwQb5PHygvQ5y/4m44+EfDQPzWlwS7SbcbJLjy3uTkXr/rdAGjsVd93wHvegiV7IWnZ2N3njMqyFn4tf6L4cGjtg4pnNoQOnrI/D8WmMbwbO7WZRv7REpijmqsw/t9FfruS6eIIqtBdsx77YF2FmchQYOPB/sovcwWP++C4BtKGid7eJj+Xo/5jAQL8N660StJC6te+JLrgDJadqacLCEVGNZ/WXkw6wR9iW75gfqvFmOSGWywnzovmcRPGU83otNxIYIF5aqXARJcscj7Vgam4Kl0mFgDi/nF7NSihu0MTjyo7lY//0bET3GB/fRxe6ifzw4wjGBHCR+tQ/6cNEwb/XGVrHmyo5cW4dnyvDjPgwK44JqTbS/JmqcTe0NaGitI/VIje3UQTR11IjgeY57bCS49uOsqN/Ti3Ni//2nu8U+ec2f0X5+wIjXw4M+VwrMeqH6W1s6cexwnQDm8bJmAmYNrZv+KWCeKK8XwGSVyYM+d9/+EEKnTMDC2CRsDCdgxjoFMD+OcmAJAXPxZQDzH7jkZ4fpcg0u2sgw3KiT4MuHF2Dl3fMQ4uODp59/inRVn3An+8k97Wj+5peJvRhCX5+WyMZ1xM+QGz14hrTj6V50khtdWX0SxbsLsX3HVvz69V/hmReewve/dydumpuMOTYr4lVq2COiYQyejYixI+GICkOiNhbXOW2It1lw7w++h5+88FO88tvfYlvaFrGv6tpT6OnrxOmz/eJz+gd7hA0dx5DS5WO8GO7DULzEDZGjELibpLlT1BPnlG4nDrShvLiW1i2X7ZIzMCsOeXNhcj9oxbEW3Hz9PYiaGojFymR8EebCcqVTZFxnYC5VzcFH0uT/l0Gf9mG6XIOLPjoCt1tVOPb4LVh25zwEEzBffu0VUWiL+/jODfahr/2bP5NkyNUdcrP7BjvE/O0zpP9YBx47cQQZmWn48zt/xIMP34fkOQmQKWIQMHG8qC0+nRoMp+Wa4TcO0oBJsAeHYV4oqe8QKRZMi8J35SosmBWKuaGRMEyZhujxgdTIZmKKXyCmBgaJfQRO8kesWo4FN8zDk089hvcXvoucvEycPHVMHAMfCx8TH9tQ98BQ18EwFC8HmK1oburA4QM1VwTMU4ebBDDL91Tg+JFGXJfyHUimThTuNwNzmcLhLVER7cRi9eUB8x+EFVUP0+UaXBQzpuL7dhXq712AD+++Dn4jfbBk8Qqc7R4QdbY5mLqv7V8/X/zv+vK62tHGUwI7vf1/PGWwsb8OpwaqcHygUgSat59uQePpJlT31KC5rwHnuEAYqTm0NGGw/zROnz4r4iW5vG1FQy02bN+Ep37xPJK+tQBKjR6BEwJEQbKosT6YM2sy7oqYgsdkM/CyKRJLdRFYbZRgk02FbJcRe9w2lDvtOGyz4UuLVRg/5uf4Nd6Gt+X38HufNYbiAcV03BoxEc5p48WNhwugBfhPgCxWg5RbbsKjzz+L5es+xYEjx9DW1YuBQeDMaa/V9Pei8Wwfmk53oLazGvUdJ9DZV0HufQUGBo5jsLMNAx1t6G9rx0B7F053EoA7B3Gu+yzP2EQfnZuvxH2ef8zPC3f2KgdmQ3c1+s/2oqm2ESfKvCPeYgCnvAZl+05cEphHyqtx/EADDhdV49SeZlTsbRKDP8eP1iJl/o3kRo/FBzoCY3ScUIsbJclYGxGHD6UeLFdcRvINuVv0fy42zseskSPx2MvPfzlMl2twkU2bjO/ZYtHww+vx3h1z4DfaB5+sWiemRfb0eEd6ezta/uV9jF8fIBEhN/R5fVy/u78DA71tYl61iHUcIPe6rUrM1uEZLtXddajqIeBSA+JkbGfOnMGp/nak7S3Ar/74G8xbkIyokKkI8vVBCH0fyfhReFQiw1MyOV7Ta7EsKQ5bFqRgR4obO+MsyPGYscWlxTa3HhkeI3LcJhTajSg0alGoUSE/ViGMH4vn7N5teFt+D783I96E1DgTNqc48Nn8JCxOdOMVnRpPSqR4JEaK8DE+mEU2k2AdGhQAi1mHBx5/AItWL0fO/t0QtXY56ecZeOucD/Sii85DG313TibCc9F5vnrrQBMaCYC1dA74PFQSGNmGYkr7z7TSDaPtQmA+A5Nfu9qB2Ug3SQZmY03TRcCsEVMky/advCQwD5VVegeHSmoFME/saRDALC87AbPDA3PQRCzSzxHA5P7IT6PJxQ5zY6HEfdnAXB/lxkfG6wQwH//VT/cO0+UaXGKmBOIeqxJN992It2+Jw3iCzGefbxUNlwHGYTj9XW3/sj7Gv4PkeevhgG8uQdFRg+6OehGuwzGR57jgF6kx9HTgdG/7hQGabqLKidYmfLJ1E1549VXEqCIREjIZs/xGINbPB9+aGYRf6FT4KDEO6+fPw3azBjkuC4o9VhRZdSjSKrGP7IhBhaMGNTJsWuy065Bl0yGbXs+xaJFj0iCLXs/SxXqNHvNz/Bpvw9vye/i9R+i5MoMSu3UKFJvU2O0woshNMHaYkG7RYc118ViYYMPLehnuCZsGR6AvoulczySIThnng4QF8/HAEz/GslVrcPgoqcp+LzjBKTv7gOZ+UuMEw9YzTajrr0EtKe8G1KIe1ag6c1KER3GfM8eD8g2GY0LFze583OnVD8w6kXSlvqoBx/dXiRrjQ8A8sL/iksA8uN8bt3lsTz0qdpO6LKkTgz8lReWIkCiQFBKM5fp55IbH4X2ZB59ExmEVuecfxBAQL6MI2nK5SwBzoX4ugkePwo9fezFnmC7X4BI1aYJQmE0P3ozfzrdiLCmyranporG2d3jTlPHAz78SmBcn2RhSn5xZaGCwkdRRq0in1tnXLjKY93d3kRvaKcQXp9ytb25BauoWPPPjR2HVKBBM6nEqub63T5mGR8Kj8YbBhFVx8UiLT0Suw4FCgx6F6lhkm6NR6FQi3ypDhioc6Ypw5GlkKKB9ZCtikEnw3KlTIlMfi0yjCpkE2EyrFpkO/VeNn+PXeBvaVryH3psZK0EOwTJXr0CWJgY5+hjsssqxy6FEnkWCQmU4igmoxS4TcpPc2EwKdJHNgt/EKvFCVCSmTPDBeFKfE8b7ICJiJubOTcEvX/k1snJ30bk4K4rRneae0HN9dE0axIh9V1+9mEff1VslMjBdHJjPxvDkuNCa+uNXPTCbSFX3DHajpqIOx/ZVEjAbCJg8j7we5furLkthcpD7ib2NOF5Uj6PFtaIvMz+3FEHBobgpNAwr1HOwKioOCxXxApwMTVaYK2WXCcwYD97VJgtg/uSNX20dpss1uERO9McPHGo0PnQzXkzUYNQoAub2nQKYInluV62Y6fLvCPsZikvkfJdtTSfJ/a5H6+lG1A00kHJqIxXpDfXpINd0/c5dePKFV6CWxWIGAVJBdn3AaDwtD8FbcTpk2hKR50rGLk8Kipxu5JtMyCOYFehk2KWXYqshGttMEqSaZLQm0DnMyIlz0tpJrxmRb9AIyyG1yTBMN6mQZiazqLHd6jV+zM/xa7wNbzv0vk0mIzI9HuQlxyHbbUO6laBqU2GnWY5t2iiUW6Kx3xCFEh2BWytDPsGWj7HAYkeBzYX0W1KwlFz6nypDSR2PRyyBcxIDdNpIBEmm4N7HnsDfli3H4YpK9J87hzPnzqK3txtdnaTOO1ovRAfw+WxsqfamxDvdeWGQ6WoHJndLdPV3o/JYrei7ZPBxBcijZY04yIk0LqMPk4PcxfsKaoTCrD7aiuzMYkydORt3hERghTQBKyM9+FCVKMpNrJEk4iOJBysll1E1Uu7Eekkc/qxKQLDvaDz39mvrhulyjSrM+zx61D90E55zKzCa3MRtGdk4e/ocGtpqhCvU03vlCvPi3JZfD+Lmxj7Y0ynCcdrPdnH+IRBSsetQPl557XkkuPUIGDkO03xGwuYfiMclUrxnM2GtXYttThVyE7TY63Ig32xAukaO7Vo5dhCsMgik6WTbPBrk2g2kDHX0mgpbSXFu02qRZjRjp9UpLM/kdcGFG04udcZF0Nx+3oZgya/xNkPb83vTLQ5kOTy0Lzu2a7TYriIXXq8jIBrJ9Ei1RmGbLRrpNhmy7Ark2VXIt2lQQPvLY1deEUHuvAzFbiOyUpykkg34tS4K94VPwndmjEPg6JEI8B2J2TOn4cYbFuCdd/+K0vJytPcPgr33ju4WkSv0DP3FsZ/NbfUXYkA59vRqB2Zrfxs6erpx8giPdFfj5L4mAmaDqP546MClZ/p8ebDmAjAP51XhZGmjyFS0bWu2AOaPQiVCXa6K8GChJgkrFElYq0jBImmcyKR+ybAimQMbpPF4U+nBzDGj8cJfX18+TJdrtA/zoUQzah+4AT9xyuA3fiTS8wpx7gwpTJ462N8o4t/+1cDk9cXhPySYxHhHTVsrln76MW68OQnhE0dCQkoyLmAMfqKMxJs2PTbMS0IOWbbdiHS1hNSdHPs9OmRYowlYMmSS272DXOHN2hh8rorGVp0KO8x6AblscqVzrTphOaQWc81eyyFopRtixTYZQ+44WZZFe2H7IePnhl4f2p7fy/vJs2iE5TIECaKFJgKmkfZBx7CZ3pdq1WM7ufXpTg12Euh3upTIcimQ7VEgxyxDrkWJfDqufNoHQ7bIYkEhQT1Ho8M7Lht+rpLhzumTYB7tI+JlQyeNR2KCGw8/+SgKi/JQ31gj4j/PiqGw0+Ixx5u2tl/9fZhtAx1o6+rG8UNVXmDubbkAzMPljZelMA/urrwAzKqyVuGSf7pmMyZPn4WnJFqsi0oQOS3f1yRiqSweq+XJQmFyJvXLAeZ6eQLeINd8xjhf/OL9N98dpss1uHD82aMpNlTetwBPO6UImDQW2UW7wUsbuUGtHKLS0fQvBeZQPRt2Gc+RImIr3n0MP3/5dUQp1RhFQAgdPwo3RczCr6wmrJw3Dzs9cuQ6FQQhKYrUMdijVaCUoMSu7TZlFHbGRyDdEUZAi0YBucH7LCYcNtpxSO1AudSKTeYYbLfJkUZQ3U5wTSPFl2mPJreZ3mcOIchqhBvNAzgMxaFBH3a7s/UqYfx4aNCHt+Ft+T383p3WUGRYwmhf4aRCI8misMMYjR10vOkEw2KtG8V6Nwr1NuTo9dhJoN9hiiElTNs6I7GD1HK6w4BtpFy3kkreodeg0GZFsd2BPKMJFSYDdmsI6iY9PktOwB/jnbhDFgU1QXOW30gRB2p3WvDzl17A55s2oKqmQgTqMzQ5cP5aAeaxg5U4srvmPDCbLhuY3IdZXnJKAPNIfjVqD3aIQZ9lS9aCy0y/qLJiY3QS1kTG4W/qBHwY4xZuOa/XRF8amB/JvcD8PbnmXmC+9fowXa7BJZCUyoMJJtQ/+G08ZozAxMljULJ/L86e6RPlGxrZXR4cRGtHo3D7hszr5rVe+Lu5rV8UHmtr70FzSxvaezrQ0sejum1oOsvJbhvR2lqNZk5+Qf8GSAWxct267lM8ctfd8Ascj+CxYzEnYCpek+jwhTkeOUYX8nUGFBn0F1TdsP1je0hvQtKUaYik6xk+2h9WpREPPfQ01n6RiYrW0yJ5cr/oF25H3dl6VA9WoWmwBh29lehoP+ENYeqm69XeQteJrmtbJ3o7+nC6+wzO9UFM/WQXv6W9QVz3nv6OC9ffO+X03wxMTqrc2YMj++pRXliJk/urcGz/URwpO4UDey/tkh893CASdhzaVYWGg504WHgSdTWd+PWbb2HEtAn4lVSPd/VxWBzrwZIom0jzxrkxl0gcWKJwXzqsKMaFTyVJeNYSB99xI7BuxapfDtPlGlxm+I7AI8lW1D1wKx41hGPqtPHYf/igyMbDwOQkE319fQKYQ3OwubHw46G1aECD3SLsg9Xo4GCnqH/DGcpb2ytF4oTu1nZy888Kt/vwiS/xu9dfQ6LbjtmBAZhIjfxhqwovkcL6yOPAtjgPCpwOFFuNKLJqscupHobiJazAkYgd7mSs8iTiJaMBicFTMXmsD0YG+mB8VBCeevlpLFy3FHuqD6FFFE8+ix66xlwvaKC1Ex2tNeijm2N/f6uw3t5WEYfLlTU5WoLnyPP17uptE9fce5OsR1NrnQDpfwKYze1dXwHm8bJjlw3MIwd5/nkNjhTXoKa8ncBZgfrqTrz46m/gM3EcfiM14F2dRwBzabRdwHIImMvklwYmzwr6VJaMZ0xujPEfjdQNnz03TJdrdJR8CJiP6MMwIziQgHZMAJOrGrLC5JRaHaIUbduFpBKsNIYGFBimJ6v2o7u/TlhL+0k0Nh1HW0sFBmkfONMu4rK3ZGbhkSceh4Vcy3Df0dCN9sUD8li8c/3NWGONQXoiuZ1JFpSYlchTRyBXFyVc7DRrxDAUL2ElJhnyrQpkuXXYMc+JjQvi8E6CET9RheGekACwJzHDbwzMOjUeffLH+OTzTThUWU+uLsSgUU8P3+javeWEuVxHRwXa+irRPliJ1v6KC5D0JhL5H2OI8kDTvz1XwOlGNLS0i6Qbh4qq/3lgltfiy/11OFJSi4r9zThcUom6qg48/dxP4eM3Gm/JLfhAQ8BUeiG5QuItncv1xpfJXJcOK4p2YJ08BY9prRg7wReZaekPD9PlGlykQZPwQLwRDQ/dJoA5c9ZEHDl5XLjkXP6VM/d0dnoz/XiVROsFpTGU8YfXA4PNOEcOHxcAq+usFjNUOKtPfVM1iorzkXj7PMyOmYaAET5wThqLl00abJiThLz4BBRa7MjShaLEIsFukxSFyjDkxYZjl5XA6dSIvsdhKP7vtt0diTRnFLaZI5Cuj0KeWYUypw0HbHaU6kxY6knCSzFKzPcdh3CC51SfkVDrDXj4pV/go7Q0nGppQAf53n2iYHEv2k630N/N6EIzOlAv4Mg3RrYhWPJjVpiNLbX/EWBW1zcJYB4u5sxDlQKYh/dXXB4w93vTwIkqk6UNOEJqs7aiFff/6CGMGTMa78sdWESwXKRwYYn0fyDJwLwULEVYEalSHlX/oVSDMQG+KMor/O4wXa7RQR+eS97y2J0CmNNmTED50SMY6O/y1tbmGTnd3QKU3Dh4zYDkxsIu2VA/1tm+AdH31dTdIdKdNfT3YP3WLbj5llvhN3oc1OQeXhfsi58QGBclkAqaa0GRR40SXSR2K4OR41Ai2yJDpk6GLI0MuUYdCh02ZNtsSB3uw7ykFRvlKHMYsM9hRL5GgcxYUpwGHXY7nSh1e1BgN4v40NREj+j2eFweCZu/r4hpDSCTGUx48JlnsCU7G/XdnQROvv0NoLmvDbUdDeJ6s1fBa77mQ6ns+Ebq7df89wPzZFWtACbHX/7TwBSFz+jxfk4+XIdjBxpQ+WUD7rjxO5gyzg/LFR4BysVyl+izXErAZGiukLmF2rwcYPKo+p0RMowhQbB79+5vDdPlGlyiJwfguxYFWh+/S/RhTpoyFnsO7BfAZIXJwOzt/Z+GwcqSG0xN/SmRJ5IHA1hximk4Z4GW1k4sWbYUcXY7gnxGQOHrh9tI2XwYMR3bHVoUJduR74hFui4M27TTsN08HVlx4dhm5+DvWGzSK5Bq1CDDZMIOvQlpWgPSNKZhKF7CynRG7NUZUKjRIEerRZ7DinyC4w63FesMauQmqUUs6BfaCLoOamTPjUNqCrmgFh1el0XCOmM2wkb4imvm0ejxxq9ew77S/ejqGxSX9pwIVRoU13qo75JV5tDv4T8BzKMnK72Jg0khHt97SgDz0L6TlwVMLk3BwDxc1ii2P3GkBcf3V2KBMwXRgVOxXpko3GqG5pJYzwWlycDkAZ1LAZPd+FXyJNweJkFA8EQcOHBg3jBdrtE4TFaYzY/eIRSmf8BI7CrdjdODPRdGybmOCisKbhy8ZkhyYxlqRAzOjvoWLP9gIW6Zk4wIv1GIJdXyeHgIlpFCzIhPQpHFgFKrCYVaJfJJ/ZSSEipJNJMrGYv1jmgRnsMzaUSIjkMv5mjvNHGcJEHWYRiG4iWMA+rZdhhjkWZQinWGWS1iRDmQf52FXPV4UqIJJpRwTGmsFJnyaIJrLPKteqw027HQZMXLCiVuCggUbnvIuNG4acE8vP7HN/Dl8YMCkpxwmY1/C0MREt6+7H8/MA8dPeFNHMzTG/9JYIrUblwD6EATDuyvR+XxDhwqOopElQ2GGWHYopqDlZwwWMI5MDkBhxOLZE6slHuwKvrSbvliet8nClKYUXLMks7G8ePHXcN0uUb7MHmmT+PD38HD5C6PG++Dgt3FOHe2H10DLaKeDbvkQ4M9Q53/3J/J8DxecQRLP/4INn0spk0YBVnQGNxjjMZf59mQNdeFclI3lVIJNtr12OayIN1oRI7GgGK9HdlqI7bHagmMdhTyVEMjueUmObLMUmrwkaRCZyPLGI4CS+QwFC9h2Q4VsuyxyLQphe20yoRlO5TIdamwzaChc6kld12NQmUsSmjNN7ACm44AK8cJlQp7VbHIsVvw2bxk/CbRjnnU8IMnj8aYCT6YHBSAb99+M1Z/ugKVNSeEO36WXHaG538irKjjTBPKjxwTwDyxr+kCMA/uPXFZwKwQFSZrBDDLyxpQVdGFsvxDcMXo4Q6T0u9wLj4Jt3uBqY7HB4p/Hpgrlcn4nkyNaJ0UDQ0N2mG6XIOLcgoB06HByWfvwSPaSEwY54uM/WVoJRh2dNWgub8CjWgAmjtwtqETg51nce4cUNfUjb+++zc4SBFO8PXBjWN88KvYSGxMcmGH0yJUTbpZge1OOcFyGHjfdBuascRrnka6y2NFodsi/t4SG4MbVDKE0jUey/lEZdF4/PkX8HlaNqpre3COM6O0d4NTLHE854nOWpzsqUf36S6guxNnqmrRzjVIzzWjZeAU3YiPk5dyAv193lCmvq7OC8mfhzJZXZyJXvzd2oPy/cdF4l/uh/xyb5MA55clVbS+dPKN8r21+LKoBgf3t+BgSR3aD3Ujr3AfgoKm4/vhOhFCxKPibAxA7r8U7rnUC85LAXNLqAuLjClInj4TFjpnjf0dkmG6XIOLIXQWfmBT4diPv4MXHGr4jxqBL7IL0H+G5yr2Av2tOFV3FL1drSJbzvH2ZvxhySJYnFYxYODyHYmnZTFYEefAtutSUDhnDgrMZhRoVSi2kKJxk5ttlwxD6SqBppgnb+E+UOP5+fcapOkU2JyUiOVuJ17SKHBd0ASRIHmyvw8c8SY88vzjKDxShoq2RvTSr6SPw4zod9PWw9muatDQeQqdnd1oa21ER1sl+nsqcWagFv29dfR8vYjd/Xo2q4vzpoqkIs1dXwHmkdLGfwqYh0prRQ7MwwdacKC4Fi3lbfh8cwYmjA/AQ9GWKwbmJgLmRyYC5oxZSKS20IzekGG6XIOLg9zle6wqHPz+XLyWYMJkX198viMPnV39aKuo4gA97vHHKbTgtx+/DRUBcOqEkbBMHEegjMIqhxW5ifHIsDuQbbEjT6VFQYwCxTI59uhVKDTHYqcxZhhI33DLOj/dk/uN2b7+/B5lJF1POYrcRmxPtuE9jwb3x06DaYoPgkb4wMd/FFwLkvHesg9wvPoYQbNXVB5tRivqyEPprO5CX1MPznR1Y4CzD7VWoLb+SzS0nBQ5Vy9OyvKPahy1NHYIYHLhMi5PMQTMo7urLwuYnNqtel8LDh9sxX56T8vBdixcuIIU8wg8I3ddMTA/C3PifUMK4klh3nLzAvrWPB9jeLnmFptcjrtsGjTcfzOWfXseJo8ahXdXracfvHdpamrCig0boZ6vwYxZvlCO9sGTYSHY4HajeG4SctwGfK4OQ6ZGi1yyIo0epVo99ujU2EUuXpZZjjQOFxqG0lUDza+rzRwbXU+3XMTJFmgjRbq8Eo8J+fNcWB+vx7uGKPyQbrwWP29u0uiY6fjhj7+PlWmf4sumU2IiLCc0HaAfVWtXL+o7WtFMCrTnbDsp0Ua0tld9JdXf191zUaKilpThvmMinpKBeZjU4hAwj7PqvNTUyNIaVO9vxoHyRuyjx50ne/D67/8kSpa8rIq/YmCui/Tgz/pk2CYH4Yc/+h43nZHDdLkGFxP90O+0adH/8B34W7IDQWN8sWz7dtKTwNqt63Dr92/D2JBJsPr64PGYUGxMTkBpSpIo15CjiBSzS/LjVCKTD4+2FtlNKHIakUf7TDMrsM0Ri+1x2mEgXQXu+BAcOZv8zvMp7sSAEv291hCKdGcsip0GFGljUUg32hK6QZZYrNhltWEnufBfeMx4m26+t4dNQ6gPZ5Ifg+SUuXj51d+hcP8BVHV0ooN+V5yI7iS521XttWI22emBln9YgvhihVlb1SiA+WWZtwDaod31ApjH9tRcFjB5lPxUaR32ltVi3/5a9NcN4qWfvYIpdJyvqxOvGJhc0uINTTzUfgH48dNP9g+T5RpdjAo5brPp0P34XXjvOjeigoPw6Msv4dHnnoAk2B8zyN3Sh01CjsWFDIMRO1k1GmXIMUlFViAe3c5Ty7GNnhNGz223KQUoUx0qbHWpkeoZBuY3PiyJriuvGZhsF7vn4rGFU9sRTI1aEeeZbzBgl92OHKsF23U6UqBK7KIbZL5ZhxxPAla6E/GkXAPdhED4E5Qigifi7rtvxccbVuFwEyk8wFvXvb8dLbUnLiRAHipDPDTow2v+u/JkrQDm0QPeErs8cHOSFCMD81jpqcsYJa/GsaIK7DlQjdLyGnRV9+GJh59E+Gg/vKNKuWJgfiJJxmsqD2JGj6UbxK9bh8lyrfZhGnS4hRrE0Udvw9/uWoDZ0yZilJ93BsiPQqdhsceKrTfOxwFSEoV6LuMQ4U2L5pIhTR+DdLUKRWYnMm1yZNjlSLcrhWW6tMJdz+a0Zecb47B9c22o35LVJNvFz7Ht0qrpOutRQEqSS3XsOB83u90USzdKuuaeWJHGLkcjR6nRhDJPInIS52BVHLmqDgu+Nd0fGvpNTSfTK2T42Ys/R8GuQvR1tQNnvXPRuW77UIZ4hmVLe50AJkO04ng1yvYeFTV8DvOod3GtAObx0trLAmbV/hp8WXgC+480YHd5JWoON+DOb98FxfiJ+FAz94qBuVKWjFdUcYgYNRZ/fPevbwyT5RpdkhxOXE8qcdlcFeYFj8Uo+kGrZNF42mZBWkI8SlVanFAa8ZlNhsw4JbIdUaQwQ1DsUKDIbaKGY8PnRh7wkSCXttlpkQqQcr7HAqsWxUYd8mIVw1C6ivovLx74GXp+l9nbH73NLMVmmxSpdqm4SRZZlNhn4skHanzu0mGbU4sdFs42T96HRop9GgUO6ZTYmOLE+/EOPKHXwRo0U/QdTiH1+f3v3I51y5cKdTlwpkvUb+c1A7O5rVasGaQnjlYKYB4/WP93wDy6p+IygFmNL3cdw8ETTSg5WInDxcdwXdJcqAOmYJlu/hUDc7k0Gb9UxyFy9Dh8sGxZ3DBZrtFlwYJb4TPeT/TlJE8Kwu+05ErTD7+AgMhuNyuJ7XG2C4MAbEMN6mIF8pljFjY5w6jBRGGHg4Bpk4gAdHbfsw2kPJRqFGoNKDabREXFQocGeaRIc5wEWhdtR9vnXGS51CDz7TJhedRA8+h9uSYj7UsvSj+w8WN+jl/Los/PsAYj0xSMPFM4ikwSMb+6REuuYqwcuRb6LPo7RydHtlohjidPaUBhrAVFKgeyrEpRfyfDLCHox5w/DlLS5jCkG4O9iYJJUQ2VqMg8b9lGb1LhYeheIv2cToFd9HspdOiw1abF27oY3BUWBEnAKPiO8MFMVTQe/tnTyNtbiJ7BLpEtC/2dONNBIG2uFTXFucTEgZJTOLS/Fl+WN4haPgfKanDo4PlYy2J6vcjbn3lUjKR7A9pPlreIDEf1e9tRWdSII4dakFd2ApIwKb4bHIuP5EmXlWDjf7NUAusLZg/GjBmDYapcw8vMSYGQTw/Cz2Nt+LPRjs+cVuS79NhFSjHLECNcrq3WS8/l3uUyEmT1ovRDJrlo3NcpCoVxTJ9Nj720X85vmW3kejox2KyLxGZO3eZRIiNZTaDSCuO+sgyrHuk2r20nlbrNwhUcCdAWlbAMc+wFG3ouh5RNll0tnuNpgekmjchOvtNsICM30kTQJijmOrTIpu+308kZznWiZESqXYcch8FbNtdyHoxWlagLtM2swBaD9PxzGvH6UEZ2LnnBsGRoDkPxfzcuA7KLzlmJXS9+K9s9Fiz12PBblxXPOx2IHzcVEp9RCAmYgOQb5+D9NctQ2dpIivMcBrv7UVXejIr93kqRnHGdgVhxsFXAkKF46lAbjpc1eRNt0DYMz30FJ8Wan+cMR9WltH1RA7482IK0gjJEzojAPTOVWKqcc8XA/DTcgMeUJoz3DxgG5rW4vLl8CSS6KOgDRuA1rl3jmkeqzkVqjZSXPhq5+khk6iTYoVch1WC84JpdbF8ZZVWbsFNjRqbeTMrSQgrTjAw7uezUQNJsXMYhhkwqpuvx1L0sK1dU5CQcCmxXS1GkIfddqyNVSCrUasYuen++zSTqeuc6zdhqlIoBpR02gqRTI/pIM8gN5L/TCIQZJgOB1kRmFDXIU2nfbFvpNTZ2E7mKY45dg1x6D9fQyTHFIN8cgyI6pj1GPUoMBpQYzaSCCe4WLqrmQLae1LXWfAGYQ3XLL9QGGgbmZVmaRS8Kx+XrlSjWK1Ck5zpIdFO0W7HV6URq3M34i9aJu4NDIR3ri0A/X2joer7yxh+wa/8hnCprRGtFH9pO9ePkvkaUF5wSEDy+t5lc8kYRZ8lTHznBxonyRhzdXyee4/Wpw6QwCbKndjfgRFEtjh1pxZpNGZg1cQbunaXCKtV1VwzMVVFm3CtRY2ZwyDAwr7XlLx8uRdD0ydAEjsJbBI/sRIKEToN8rRyZmnAxh3unKVK4qNkEoiyD5R9C8mLXPMPCpWXZTAKUO0WxL7XIZZlKanWDOwobyF3f5CAIO1QCgkUOB0oISjyvvFgRg0JFNHapJCgihcoB71wULJegWBhvQLnW/hU7oLGhTG3FfpVF2HY5ba/1Fg7jwYliUsacVLfESPsj+G8iaG9hd9ClxlaHHJssEWSh2GafjR2ucOTqpOSuS0XfW5ZBhSwC6E6Cd7rBjO0G01cUphgcOW/DwLw8S7XQOSQPIp/Ufwkp9n16CfbQDZnhWajjBCFKpFuMyEhMxJqEFDyn1MARMAnTx4zFpEmT8MPbH8TCt5fgQPEx1J3owqkj7eSWN4uZO4fKmlFWdFLU7BmCpshMRMDk5w4UV4jyFBV76lFRUo/Kk914b8lqBI+fjIfDdfg09sqBuV6fhDtjVJCrtMPAvJaWF//yJqZPm4y504LECGau04hCcr2zTNHk9sYQ5CRIc0vFHPAMUmS59EMvMNv+B4wX9WVebPnk1mZxlhxVNHYowpGpikABKVWG1h5Sc4epMRwg93if0YRSkw17rB4U2xJp3/HIMcRhW0oKPqPjWeu042NSlx/o1XhLHo0/EET/TKrkJaMOP9dr8FOtCs+rlXhBE4uf6dT4Bbndv6R9v08QXWaNw1pXEtbZPPjCaqfv4iT3m8xpQ4nSilK1Dfv1BFmTGaW0L6F0CJK7eJDKLUOGUyamcabZ6Ptb6DEBO8NGMHRov9KHyaP+Q10Ow32Yl5ng2EY3U5sR2XQ+uV96l00iLN8qE/3L+1yk9vWhyFFFosBqQXbyXKxwJ+N5uQbfnh6CQJ+RCPefjmRrAl557lXsSC3AyYpOVNT0o+xoK44fqCM1yaV0Twn7cl+1KHLGdqysFuV7GZi1qNzTgPqqPvzq939CyLhAPBtjFpnSrxSYa21zMT8kGgarcxiY18ry0qsvYcxYH8ybPRmbr5uLfLUOpQQdLlXLo57bXHKRbi3VqcBWm0IAIttqwC6HRUDi4lK0Fw/4iAS2JgV2GaghGBTYTUp0H6nMfXYL9ljIvdbrsE1nxefk2n6s1uIdVSxeUUjwhDwC34uZidsigzAjIgBTQsZhUvAYsQ4IGokxAT7wm+SDoBA/BEz0wcTJPpg81QdTp3nXgfSan78PxozzwfRxYxEWGIjIiQGIGj8OysAAuENmYZ4kGvNjovGiVoZfaRV4SxuLxXoDPido55k92E/QPmJPQbpGSe63RqjTUnIf9xu1OEDblqtkOKiUDg/6XOkovNNBXodZdKFw1c5t1kiRn5O9D+4yKVDNRKlNhtJ47ks2YINSjU9i9Ngo92CLei5+d9N3cIdEhRgCJ4cmGaNUeOKBZ7Buww4cOdmCmmMtqD7ajJMH60hlMjRPEjQrCZbsllehnOzk3jpUldajtrILjz75AkLHBOKXKlKH0fFXDMwPDfGwBk6HM3HeMDCvheXZ559DEP3Qbg3yJxWmRy6ptr1GDXbz3dxmEQMlO+i5dIJEupbUpF4r0oEJV9ym+Qoo+Tnux+MAZ07QIBI1zHEgPcmGz+MtWO2xYZHLjjfNJvyMfviPRcTAETUThtkTIZ3qi5DxBEEC94wJPgid7oOo2SNx4+QJuJns7lnT8aRcihdUKvw8VoXfGS34W2IKPnJZsCTOjuWJLmGL6TP+SqB6QxmD12LCcJ/LgPvdRtxB7nxC5HSYZwTAOHMilFP9EU5A9ZlJRsAdQYANIIuaOAKWaYFICZ6J62eF4LdSPd5WmrHYYMOnZjs1ZBuy6PiLSGFzGrQ0s0pAM9vu/c75/L05yJuOgV34YSheYtDHbkUW3XgzHBoxY2iHQykeM0QzSX1m2s3YSjfWtdJYfBwRizVRFmyQJmJdZDJWzvTg/VgbFtvn4P2EG/AMeQp238kCnPKgcFwffz3WLvsC+el7cOpwA5oIiHUn2sTj4wdqBEDLD3DhtFqcLCbl+WUDbv3OPZg9yg+/19FnhLmuGJh/VDtgCAjCzXd+bxiYV/vyk2eego+fL24Jj0B6YjKOkILaR+5yoYMausuGDSoe7LCgSG1CscKEPSorwdSBEgIpj05vMcV8JS6PQcmQLHCZRQowTgX2ToIevyDX/u7QSXAE+iLGbyQmj/XFqLFj4DN2LP2wp8EaHIIbwyV4SKLBq3IzFmk82GyaQwC6HtkJtG+PCkW0n0MpNpQ79ditisFecsmP6VQoNOgv2C7j+fAkgn2p3Ya9DjsqSAVWmbQ4Qe75HgJ9gc2E3HgXtrqs+JjU41Jymf6odeP5aB2+N1uKeSFRBNRQREyejikTJmFUQCD8AiZgSoAfqVRfmILG4gZSvQ/qQvC8M1pEC3Ad8ny3GcXxduwm20XfnxMcZ+qHA/MvZTt0Wm/kArnkO+1q8bvKNOiwU2XCTpkFf9Fa8ZHaibUSDzbOjse6mYlYGXodPpTdgnc0tyFTwSPROiyOMmCRdR7+knIrnjQnIX6GBJEjAjHaxx+Jjuvwzh8WYlfWXhw7UIUTB2twtKwSR/ZV4GB5lQDm0cITOLzvFBJTrkeIz1i8Sb+/T0NsVwzMt/QuWKeH4qGnXhgG5tW8/PT+B+FLCusn0WOwMo7Ak+BESawee6RGFGtdSLe48YUrHmUE0RJ2L41yMWNjB7nk6Q65tz/PHIM9VoKZQ49sjwPrExPxpicB9xjNMMTEIGjmDIKiH8aNG4dZ48fDNDkAt86egZ8oI/FHahiL4wiu1DCKqFHsMdsIcg6UOq1ifzywk2WUINetQDb3m9ql4nMzXCqkuTXY5lRhsyNWjKqzcR/YkPGI95ClGmOQZoymRhmDTFM0ciwxyLfFiH6yInsMilwalJCyLnXRDYHUzB4eCdeZUBhLYJXp8LZVgV9qovBA1AzMnzkZxikBCJ84EYETAuA7PgBjx41E8CR/WGaH4A6ZEs9pzfiLJR5r3fOwjVRPGTW8ciuZIxH7COK7ONSJjiPbEko3mBAUkHLNI8s2WkXC5O10HrZaHNhkc+AzOh+F5kjkGiNEMbhMQxiy+W86FzkOGalaKf1N38dE38UgE32vnNgkkz6Dp59+7tKI2FHuf93qlmNLXCxS3Wqk273dBYW6Sw9Kpdq5W0YpprVy7G26RUf7N9Lxm8X0x1yHQ3giWfwcex66WBHTmqeXoVAvp5DxEs0AAF/KSURBVJtGpAhDyzTIRf9uBt3YMgxm8koctHYKZe6NYLDgC70da+lmuSI2GYvlc/CR7NKDLqK2zv9id2rkiPUdKbwofYQUv3zh18jOKsOxEz04WXEG1Xs5UUcdyvbVoWBPBZRyCxImRWOx4jrkh8+/5Od/JHV46/zI3SKofVmMQ5S04ED3NfJ4PB5rR+yYAPzxzT+UDVPnKl3m3DEfflzzm37An1GD2DbHiA3xKiwzR2C9U4EMD4d6xGInubU7TARGk1xMd8twUqPwuJDr8pDr7aEG4MRLbj3u00XBEzoeEYHkUvv5YDa51JqpE+CcNQ1/jLXiPS39gEwuAlwcuV8eFHHFQrMZeznA3GYlAFgIHkbv9DsCHmcI54zgDEqO0+PGzcbhJhyMnk+NNd9CjZXWnNxhyDLIHR6yoXhNbowcv7nTZhDlLbgbgeMyvUafY5fRc/Q5dhXynDqhkLl/lgGQw2rVbMAus1EcZwZ9782uBHxij8dCvRt/InfwNqsWc1WR0IcEiu89cawPAuk8TJvlg9AYX8wJn0QgDcZzBLS/0vFsdBAgCTQHjDYcJ1BWqPU4ptHhsFaFfTopigmm+ZYwOp5QOlezSQmbkEqW5jIi3e2NMuBQqG207WZVFFbHx2KdS4ktNm8ZiiyDxhvEzyPL9N05CQoXkeOZOJusEmyxyrGdbkYcE5uru3SXAYdscbIUjj8V546Nbnb8++B9iEkIZPwZObTvXLqhXmwFbjoGpzcMLMtqpZsu3RQIlqkGN7bqSDXKVdgg12C93IhP5FasJPAsVyQSMJOxSDHnioH5jiUZr1uS8ITSCndAMIFzNKJmRuPBR5/Duq05qDjWhIaKLtSf7ETG1gJIgiW4IVqLvziux/shxisHJokP2dgJWLjw/Z8Nk+cqW/Zl5yeZXGqMm+GDe/TTsYEgmKWOxi63Djnk8m52SvGFPYpUJLnlVinKSKVsijdiR5wdOW4CpD0Ry01OEdqREjELMTMCMXKiD6ZM9YVuZiBuo+d+LpPhI50ZW21x5KamIJ9cLnaV91AD3kdQ3EeKda9RhRKtFEWqaFKLelKLajGYtNVMSsgURaowghpVBNJMEUgl2KUSwNKo8e8gQO4wcbZvGzVWu7A8I8HMYBCWo9cLy9YRGLVaYcU6G4rY9BZSPBZSdN6ZQQzfHDODlBSoKRLbyHYQPNPsCnxBiu1zulEwhHjAqohnBplV2Esg5kEr7rvkuNA8Lak0avg5ljhsJzW+xuPBX0ghP08g+S5B8vqwiZg4jQA6hUBK52kaWST9bY4OwHxTOO70xOIPCRr8NVGHlSkGpJIVJGlQ5pLhqCUCJwyzRKG3dD3Bho47h8CdRwqvgJReMYFrt1ODz+jabaEbWZrDG7bFkOTYxlSTFpsIeHvMWpEIJctIN0Ixuq8S8/gZenwzuuSgjMkLR68pxTTIbJNX2WabSbEbg+m4QgmOkV7VK/ogY+k8kpq1EdhNZrqeFmyic/85eRLrVTasVtiwUmbDCqkdK8NMZBZ8HGHF8kg7lku4MmM8lsiTSOUlXTEw14clYL1iHt2wb8Rbhrm4N1ILc8A0zPD1ReCY0bjz8UexYt0GdLf0oDS7BLrgSNwUKsVf7ClYqfZcMTAfMroRPWb8sDt+tS1lqTlvu+lHHxzggxc9MuTNtaFMT6rDyXVeYgksKhxS63CMXMpygxWFNhuy3Has8iTidwS9O2YHQUMKKpgU1OzAEVDPmgpHdCh+qzTgA50Dm62J5EonY781DrupgReoqYGpJMhxyYVS5CmRHKCeTmDMdJBiJHc8L4HBKsP28+42NzaeFplPlmeRCleTG/fQYEo+qT3OhsNTKXdx/R+tURz7/2Z5Wr2IwxQgNelEXyv3OXoHGTQocpILaeHpmjHII6WW7VaJ49lGjT8jQYudCQRqj86bZYmOaRu5uBnWGFJaUuESHyRAHeCbAbmUe60OlDriRVhUnpnUtM6NjHnzsCEpnhSLCU9qo7EgZipUoeMwLdgHfnTjGssgDfKBevYE3CAJxuMaCX5PUPzIbsUnLgdOGhNwjPZ1xOIkVU6gNxH4CFQ7HFHkCUQTlNQEJ5Xo+8uzaMQ0w2KDim4ScuzSDgXe6wiaWvE6h3mxik8zyrBFE3XpmVr0mQX03myDUkxY2KmPFqDMoxtNgUsiZn4VWhR0DlWiuFoqneMNegPW0DVapSGFFqMnCLIZsUxixuIYGxbF2MmcwlZHz8OqmDnCVsQkYZk0UQBzsdwj7EqBuUU6H5+GJ2JFmNfVX26bjz9Zk/CUNBa3z+AuIx+Ehc/CAz/4AZ68/wHIJ07BfTINlsS6sTFIdcXAvFtjRrif/zAwr6blsw2fdySoFAgjN/y3pEh2J5NbPGsW6i0GFClVou9yn8WDYs9ccu8S8SIptOsJhtqQSZgxxgchASMhn+mPuOgZ+BFBkEe5N9uTUOKcjwPUGPeYdaIfcTOB5zNShVuM4aJRFZOr6y28pcBOs1KE24i53jpyrXUW5OutyDSQUuG+SrNMpIUrICVUoJMhXy1Bnorg5JAQZCUCuJlcvIsap1flKEVxtFRXlLBt7mhh2z0xwtLiJMLYfeW4SZ71I4LlCXJbHWwxpKhjUGhSXghOz6dt8+l4Of5PuJMejQjO51lKO+m4d+g13ogBUpwZJpn4XuucEVjviMTnpMq5n49DX/JJVeVrTciLNWK3JAp7lHKUmry1wPNJhaa6XFhjsWKZ3ohn6SZ1f7QE86dMhW60r8gXOW3UCARNGE8gnYT5YZPxXXkInqPv+ieXGZ/Euej7eQhWdGMiO6BUYp9KiT1aBYr1dA5NBH5SyznmSDpPYdip1iBDRUBl06rEFFRWitzVknoZGe8L6Hvnk5ufY1BfeC/Pr88iJS5ucORxZBucSNM68IXKiTUKBlUcFkkTCCbkkUi8CSqWST0ElTjhbi9TEhhVBC/1XHwiu1HYKun1+Fg2F8tlSV6FScDhBBdXCsw/RbvwoSQBKyVJWBvlwacRDqwnUG9QebDREI+nFCY4R/pB4jsOk8b5Ygyd//tNVqyxzkP6dMMVA3NujBwxQUHDwLxalg2LlyAmYhrk431I5VhEH2IeNdyi+HgU2ZzYkzCffhwOvKCWISVyMkKm+mDyJFKR08cjOngSvk0N9SkC5EcOcrEdc3HcNgcnzR4cIijwqPOWuHBsjSfXOS6K3FJSPuSaZZFbnU8g5MBvrjnO0yDZXcyympFr9IIyT2MlFWr1zt7Rk6LUkUoh40ED7ofLIcBwcDzvI19LENBEewcSSMUU8qi0lZQnP6YGfLFx9pyvmpFMT8pLhyJq9Dz1btd59bVLSwrWZialaBR9qGJaI+0zl5Q4D3LlCgC5UGBxo9DuJvXrQKbdIgKt+TvtIPW7m6DJLnuujlSnhgBEsGew5JyPGshIkSM9TkoqMFoMPrFrzMfCfbj7zDYxsynbY0daggdrE+PwLsH0F+R+PyhV4q7waEykazJx1gRMDvTF7LGjoR83ATdOC8MTUhNeMSaJ+fypTivSEu30WXR8KXSN40gREtB40sEOl1OUCeF58+JmpVcRTGPFTKkcz6UHfbI0MvEeHvXPpWvIYT7b6Ua7iW6UG3VqbCL4fSZPxKcEyFWkED+OSsZSUotLYuZhsWQ+Vsvn4BOF17h6olB5542huTg6hVRnEpZIkskSCZJxWMpuOdu/AJhvm+fgXW0yqVk3Vs22Y2MoeUMRbmwIt2FliAHb1TdgseE6vOCaB500Bj5cZoXEwq/pJrCalPCVAtMyOxQmumEOk+gqWJatWgrpxBEw+vngLa7/Pe9GpNnceD/BjV8kufGIRg1d+ESEThuJoCmczNUHSdGBeIkA8Dk13DyjGwd0dpSZ7Ci12AgceqEwhkacs8k1zSVXkPvISsml36+hNUEp18Ij2EqsJXd8C6m2IdtGz6eRm8wDCDvtGuFuc6o3hh8Di2PvtrutSKXj20Ju7JbkJJTb4kjBOryjyRY6JncCcuJTkOZJpM9wk7rz2jq7C5/SDWCNxY7VBKJPSCWwfewmV4xstZu2c/HAEyk0gl8Gbb/T5iK3lxpRkgebSXVvcpvFAEuWx0IgI9jRd+UBsJ1xBmE7XFpso+PeSsfPrjA/LiO1vN9kRCkH8tN7slxq+g4KbPbIsSlehkwn7YPcVlZ0aaSkWWmzGudkJNlmUtwur1LjeezeG4ABu+m499NN6YA1Xij+pXTNXqcb1JOkFm+UREI3exqmTfHDGGrcsyb4IHryKFhmBeLWmFl4Ti3FBwbu93ViF527tYn0vZLikJEQRzdKmwAfQ1sM1jguXSKElTwfJyc/SaMb5xekuD/VWrFSYSVQWLA8JuFrFoePJfFYQQBdISCajJXR5BLHsMWL1xmGXH6WbaHULozB85HUJZQlv86K9GPplbvkHxIsP9bMIXglk8KMx1o6ntWa+Vhkmo8/m+bg9QgTnosy4IYwOWZMngyfUSQYRvrg4UgVPjHMu2JgqmbNxII5icPA/KYvyz9ZBr/AcVAr/fEuQehY3Hxsl2nxYtQspIRMxARSnD7T6PVpU7FAEoNfeOgHMJcgRLDI9+iw1x1Lym82wS+MYBaJDOH6RuAzZ7iwze4YbIuToUSfROrKgzSDQwR1b7dZBPh4pDmXA+BJNZYYlNhNjZTVWAkpn2JqqLucErJo70wZUmtbHAasI0W2yKjGH2IleCkqFM+GBuN2WQhuCJ+C+FkBsM+eQHf/KdBIpyIqfAJmBI9G1GQ/RE4ah/DAMZjtPwrB43xEN8K00T4IGuWdERQ4mf6eMgIRU0chdtpYWGdMgGdmAJJmTsSjIUH4uTwCv9NI8QdlJD4glbiBQM7zyzdykhFLCLmfkch3Skllcp5HOUpMCuwzqXGA4JOu1Yi55axSs5w674CHQ4JUctM5pd12s04YD8TwaH2Wg1WaUQS8p5LKzSdXuVCjIfWrF0q40OoNfM86n4VptzUcxfYoFDpJgRO00+Jt2OimRkqK8T2tDnfHJuC6KBPU0yMww98fgeNHUMP3RUzIBOiip+KFsOl4UxZFjV8jBs6E8iWFySPaOQ75pfsw43Ui41MqXcv1Kg1Bgq6RxIKF5OouJAC+LyGXl+tvywkWCheWywkWcgtWSAyi//KTyESsikoQtiI6jp4fgqCTAOPEEo0NS9QOLFHZsTTWKcCzXOaFrrArBObqMCc2RsZhU3Qy1pOxe/4KgfqOWTJY/IMQMcFXFGvjIn9arRZxThc0fpPx0MRor2K+QmAqQmbi7rtuGwbmN3n5zZ/fxujASZgyZRZ+mTwHdyhV0ARNw+xAfwLMeLiDA/CgajbejNegmJRDCTXkEnJHi6mRcjmBQi4zQSqSLY2n91mMwp3mGS55tC4kwBWSwuIBk/T4IKS5phIopxMEZotEwTySu8tqpYbuwiGzt49zp0mP9WSsfl7VaMmlVODeyChEhUZCEUN396lBGDNyBMaPGYVxo0fAf9woRITOREhICKRR4Zg9dQIm+Ph4jX7gvrQePXIU/RB9SRX4w8dvKkaOnwaXMx6P3vNt/ChZi58sUOP71+lx1y2JmDsvCTfckIIUmwwLCEJmgq4iegbCw2Iwwmck/EaNgv9ob33tSf6+mOA3GlMmT0DylFCkzFbBMVWK+3QuPCNT4G1SlYscyXjfdj02OezY5nYiM8GJXLox5bNqJvVWZIhBCbng3H2QZx7qO+QppSZv3KIIsaFzqSMY6qUifpKjCXh+fr7JI+bRZ+tJEZll+MxOEHZrkelheKkJqDIxIJZP+y8luBaLmVUmbCF3eRFB/EVFJO6aNQnJk0ZhZnAQ/APGkY1HVPBsJISrcW+EDW8obsJG2/3Ij3Jjd2wiDpB7z6q2WK9HnkaCHF0E8gwR2EIq/FO1CUujNVgUqRdu8gpFCoFxrnCnlyrdWKRw4kOZFR8qbPhI7cZHmgR8qErB35QpIskuw3TI+G+GDK/ZlhJQl0UlEUjnYIV8HinX6/CxYh7BZw4WS//+/Rfv40OJneBtwkfRBiyJNOATiRWfK9zYTKD8LNyCtTO0eMN8B56SJuOmmWqYJs1GuH8AZozzRWigH2QzJ1PbUON5jR0fquOxWTUPG+nzn58UC7vPJPwo8VZslKVgvSRJ1OZZE+7C6nA71oTZsJbWn0basJrOw2rVfIJ7Ej6TzsXmyCSsDLXjA9rfq0YHps+YiBeef3oYmN/U5dlXnsek0KkEAXLVJk1BECmuMH8fuOjC/ZAa++/0VqwiFzvdbBUzYlL15EIatSJjjFBAnKbMrvWamKLGLqNKgEBklNGrcIDc7r2kAvfIwrHPqCP1SI3WbCGAulEYN4fUaDI+M/KopAU/IuV2uzQcSbOCoJ3kjwj/MQj2H4epBO/JkwJhjZiCG0i13ZGgx303uPHiA7c9/PvH7pj1nzpfNnLh+VxNGDeWoD0JY0mVjiNY+o4dDR8C+DieLqkLx/iIqRgbPAqjfUnBcpwlKdepQRNwx+Rp+MHMEDwWEYGfKaT4nU6F9xxGrEx2YsP8eGwV2cgVQi3mkprm3I/FdP7+v/beA0jS6swSTe99ee8rK8tlZaX33pTvqrZ0N93CCm+EEQIJNQgZJIGE977pbhoaECCEESBAOElIw87EjnYm5r3d1cZ7TzExo/d2JnZ3drVx3vfdrL9UNKY93V31fxE3MiurKs1/8557zv0cFy9+b6APr+TceDlDt9EeYnHdeNXbjV+QrH53dAi/GhsTnTY/JCbJLPRt7whe9w1W0zGJAf88NS6KML817hGAzGD8eioujjOeLGbxaDGDR9MF3DAewKk0Bwm61u31tDGQujDoFbCTnB9spg20pxanjHTia/S8d4TG8Uw4Ikr6/VU8jZcIHJ935wgwktjZTYDVw0BHknoog4dGCtg9UKxK7a44drZHBVjsaSOQbU3TIIboSYnx2CIDY8B9RLDLhHjskQF+PpbmEdzTH8ZdBLx3e6K4ezhObL8ak/loP32OHnqOriR2d6aIKebwgruMlz2T+BkB/9MDUyJm8wfDOVwxEsepgz4UunsQbGmGkyu4K9RoN5jhpw1jos+D7YNj+Kovju/Fi7hnvIzd3goBYAx7m4gZe7K4tMcvAt3tdXXYUNuJM1oH8VVPGD/0F/FAeBqP+QnUaUNgJvxIfx6PeAp4kNjzXgLVn7Ql8RRdg53eHG4cicBs0eDO23/8koxMJ6IMf3Y3anproVYpEHIasMHlxDfHu3ErsZx9aWItuTJ+m6/gw2wG76UCQj6+R0D3DjGdXwTHhWz8GbGVF+Lj+EmCFk5yHB/Sgv/VeB9+RazzTVrMr48R84xVA7y5otF7qU34aXAad5KcurJnCBvaOxCot6HOqBDvQwC2SwdfXxMqiTFsX087+EWnPXiiXLPO5mbRfsOoNxFQElPV6GGwOkSGkkKlwUWJnk9lB0liYEa9AQZiuGYaDhr19PftGi08JI2DNU4kmhrwtZE2XE8skjOGHqaNZ19iVLRreJMGX8eX+hvwxkg7fhnsE9V6uJr7a8EOvBJoEYNBVqqx+UsCMw7WZ8fZWz6S9l6W9/3iPJkdTm8P9wmg5dAr/jtmsf/HkA+/D3DaZhw/LxPglEK4lV7n+qFmXNXlQFenGa3NWrEBOGnOGghMe2vUGO9wIOVpxFdag9hBgHX72CQe9c1g91CZwDON5zuTeKk7jac7JvF01xSB2CQxvLJoycAxlA8OZvHAcIbkeUacRT7aS2BJYCsN/pnHM/0hYnBBeo5x7GsfwzOtXvykdQw/bRvHz9r9eL02j9dbKnitbxY/G5nHXu8sgWkJ3+1L4OudQRQ7fYg2uOExNaFJaSOANMGps6HeXo+W+lacRsz4fE8Q1/jTuDkxifsixAZHC9hHm8CLfTliqXE8SSD5bHcMz/TS/cgErhlPokWhhIqH1QgNbaY2mtcujREJawO2t47gWmKQP47M4s6xIu4YL+G2UdpA6Hl409jdRbJ8LIsdnUMwkuSXkekEtJ+//UF/Zf0slMSASr2NuI8WyCv+MN5KVHO7uar5r7i25YhbeJvfDveLGMnXAx78nFjKy94+vEpSjAv3ig6QXPtxnCT7IC1s7yh+VyLAncth71QUt1WCuJwW3VnjXehpb0ZTrQ1WWmwmnQKNdTqMe1sxNxPBadtP7AotN18wIcJIrEYGSysUSj101hoodAyWKgzR5/6s/92ajcGmskDlbITCRv/D/6/W0XMQMyWJr1aqiK1qCFCJidKc9NqUiDQaMdvjwpneNlydHMB3ilx1PoMPEjn8Ok23qbhg9hyuxA4ZTgt9JtyOn4RJGnOhZS5wHK3mw39Am9wHfgLFtFvMI5dDY289RwC8NzqAN4f78dpIH8nMZlIPtNFxBldyEO+QtP8oFcLvY2H8noD119ECXvUn8TAB647ePnypowWFJheGaw1oJ0mvI8btMqrQ47TSRliLibZ2fMk9gq9FUvhBYRq7uifwpHsOzwyux09o7OsjUO3MCqa5szWApwhYnyQpy7fco/vZXmJhBFQ8nunJYF9zAPvaCDR7YqIC0T4C2ae8WezxEtiOkawNT+FqXwFnDYSFYyZQ14wuux0Osx5Gg1qUYusz1SBsa8VsjRtfbhjHjtYUbu8lgPcs4DlifT8lEH+BGOhznjz29aawpyMqguX3dEbw1GABe3vp87f68LA7hLvCOVxCUnrYVQd3Tze6p4poTcdRPzwIBykJh9GBBhUpJQJmt4IURksPXY9RXByI4XuxMoEnsc1gCbdH8ji7pRMao1oGzBMNKNdv2g57bTPthEbRROr8UQ9+MzWHv6Xd9XdDdN87IIKLf0mL5o14v8hu4cZkfAb5XKIbP433iJqPHyRH8TfJAP4DLaa/9/vx+1Effr6wDffGUvh2cBSn9boQsfPi50VEkoXlaq8dqYQb55w6cdJ9MeYzwwLQDMQedEYbjI5GmF0EgEoFutobcOM3r2z9rP/dkAyJwg4qswkqg4FAVge1VgONRgOdVg0j3TfRfYXaQqzVBIVWT/fV4rlVGgXMfP2sCqQd9VjT0oULh7y4MRDFg2GS8qE4Xosk8W4sib+ND+PfRWkOQ24RqsV52a+P94g4UM7ceSnchVdpPjnFk/stceGUt2leOeeeS/K9nfLi7axf5N8/HejDU6QUno958RIpCO6h8+HQAD4cHRTHKr+NxvGrVBZvxQlk/MS2hoPEpDy4xN2FLa11yDiNGDCp0Ehy3kyDSwKGmuuR7ejE2h4vvkwS+2tDefxgNI97/QXsjJBcj8xgJ8vY0NTSeNhfwT3DWdxOsvyH0Rl8m1jfVaECzvTFMDM4ijABVV9rA1oanVDXGKCxaQU41tM15m6O2Zo2bOwYxpn9QXyvPYBbiG0+MEKvRSz48ZGK6NS4syuDxzvT2NkRwOMdYTzWEcJD9LcP0M+iedlYHrtDFfyso4iXhifwFEnzHwWS2Nbvhre1HhpSaE6vG4HyLIKVWUQm1iBSnII/kYXbO47Wrj7UNbbBzmfeNN8NFhN8tfWo1LXiTLcXl9A1nPd4MEaqQEapE8Duufd+zM7Nw9bYLJhRa/sgKqV5dDsbkFJrcZ97EP8+GMdHoQB+HRnDm4khvJIZwM+SfbTIiK2MD4gzMc4ceYv74ETH8HImiOfyETyWDeGW8DC+Q6xzlHbVZmJI/TUqeOoU8HeqsH1iHNedv3nuZL5+D3zvsu+2tjXAIppTERu0uARg8v3WGhMu2zbxT5/3/2tpI6pX1MGiV8OsU8GqVcGmU4tKTE69Tnhd7QSQWkU9dMo66DV1BKQ1UOvsBJ7GKoDqtOIIgIeORr1ajwGDGTlaeNt63LjYO4anRvrxgn9E5MoLpRD349chL37rp82QlMCL4WpR49dDAyJ06WUCxReCvXg22oN9NNcfEAD8zusVmUh8zvw+t0WORfGLUAgvjY7itUwvXo134+VgJ14d7xZhRO8HxvCbgF+05fgP9D9cWPkdfwivBGPYG0zirvEYrh/w4fKuIfh79RjtMIk02WaXQ5xLO+j62VvoOnSq4aONZ7SlFsPMWheHp96ObrsBrcRc9TqN2FystGk56Zo0GS3osjjhoY1kxNWEM/rGcMFAEFcPJ/B9BuLRCnYOTZKknsSz/XQ7mMCTNPYMxfHwYAT3kPy+aziEewh87w+ncSvd3uONC8fUo91RYpdxPEVguq87j70dGdzireAGbw6nd3kQtpKUJ0bdXF+D9n5is7kicvEpZBJTSCYnEM1UEM5VEChV4J8owzdZRjxfwlAqgTqPG7aGelgUGtTRd6jFYBHqZcgnV1o/rva1b+yAP5KgxV1PstGAhp4uJLJl5IvrkCtuQHffKJroCzjjsuDBQgK7YrToiFE8R5LtFVoQHJD9IUm6f0dS8CPa1X9Ou+YT8RRuHBnFl3s6UaTdta/WBJNFQQua2JdJj5HRTlz31W1zK+k6XnPBKfT5NAR2xBDVhipYqo3QEAPcPhk84Jd8tK0GKp0LJqOWFr2KwFApFr5Zb4CFmT6BooEA0KWywqG2CvluJbZp1lhg1JihVRmhoo1OZbRDZbJCpTcJlqqg5+F0PZVRCY1ZDQ+Bb7LWhS3Euq4aHcGPSUY/HgzgZ7EIfplK4mXa6LjYiCitFxoTzh8+ZhGZTXHuBT9cLZsWGhbl5t4aHRY58O8QGL9Nc/7BUDfep/HeSA/eJ0bFmVYcuM/A+QufB79IVetUvkIKRZSy4zjOxcIkfJb6ZjaA56Mh3DcSIUkfxdldASz0jKBArDThaYa/vQljLfUYbarFeFsjIj3tSLi7Ee/vEvfn6D2sI3b9JQLgSwZCuN5DgDzEedzTeMa7BvuGygSIJTwxWMTOwbw4J7zHncKd/Qncxh57GruIqT5Bcv6pfhq9JP+749WMHhp39wRFxtBudwZP9ufx5EAFuwcncWdPDt9uDGOcJHWL3QktfddtzQ70jPajUJnCZHoO09E5FDKzyGVmkE5PIJYuEmAWECwWESLADE1WEEoR6yQWOlSZRmhqDaKJIoIjMXiJnTe29dB3SoW1GzfJoPlF2nPP//RXW7afjo7eAehttbAQ7e8aCiCYpt0un0BlzVr4AjSJ2bWIzG1Ey3A/nCSX0302vOcJ4/e+OP7TWAR/T19Ozhl/gRbYTcRSzqeFMt7VjJ5aO5y6amiN3VGLlu4BuAMJeJMlNCqU2BAfW3ETfsZ8nDYcAialjuS4gwDKSUxdh3FP50F91q5Go5DbOrtNyHIFgaTCYIKSJKPK7KBbej6jS8S7GmgxsmOJB7eOZWBlULXozfQ/WgHcSrr+Go1KeOmNHFZFf8dDYayDwlQDrckBM7HWemL7ww4tJnsbsD3Yh32jpBp8o6KK029CQZE7LrzwvmG8x2fRoR5RKIMbu3H66TvBQZFswE6nN5M+vJTyi/FKfFxkZb0W8S71JxIVq0iJsALhak58pPNmrJ9AuJtGJ16LtROwtuN1ApnX+sN4rWcCb3Qt4Beda/BaewmvtCXwnHcOT3km8Hh3jmRyFk/0l4gVTorH9rrLeK43hef70niuP4OfEKg9258WoLerM4Kd7SHs6o5hd08cT/QlsZcAkQff30N/w4/fN5THfZ6cGPe7s7ifnueBvup4qDeD53kMFLHXU8QdBLbXDMaxcWCcmG4LyXwdTAo9jEYzGgZ7EdhQwfBCGe5CDoORPDK5jbSmyghnCBzTBYQyORrZxZFGOJtBnEA1lF8HT4FuJ9cjW1hPrHQGxfw8YrkZkvD0PVOq4B0Zw54HHvPKaHYM7Ue3340AySCzrQZKYiWtXW54QykECMh4MpLleeT5fCWZFywzlZ8Q93knHBjxE1sxI9moxbk5H75SiWEDfbGTHQ3ocRHDoYXHTMbkbEFD+wAGvFEE4kVEaCflEctOIZGfQV+HBx3EVlfatR1scsJkrSXQdKC+qVOcZbqtioP+nHxNjCSvud/0sRwavQ1KlU6ALb9HCwGqVUPzRmDPks/mMKO7oQbF3jZxdv19ktI74xm8kJrEK8k5UVnofU4WSAzhgzgDZhupjEa8F2rCb+Kt+NCXxm/GkgSyYWKXflFNn1sYvxD14ZnIGPZNuLE32Y/nYsRYE30EqnV4LVmPN9L9eInAdRcxO2ksDxg/6CZhnOPdm8MTvVns7stiT3/1/hOdKexpiROLzOOBwQkRn7m7K4ddJKf3uPN4fLSAh0Yz2DXEOec+PEnv/66OLjzcO4y9QykRH7nPM0/MdxI/DkzRtUki1NQGm1EnQsa0xNz5vJmPs4bGQkiS1A7GMmLt8H1eR7yeopnJIxrl6QVk8pMwWuj7Zrbjuh3fltnm0bRdTz6D084+jwDPR5OpRW1dE7q63Yin8picW49kYboKbNlJJItrEM+UEIpnxW26MCmAM1uaFve9gRjsxFJazRo0qJSwcWEHHYeRdKDTMwpPPI14jv62tAa5ibXIEADzzzzRDJb8eHfHIBwsE1eQ3XfFlscbzRzuwemFfG6poeuiwCXr0gf9OevNeqhVpmMPmCTtdToD9FrdIjPVw262EHM1w2AwifNQtdkqwNNFw0ubYMamx5TTjlN7urB7KIhn/HG8RHP9Okn4n8eDeIXLrgX5vLMHL8QHiGF68PPkoKgm9TNvF14a7RGtjrmO5auhPrw86sabotUxl7PrwvvhXrzLZeRGop/IrDnUiuR7utLY3Z0WsZw7B3JLOeaPEHN8eJBYY3e4+ne9JKs7woJ1PsrVjjxxEa95U3dGZO/s6U7iifpxvDY8gaeHpnBnbwnf6y5j0tSIICmBFqUGJq0KSr0aCtpw2PnGkQwdvYNLZMMfSQnA5Pu8njLFqSMGzJHxiFiP0UQeViI+HI2xZcupMmgeib3xzjtjl3/tG3RxQwIkebAXbiwYFZkriWQWmWwJiXQJ0VSBgGyWgHMWw8HqBIcTObEj8m0gmha30pdgMBhGP7HN/kE/fP4Mkpl5AsP1CBc2Ilg5BeFURUwss8pgooTxaB7+WEH8nCrOYYgWHBcbvmJL6dmVcr2v3j4tGJpCY4XDXgsjLZ7JsOeQvsRW/n+Sc8caMA0aNUyGKmgy01SoTVAbbFDrOVbUDkeDB3qS7Vpa/COdjdhQCiE/3o5OpwIdNQo00tyNEMDOtXfhirEg7qKF+2y2gtezE/hlqkyg2I5fhJrxqq9BxH++yymxaa+oSPTKWA9+xyXjSE7+ajCADwZJpg90Cwn+87EoniUJzNWIlo9DbuPQncJjNB4hwHugJyFSLe8i4L1rOIO7RwlAvRE8PhIW6ZZ7ekIk12PY507jCRqcgnh/yzzJ/E3Y1bsGD7mJTfomcGrzEAKOZpjpszcaDGIzEccvLgM0dVbRloVleGt9s1g/hYk5sV4YMJldMtmQgPNIATOSLiNJ5EaAMJGejs4+2mj1yGbzMmgeqt1xz70Ix1Nw1TfRhGqhN9vQ0tGNQCSO4sS0GOXyBCqVSUxMziKbKyMcy4qLn59cIDY4KSaXJ5x3Q55kHgyqPPhLEJtZC2+mDF+6QhJ+LYHlWoRIqgUTcwgk5gU4hpLlZRM8IUBUkuUxWlhmkjCnFHwraoJZ4moMTiFzkyOdh/TZrjtn7lL+P4Xi2DNMBnYzyUcBlkr2rtuhMLjo1kaAbyNQ0KNZbcYpyZj4DO/uvdm4/L2WzySpOTGGjh6XCAdy0/uuWJ24qHsU3/Zl8FZmDO+XIng3H8WbiWoNgLe8A3hnqAd/5XXjl74uvEtSnwuC/DYSFuXvfpHwiiImjw6lRe60NA4HOLmU22MEvCyzn6Ah5DYXDuZMGm8JD/jTuH80jnvdETxEYLrHXRRnoOwl51qajyfOwvd98/hShx+R2kaROsuxyAOBTmhrFcIZp9IroXPSptNA186sE44Yp7MGgZGAWCeSBGeiweuIf2bVJtbSEQImq8FUcYbWWFGsx8rUGgyQumN53trSifvuu/NOGQkP0oKhCGx2djaoRTgLZ5qYLTZYrMQcaEKdrlo0Nzah1lWH1tZ2uAeG4Rn0YpAmetQfxbCP2OOQT0y62A0XbxlEWVLwBCUnSGqkMgjRjhYrVOV7NJpFPjOFSmbmY/KbJTmzSkmWM2imJxbgcDgQdTetKMDU06Jhh08DAdK1Z8zcfCj/e8X2ib9jVqrWOo85YDK7N3H4kdokwFJla4bKzGevesE6W0lenjeTPKi5+d6FG71nLqSQ9XWjw2UUzz1An2Oi2YFzvSP4PqmZp/KTeJtY6N/6Y/hH2szfiXbjXb+nWoB4zIPXvC14PdgtquDv8QQ+wTAPlXHezzUyCTCf6svj+Z4Cnu/O45mODJ5oJ3nfFsfDnXmRs37fwATuHJnGzTS+MzSJbw5U8I2BMrxNFjg17CijzcDjxNYt6X+QPu/MoE3EJVvVGjgsZnE92QGjN1gw4B5GuTi5BIw8eL3w2uF1xI/zz0cKmOE0sdX8tFCE47TuxsNJFCsziERTMJpssFkNuPyyi2W2eTD2+uuvn/f0009jz549ePTRR3HnnXdix44duOCCC3D66adj27ZtyKdTiIcjSMTiiERiaGpurxacoKHSWlDT2C7AkydcgCFNNoMl3wpZQWAZTaaQLhaRm5pEMp9HOp1GgR7PkORndrl8LGeXDJzB0gxqCbRbrJoVNakcM8mL6bzJQ2fO563PiIgCjaH22DNMpUJ41JU6i2CWakudOHNlhtvt0OCrFxXfO9xrcPOlZ7hCwS6MjXahqZaLRVsQrW/D1i43vj40iPsSIbxIbPLVKPddSomK98w4P+DiH3T/xV7fJ84uJaCUWOcBq/0MVWtg7m5PYF9rEs+1Z/BMd044gDiHfHfTFMntBdznW4/rA7PY3BfEmL0e9So1rAz4XQqctWF876d9visnOiPi3J7YuZM3GCIlVoNNgCUfcU1MzgmCwaySgZKZ5fK1czTOMONEQMK0ltjnUCUiFfHc6dwEcgTYNocVKo0Sc/OzMmgebXvkoUcJ7LLijFOtMaKRKD2zTJ5kPljmCecvAA/pLCYVLyEYyRLLLGAsV8Bopso2M8UKCvmKYJTMMBkgl0+0BJjjBJjdg8NC6qyka8lgmRzsOazPdNp0GAaVSsRhHmvANKs5K8gkzlvFUBsE0EfaLPj6hsQjR3od/rAo4c/cOIv2ji6oSd2wZGWnSHOtARtaGnB+7zB+EMxhZ5pYYD6CNyfieD2TFb159gxmxNjtSS8BJwPlIz1RMQ4oy8fKQoLv6ckIb/lTQ2U8Ol7BjwJ57PAn8XVPEdvqBxFWWdDKZ5Ikt8d6bdgyH/rD/p/l4oRn2wXJoUs/piS0OmiJYao5OYGAs43WDLO7VLYqu3mNiHWy6OjhIak0XkNHCph9viSB5jwCRERGwxkhz1O5KfhCCUTiOeQmp8X6UuqMiKczMmgeDXv0wQcwWSqixukSntHOjl6a9CRS6er5C0sHPn+R5AVPunRbKmymv9mAYHk9xqbWwUPAOkhA6S8QIFbWfAIklzuA+HwzPLuOJjsjDtBX0jXlupmH+7+bi+MinpJDko49YCqFg0KUsFOaodcb4a4z4tpTMjcczeuR7rUL5wirFj7bVSp0sHDzLo2ONgcCK00txgispyxqXOZuIgAN4MbRJPYO5/DEUFaA5q7FHjwSYD7cfeC+3uwVZ+84FxvmykS3eZK4pHMIebsTPRy7qlPA5FDB7W3Exq2pP3/eZ4gMOmBT7TevDiMUHBFhNsLR2IxRX0gwO2aPAVovvGYkp6l0pCX5BDjM6EgBM1ZagDdO6o3ZZn5WqDiOdOFwQH7+IDPaQgXeaJwUhBkmuwu33nn3dTLqHaJ98MEHNddecz06+nqgNuqhNZvR6xmmCWbPeDXu8mgcSo/F8rQDziJKEiFeYCdPGQEC41iK5H0yA38iLx43Go04n6To//v2nc6VcH2v3xzddrj/G/e5Rd1MZnpHCohagx0qtR4arpikrMZY2nVKWEim8WsoDNyoywWjpUbUAPV1OI/qxhUKhGkjrhU1QdVKDVQKrfDiGg1W6HW0gPWtUOg6oTB2CIarpfdn4zhQJbcTdqDS2YlsXT1O7R3E1eNJ/CBQwIORGTwenMEjQ0U805nCc+4CXvBO4qnxCTwyVsAdo2nc4kvjx4EsLk6txdrhFEZrO9DhqEO9ySQ2Z84C2hALHfJnZQne29y49H+lPpco8VZjc8EbmSCisImIwilIZqdJfeWOeP0c6QglppElMpMpzMEfiqOhpRUmix5fPudLMts8GLvzzruxYf1m9HQPiHPKgdFh9Hg88AaDJLsnkCtPLUlusSse6Q5YmCEGWUYwVUSqPEvynOVIRXjog9EE/TyFJMlyrVaL+YQH//jL25pX+xwFh7oEwFlU6qMaZ8nOHSnO0kpDMEuVVYAlv56n4eh1H7z0lCQ6rPQZNCrx3DxsFrsASk4VZaap1NoE2FgVegGow31tuGRrAdL553mnzIlwHZddh45aG7osRnTwuSKNgr0Bp3R6cHbvKLbT7bqWbkzUtyBF4Oy3WEXKZxf9bz3nW1vtKAz1Ij3YgEtPzW86ks/lrnOKEKu5xJB4n+fNpG6oI3Dv73LT93sDxrPrECtuJDJQQeYoEI4jHcH4BFKFNcIpxMcAgUgUtfU1aGiuQamclkHzs5w/l19+Ofz+IO3gRvrS2jDo8SIRzyMQiyGWyRCFnyLAJLmcXHTspCsIxwtHPGGpyjxG+YyTmCQD41g4ifFwHDkC53g6Vz0TJSA1Wm2i/8//+cZDBvz2wbrVPF+ernoBMA7dkcdhsree62oyaIoYXLUJKj2BFhfp0NmWwNLbdPTAcn3GiyabQWQPOY064UDioG6n1QKz0SIYrxhaE4IkiS+ejODGC7e0HsxzX3nVFZiarCAWCGCouwdOlxV2hxnOGhs6ettJkoZQWZjEms0LWLNlLepMBsQ8HUfts1WiAeEUYzZ+9Tnzw/yYS02A2etBurwOg+EKAhmSxrEisiyHjzNgRjIzSBC75Pvsh5ieX4dEJo2WtmYYTFp4PB4ZNCXb99yLf1OqlNHW3ilCimpqG+EeGEEslkOhQJIhxYfQnKLFtwX4QjHhEY8kiiIYNpI48rCHaH5aAGYoXRLSu9M9AkddEwaGvYJlRuIZAaTNHVykoFrbD799ZGI1z1trnbkKNgbzUXHqMKtkgPq0OEte+IONRyc19fKtxT8MtdgEAKvVZhjtbYLhajQ6UZKOH9eLMBwFQgMd2DqVPekW6zmb527RWxyikEp9fb14/z1NDfDQuuKwOX9yApHcNIESEYHs8QfMGDHLeGFGEBZvKCGO23LlSeEA8voD0NIG1ucZxk233P7Aqlxsb7z/fitn9bhHAyKP1VFbh8bWNro4IeRLUzRmhAcvQQwyliyR9ObcVg51qDp1eKKzxTVI52cRSx35hIUJeFmS8xlmojgt3pfGaIXZ7qLXyiOdyQmG2e8NwaavHqj/+cOHZlYzYDosaiFR7XSdjhQwOTfcZjJCrbMKoNQ4WquhQ4txlk10zQ+W3X2eTUY64dAvFgDRMVi2wOTsgtLiEsyW23Q0WDWo+Ltx7WnlG07m+amrq4OrtY8YugvZaAjN9XUiHC+UzAtwCtMaYseLSPA4zoAZLc2KYzEuG8fHYv5YZilTL1uoqjsuuKOgDfWyr169etjm/Q88hLm1G+Csr9avNDkb0DPsp0nj0IYySlNztLPMCM/ZWCBJcrskQJGBUooPYxkugWWU6/MlJ44KwxSDAJOZZKo4hbbufuhMVnT2ulEulsSkDUUyUCmrgPm/Pnxsx2oGTA6S5kQDi/7IAdOmVYgzS42RmKWpFhpr/cfiLG+8cOGIwPLiU4sYbjMJ5shl6HiDVnFFeUW1MjwLhqZ6JyqpcXzrklNzK2F+3G01aGjtRr8vv/gZVVBqDRj0+sX5vF94v0vCS37cGSateT+9FwbM9OQaZCfnl8L82BHkJTUZLc3BwJX9VTqccuoKdwadcebZ8I0HFtsXaNHQ3ludMAIo3lFYcgdjKVHjkp04Gdpt8uWFJQa5lHFAbDPEHu30pADKUJQZ6PRRYZjsJY/lJ8X7yVZm6fWKxHo7BGjGQkHxXv3ZaRGb95Uthb/+80e7d61WsPzWJafktCqF8CQb1MYjBkwuPMyFNNjBIqqz8/MSiAWaDPjqQuS9I3mvhYS32mVTo4TdbofaYBatN5T0/i06BVprVDi94ltxC3D7xPivbAYTYpk1qG3pEopJQ599xBcQx0y85iI0wpkTwOlDZMlLpGmEQ4yIEDEDDqUIG+Jlev+0Lic3Yox+TpbXLKpSDTKZv8Rr+v3+npN+wnbu3In5+XlYLBYYTRaRK94/OCIcNuyF5vPCQLKASG5KyG0GKGaQzCT5bJLZpT+cRyBSEIxTpDrSxeSD6lRulsB0DvHUDNK5+SOesHHawVgSMLsc9McwHk1jYnYBQ95xMTmdrS3ifCUxuV6klW0p+fC/frfn2dUKmNddsPZSLjLMZ3/qo1B8g+MsRdUhPr9UmqFWawWzvGpd9LXDfY9f3Zp+z93hEh5ss0oLDYEwhy+xslFo1RjytOGcU8srmqlwyFd/nx/x0rSoUcq1GnrcA+KIKZ0n8kEgFS9MHHfA9DFhItAM0tr3Z0iWpycQSEwgkppGrrIJQ8kpBArz9HtinBNrxNGdwWDAQG/X0vzR92jwpJugD3/55oYd7OkmYNRoTVA7GtE8GsZYOCuyabh8GgeEczL+Utph4tgfOvNr5ifXifcg1bvk1+dbkd8az4heJWOpMpKzmxCuLGCMAD1EIK4Vee4KUUh4bPIUWFq6kRjtwv/1i/uSqxUwz54fh16UB9PR7YHrYTK4Go1K0ZNGyf18CBDVOrNIdeSKQyL+0qCB1ekS0tFpUuHaM+cO+wwxX4pDa9aLedPrlFBpWeKb6XVUGGypxeVbyn9YDfOUHe2EzVlPBKRA5CMGhcYArcUlNn9WU3wMxUThWK+/BMlp9hFIr5sWGXklEYHCPoL4BIFjqYwQgWYoPwV/egqjsQrG4vTeChtIYaaRypfF0RxHr0i3dZwiTZ9p2UceP2Eu/nnnrbd81u8efmIPSeiSODTnL38ze5iHxqoR/JNVBsjAJAEkAxV767KVhaUiF8dycG44n4nwLQMm3+f3I/Jc6fVjBJY+rtIyNQd/Mo3aJg6cNcKgV8FmVMOkVcDR1I7Q9GZYW3sw1FGD//zaPT2rFTC3TY2ITooqlQkG3YGLb9hsOljMOgGKamKTGq1eFH9g0ORK70YzPY/JKM4SGSzPXl88LOb3/Ss294XHBhbPJrWi9QZXbHfQ8xZ9g/jWBSvjfPJg7YJNpUs5K4pBKZUrots9hL7hcQFarPBEt4JU+dgHpmcmFqX2lPAF8HFc/5AXg6M+kRzii8dQWZinsVaQFwbWifmtKM1uwUgwJ9Qnx17nK1Wg5dDCwsSMKAXJ/hCl8mO1amMn9KSceeFXqk2szHaR082hQJFIBjGS25kK7RTR+FKutgRezO4kAJVqUR7TQ+XFdEcGSwZsfj/8+vzaYpAUyE3Tz9GIAMcmqxKnTidw69e/jFd3/vCu7bMp0TphlIC+1eNDjbHq+ME7d9WvRsBcm+4X/daVGiNMxgMDJm88/PdaksICMDU6kd6oURug05phrG8XRx8mAuHTZyKHBZbzmQhJbzU9pxlaNYcNaVGr0SLS2b6qY/g4c8ozMiYkOIfrsKOHj54i2Yo4DuPz+2NOWBajUPg12UfQ0T8MFbcmoTnnco4Olx11DbXoH3AjQnjBtW851z2eyCKXk+KucwI0+TMw42TQZMDk8CkGTGlIR9cnzAQ8//zzmeU/P/fya9/lznIqex2MrhbEMtOYmttcTeTPkhQv5ARISfUmGTgloFz++LEcXLaNX5OZrcQq+T6/tmhHQXQ/FIuLkKFAlwMP7jj7E4vMQ6zS2tiKoUiqWoyV7M+/e3xyNS7CcrBLSGuudK43HIyXvMosjZzeqtZAo1IL9qclJqjjQHUtO3qU2FQOHha4DQ540EBzw4yVmaWJADnm6ca1Z6y9QbHKradGJ/wHzOQyxQnhFWfgEiyTmJ+IDjnG648TQxg0uS8Qs0x+DxyFYrDYhSO4xmFGW1M9OlubYDdXkwlq7DYM9PZgmEB0LBCGLxgRzipOJmHGXJqcEQ4sjnZYDpjLQPPECfurrVVYB3rabjtt64b/ffMPbsC9D92Dzdu2o7G1DwZbM7rc/mr5pnwOyXRMFLCQzioZrCQZzrfM9o71hDGblGQ4v6ZUxk1qTZEuTwrJONxixs/uueajT/vMV585Ixw+vd6gCKTmx/73R09cvRoXYWKwtVq/VGOgL+yBnT56g0nIcJPJUgVLvQF1dnu1rSzdVxCIFjKHDpbXbJ+9K9jsrLZbYMZLDHXE3YTLzpz5J4VswrZmR/9BrTchkkijODkrstgYuDjqYziUFlL5mK+/8polwGRJXppZK+Q1n6v2uAdh0CgxO/lJB9xAXydaGmvEmTeP5pY29Pa5MTziRTgSQ2dXj/hu7Q+Yy0Bz4wk1GcEOa6zHpvj3PbVKpINDCIx5SWo5xQF7W/cA7WpJFMoZcVbJQzo3lJwu/LP02LE+w5SAU5LmDJbshGLA7qadrNaswv3Xn/+5i7atuU6wTJ22Cph/ev+x01bjIvR1NlZTGDmWUXvgXHJmfpzFwzKcWaXDZEKtySwKd9RoNZjMHnpHzu0zUbTZq7GaXJG9v1mD0+bDcgrdpxlJX4744DhnluTM8kQKcCz/hTh9mMmKc0wOSk/kaT0WxFkkO6O424KHQJPTUUOBIHY9/thBzaFo3kZzbzabPxUw9zvXPHHsxVsv1H//3OJ1c/6Wf+u062EzWkVjLRGYbrNicKRfAJbk5BFxV4uOH3ExvwBJLgGmxC4ZMPn9MLscGk+AYwpPXXPgOnznnXEK1BYn1MRozl2Xxv/z1kObVuP66691iF4+3FJXwf3IDyTJzU4BmlzUggGTmSWDJVfkSQ0PHvIXezblqx6LKBXo6u/G2YUhGSg/x2oamkVMMacWc4wxMz0GTJbjokrXFwCYzDClM8xgIifOIjOFsuh/Pj29Ab29wyL7ylXTgO2nrYIqRX949Z6RXT/65gcT6VR1MWnNqGlohEanRE1zL4b9yaXWDwyYUgtbCTi/CEnOr8nHAwyYUohTXWs/6mw6PPfIjw44SY/d8yPo7LViZ1vIDONPv37yjdW4ANts5uocG4k5GjQHZpjcrExtEg4eLmLLFY5qdVpE3X2HvDAygx2irYRKpYEvFsWlO66RwfIAxnLcUdsgGgoyYI6EkgK42OnDLPOLcPqw9GfPvCihmKtUHVDJjAgtCsfLyJfXojixINpoMyOOpv/ScgT48zoArStuYoBvqv6/1+655NFvnvKvzTYFXG092HbFHahtcIhzpkAkLDIMuKmY6PORnafdbh7+KDuI5kTVEi5lHytzY/gJEdAan5wRdfs4kD2WKotKzZwNxJ4yTqkMJ6oxWhx6wJ60cCIjBt/nSeGRSs+jUORCAxFkcwmk0zRBpfXCO66wm3BKtOagF92WTBAqpRGhWBL/8b2n/nq1Lb6bL11vtOhJ7mgN0JHENhM7535HKpUKarUaJpLbXAaPB9cPZcBsMdCmaTQIkJXaS3iaDq2YxhVnLPxdTxNtwPQcnc56XLVt7gUZCg/B1Ap4oiGEiyXkClmkknHhmB1Jzhz3wHUuVMxrWrDOYgXeQFjUvm3r6cIN3//eMuDkqMUVaPj9c10Pff/8VwY9fZjbeIH4wBNTJSGhzI4a4SUTbDO/hhjfJBK5NbSjTIkST/HF2pRhbsREdH2IgClXmkciMyUAkwtvVFtPVET+eYLPQVLcErcozme4+G9MNG4qice42EAgWBaH3qHoOOLJSLWgR2YOQ4EoFFYdHrxq3UEv3lsu2S7K/Nc3NOGjVx8+d7WtuxvOXYiYdQpRCUenN4vCGQyWPO0MknymxOdLPDgbgwHTYdAJz6dBbxHMsLelFgy8B/2aZ1fWd5oUon/NbCYpM8rDsAa7Cs093UiUKkhl0oiEg8hw3Yby+uMOmNwWW6r2zmeb5ek5DI+PQ0Obr85iwrbNG/H7v/moGsqH/9a+Yifpa2fMb2822/7p2Wf3jvDPP7jph39y1jVCbbCgZ3BcgGSyuIZY44yQyiyZ05U5EUQ+HE6KVKnk5BrBMHkwYPKotqQgSZHMVFkmVzpZHKH8NAIkAcZJAowRMHLifjwxi3SOQTSKZD4rwDeRnkVHrxsmlx6v3nzuo4fyuTrrnCJIX0zgi7fqV9PCu+b0ibuMOqXoq8PeV87RZmYpgSUzTAZQPnQX1dTpca5SbrNXa1r21Jlww4UbI4fympUeI3xOBS5en5LB8jCtONghohO4Chg3BQwEArTWZhCZ3HT8qxXROs2V5kRqtDcQETGWXBNzPBJBc6do/4xEIgFulsif5ZlnnlmzYicqXG9uKJdLe5Y/Nr1mLXRmO5yN7Rgaj4kSTlw4lEs6cRYAhx4kud8HZyKwfBdyfEJcWAZMvrBcrINbVXDdvAABrjS4QMY4ASLfDxMYxyprkc4siEmI5TO0w5YFs2XAbGxuQm9f3SEvwpnkqFj8fP9//ObhVZXxw6DFLRr4TJIdOWZdVYZLYMkgyYApcsQXH1Oo7bBYnXAQG73ylNxfyfB1fIwdbcFAApk0kZNYQuSR+7+AsL4DDX84V63NmZsShXY4UJ3XKxcM58ExpByvyfGYd9197/L1unrIyo03/fjPnX0D0FvsqGtqRjpfwBQBKXvyWGJzXUqu2TfGzJPAkgdXVxeynCQ3VzYaD8fEmUesTAA4sUBsdK24zyzTT//LTJMT9qORaltPXzKJMfqyjKdmEY5NwGUzo5w9dA/rN85ZSzJzETB/vau4mhbdlypj0KiVgjVyVXSTrsouWYIzUPJgKc5guQSYSr2IXb1wQ0FmiMfRmowm9PSMIJkpI5cvi0pFY9njX3wjTkqT22VwFTJmmtUzzawgRcFYEvnptaKwsNVVD5PNCaerdvn3qG9VTeLmbaeirsEl0qP6PAOiWDAzSJboUWKLXFKf5ThfUK6yzjsRA+awL4jmjm64GprR7fFi0BderO1XWjq/lM410wSQ6dIsAoUCxvKTJNWJvUbKMBNTOmvzocu8x26+7E81XNT2gk3N+PCpa1bTfK2J9RAocmMyJxQEmEatZgkwJRkunWMqqixcVC/n9FIZso6v9ZKi4qiQKFf9KU6I9RE4AQCzUFmHbHFerHE+LkuJCmbVFtl89DZKRCk3t0lUN+OCG3wUxKX6LGbj6vxO3Xb7D/+YSEdgNBvQ2tkl2KAIdM/PiQZJ0u7DYMkl3viAmEMkmtq7qnnsCpXIJHHV1Im+0v1uD7xj44jFk8jmCojHJgVghirTGCvN0666XoQycGGGGy5bf8gX/c0nb9rRYFLg8vXpl/GrJ69fTXOVH22CSqOGwky7vMEOnabqDZccPBKzXAJLqxWnxLtksDwRGGZzLWr7RhAuzlZVHIGRyPo53k6fcAmp7Jpq9wRa63z0xmqSiROv9TDhgBR+KFKZCQO6+oaEurEaNPj4qcMqsi+fe6Yo8WW0ODE8FhfFQ7kFJ/ftYccQFxZmlsnnHNXKJUXRdlev08Cg14rBcpGroms1KthtFjQ21KGzw4sBXwRuovgDmWmMpteKAsROYpj3fffsQ17Mv3vjIUeHS/GnC2dC//1/vvPo2atpjpIDNVXAtDYKwNQs6xrJTJMluJDhi2Dp9/tlsDxBTG/XoJmUWGRqQaRIcj+fo9FE8IiL4ySnkckvCBLDoMlrnd9XNXwwK0IQP+3/unoHYTbo98/qGV5Vk7p79+5O9ojxgrPZbMjnaYdJJsVZJQNktTbehDjrECFGJNd7+/ugJmnIucR2pwV6I90nMNToqznGWpONpKMKdRYtWhpq0drVJzIfmq0aPHHz1w5rQQ8MtO9Ih4fxp9du71hN8zPQ7oJOqxQxmCqFEjajTvQSN+sJMHWmardC2qzYwRDtsMlgeQIZny+7IxWE8murkSKJAmKJCgqFCK2vNLiIjp+k8XB6FoPhMq2tGeSz1doPLJNz+QryOXo8kUU0kRePfRaYHd2ukp9T/DuSg5FA06K1ru7v2re+9S2pvaZosxuMx0XnSA5uHafdkek6T1ggkkU8kYF7YFhUdudYTy0tXj0tZM4y4jad3DyJ4wA5Q0TLVXZEd0KNWNQ7b7z8sC50JjPmCI/2/ulf3nxgw2qalxantlp5iK417+wsi7jbYjUWUwWXy0VfXgXG2uwyWJ5gplRpMJyYQii3RqydeDwv1FskHkCqXBBhfCPpKRozooAvO1rTqRLGCVQ5RtpH4MTrrlCeFYApQvy+gPJwoeyBU5+7+gZh1TtpnWv/8r1zuWyrjm3Ozs4KltjZ3490sbgYajAtqLo3EENpci2x0Blks1MiH1WUG9ObxeAviFZnEAzTrNegxqQWC5wbKTFg1ugUePG+7/zD4b6/0d7mHf/4xkOb8Dd7datlTiya6tkk92hnkOSe4garQ7Q/0BsN0NNc9dbq8a1z5nMyRJ04tjk9+EdeC+O5OURysySBSQrHSPYSGEYyOcTYCVScQbS8gHiF6z6sITZZgX90HP7sLIprv4Rxksu+eJHAdY04Z4ynSP3F0sf+jPMgQdkbjEGj1dJGrl3dm/WOG76Fzt4eUUqsq69fpCUmuXkT7XLBCE1YpIQM7YopmtCBgXGYzZzqaBDJ/AajTQAkM0unQQmLQSuKl3IHvXqjAj+7/7sfHe776ux0OP7ji/f78PbjztUwD5ydo18sesG1DLnkFte3VJkdwvkm6hjqFbh8c/4PMkSdWBbudsLqrEWktFaE6+ULBJDxAknqaSQm5kVH1Eh+AoWpefQODAm/AFeBsnDF+uZeuP1phIsLAnB93Kk1NyFqU3IQ/IkCmDz6h8ZFgWol925aZuBv7WqzmblZIfvMFpuQ4EPDPlQmZhEn+cCAWS6vpQmsoLNzADqdTfSc4d5CXIpMkuR6TuUjwOTCo+z0eeqWrx/xboQPHu1aDdf/2xeunzKIIw2N6ELImw6XbFORPFfRdeUjjgs3ZmQpfgJah1ODls5exEoLQkrnsiUBmNHcPMYzM0iW5xGKplDvssNByis22ILTZpOvnb8+f217WwvUegN6RgMEuPMY5nqyIkW5SMru2LfpDR7q38dLcFjUSCbUHwfN/6qoWXUTf9NNN/3n3t7+xV7LGliI3fT2jsLrjSIUSiFDX4R8oYK+/kHBgATAOmqF04fznhkwOTWTW44yYB6u0+djE/HhrtHVcO2vOmvmBQNLcgJKrkbFLSpY5mnomnJdyk2lMRksT1CrMSlFi9pYYRZpUmfZdI4UWhGRwjoaCxgei8JpMaLdosA316//xBHTeG+DyPBqI6IySv8XzJGkJ8BMplPHvtrRYf3fBNq6+kXabntX/1mr/gtw+ulnVsGQ24cScBpNNtTU1qPP3Y9YIo5wNIT2zhZYbEbR94OBkivrCKcPd5pTakQ9xsN1+nwMMP/+xVWRonXO2lS12jwDpsYoWlQoVTrYiZHkfG0yWJ7AxgVTxqIZIccL+QqyyZRgmKH8OvjjFSgVWvTXfb6nmY+wFGoVmt1eDIRTSE9MIZnPH/9c9AOMmlo7n7d/cz+JrjopJ3L3ow9fdN111+H666/HZZddhq1bt2LLli04++yzsW3bNpRKJcxMl7Fu7RxO2bQOc7PTOP1Lp2Hj+g2oq6mniVZBo9OKczV2DvFg73hPfwd8gSG0tNdV24vyWYxeASt7z7nIsUYvqt/s/uFX5YV+kMb92PloQ1Ra15gFy+SNJ9jrkK/hCWwXnTp3PreB4BqYgWQJ5fIEMomkAMxAdh1UOhc6mw/cLG4h0VctOqMzQe1qQiCdRyCROuEBk9nm9GTdJ0DzpLO9b7xhUWhMwjnDLFGt0sNgoMlQqqrlwDRqmBZT7BaDU8Vgms3ZJJxdIj3GHlupDqNUXoyDqTkLxWzRQcVVdbh/DO2keg23R9CgVqHGnV/7hrzYD9ImM2HBRBwWq+jwyI3QGtob5Ot3gtt0ISqOpPyRFGKlDegcyyC7sBXBfAGWxlrULxaSORizcKV8Wkd6UhlGrQ7ZeFykMYog82S19Us8P4sQO2sy0yJLR7Syzk6JLB2pU6vUpkZqSCiN5Z1epW6vhwqOn/V4PN7MOPHhyc9ctp2Bnl7PYj9pFQzEYHhSOBiaQZMBUq/XC4BcXuSBH+fB9/lxCTClIVq80v8YDYvtXQ0sIfUw6mjB08J3KpT47kWXygv+IC3iGxJVimrsDuHg6arT4rqrz7lUvjIntg32NKG7q0OcWSaK6wjI1ginTceAGyrjofW+iQ20i/YgegJLHr2dXUjnJkQyCTuTggmS+dyDnFtZl9dWnUyLwLc/YErAeHQB8/NAcxLBWEQqRzh+0k/s7Xfc+1OuoqLV6gX1N+n0sJurqXYC+Igt8n0GTwkgparey4GSfy8N0bVQpxSAqTWaoNLS8xntMKuqkvwrW7fJgHmQNuTuhcXRJNh/f40G155RuFm+Kie+uewmdHR0IF+aQygxiVRhjWhRazAosGFt7pC//3YVsUxt1aHKZ9ieYZ8I8eMqQ+FUSbSA4QIfEWKPHLe5P1juD5pHHzAPPDo6jCe/RJfs6aefrtmy5VS0NLUK4JQqevPOYLFYxGBglGQ4gyaD48dY5eJjDKxc8JazUUQ6HwEmB7cbNQbBkjZVKjJgHqR1tjTQ9bOI2LxrTyvfIF+Rk8PMZiM6OnuRJXmcTE8jFEyi0WFFoLf2sL77bWaFKBwtIlWUWjicdfCOBVGamEVxcg0S+cWOsATQsdzMEhh+GmDuP74owOSxcZ1j5YCmZNdeuwNNTU0C/KTzSqnYg1TZ+0CAadapSJbrBGAKz67GKOIHWVqk/D45wPUAhg9+JLJ2bASUfM0u2TyD//La/evx0cMCNP/rG/fUylfpxDWOl43Ec0hnZ1ApzaPNVY8WveKwiUJ2uAWcwKAz6EWJP/Y9tLR2IhxJIpOvVAt8kzTn8VnA+FnjiwRMlu7rFlwr41xzf+P4S6/X+7GyYVwTTyor9nmS3KpVwWo0iJhBBkzOJWd5ruY0vo6Wj31xPrh9W428xJaB5W/u0eL9m0RLCbdNgfXxYZmRn0R25ZkLEYXSKIptTM1sxojbBztN68XzqW2H83z/4x/eFAV7DYqq009nc4pIFSYgHe09S6DJNWtFZbFk8WPnlcvH/nL8iwfM6uufcdbYyjnX3N/uvvvuO1Kp1JJMlxxAn+f04bqXNkO1yyEHrXNYjM5iERNutejxzG0XYBlg9svLbBlg7t2rxl/fd418JU5Om8kGiQW6xNllJjcHi8qMytiRb3ptNXoRymetqRHHZgyadrsTwyM+UdWoWJlDvlKV6BIAskec213zkDznx+sMczlg8ti8KSxwZCzoW5mEgAtzzM3NVZtsHSCsiHdDBky9wQSNxS76aWtt1mrsJo17d2xZukh/de9ZQ/Iy+zhgylfh5DXfQAf0zjaUZk5Fe9sQzIqjU6U8HfQIoFTrdbCYzH8BTVsN2tq70dXrQb9nDENjoY+BpTjbpLEcNI8nYC4HTaPeAKVaiWAshD2P7lyZwPn00z+vmZ6eRmNjY9Vrp63Kbq5QpLW4oFAZl6S5FMvJP7OclyqDb53NyzJTthVp/S0NqOnzIZLJC+Jw3tT4UXPWiUaAWusSOZGOxpaH+vFj7KTl9VZXV4f29nYMDAxgfHwcsVgM6XRadHvlXlw8IsVZRNlZRIPrYAbZQZQsfyGAyfdrO/qhbeqFscmOr155zcrFhX379jWtW7cOzc3Ni947jaiowznjy/vN8Nkns06JlfJEhjydMmDKtiLNodOgL5RCTUMj2m2Ko/o9rzdrRcacBIwSMeGfGTSlx6V4aakdM/8dr0EGUl6PDZ1utPWPoHtoHP3eELyRNIFlZQnMRnxx+KO5T4DbsQDNYLKE0XhJACY7sk6Z2bjysWFhfg5mk2FRJlQrt0stYPlMkyeJhyTnawwqvPrAjXfJy0u2lWYc1dDuGRFtWy7aVDz/aD53pL9RxORKwMhrS4pWWQ6iy4/KJPYpAWq1WR4THAJUTTWSxWpzoKGxGU3NrWht70JHvxutXb0EmoUqsB2i5/1gQHb538QLswini2im16611yNOAL4qviznnHkanBbDkgxn4OSdbblU4McMagVuuepMmWXKtqLsmjMWOrRqBi0thrrqjvr3e0tu9A/6/QBTAk0JLKXsvOUsc/nfCx+Dplq5nwvkaBa7InAqJz9erV1AatBkRUdHGMPEQONcmi69P2hWlo2JT/n9gQFUeixMt8lKHrnyJNxuLyzmGrS2deG+B+5fHRgxMTEhYjkViyFJLMOdTqeYUCHVNVp8aSomA6ZsK8o2V2J/5EQDs0JxzL7bpmUO1yUAXAz1kwBTAtDlLHM5w7SbDXBYjLCZ9AIoGTz5Phf7ZhDlIi9GI6/XKiBbLNXb9m43xkMBhBIlTK3JfgZIHnocKD9fvJRCYXYO49E0otE8nK4G4SC+7KrLVwdOcPYQt7uor69fmjSeXIfDIQpyjLbKFXdkW1nm62mkRW5GqvfYNQizqv5SEEc6m9wfMKVOohJ4SkNipNzplTPxuHkeHx3wz9wBlh/jIzVurif97YFGZ88AegdGEYhxMRB2Fn06iP7l8U/+PhgrIDtdQKJSQXxiGtF4WXTY5K4PXA1t0+b1qwcrdu/enSmXy0vnl+JWSXKd7t9x0ZwMmrKtGKsxEvuzNB7T73SN2bDkQF1+jil5zfm+dG65vGiOFDctmKeuGvInwv60+qWf+UxTFOPRGw4aMD9rOF21S7c9/X0ErG50EEP9pKSfEEAbzxfgT+XhyxeRKcyJ7KXixCS8vmEBmsHgKmsffeutt74VDAarMl1nF3nlF00OyoAp24oxCy3s2s7RY/qdbqpzLZVf3B8wJUBkdimlKi+X5pIziMMAuUYtD24fw7c6s13c51x1u5GedxkjPdKxfyagyWxBZ3e7AMt4qoyxYBqxXAHBbBGeZArR5AQGRvxo6ehEY3MdXDXWal3QT7Hf/DPaVzxwBjwjoj2nmaj/y4/d8Yq81GRbCdagUhxzAtBdPcpaShKRwookyS2B5ucNi5WkvEEDjYIYqcIBjUoPe40WSrNCVPbXaCxHDSw/C0D5fdjszsUaFU7UNEXhrNOj0WITZ5eO2hr0D3qQKxXx5fPP+5ebbrvlzbfe/eUP/tu//dvG//u/o3PVfbkuvuQK1DhrcdmXFmSWKduKsMvWRRaO9WsM9zcfMWByNSXOFrKY7MQkzfuBGd/qjylgSmeu0lCrzegfmsD6TTO44txz/+fjT+z58I233rzr93/3d6f98z//6wgAOfuNbd2mjehrsMiAKZtsB2m+oY4DAuZyCfxpQ8ndFpQc5mc75sD4eWP557rp1qcvkmf3ALb32WdH9ArFv3zzvPUW+WrIJtvRYZgHAkyH2QWtylrtQKrXHBeAlO0wrVLM3C1fBdlkOzjrbXcdsSS36W3QKl3Qm21QWxRQ6dUw6hwyKJ4M9vzzz5vkqyCbbAdnbQ3mAwLmgYZVo4VR0wiTrQFqhwJas1EGRdlkk23lWY1VeUDAlDJ6PmsYRc0HZqoWKPQKWGrrodNYZUCUTTbZVpYZ1YoDAubyPPJPG6LAt64NTR1eJGdTMkDKJptsK8/OWZu+hYtiHOiMcv+yb1JdWmnotcQqVWqMdclgKZtssq1Qm44PQaE6sFPn0wpwSA0MedhsxEgVShouaJRyWJ9sssm2Am2w1S4KdR8IMKWCHMvTEpdXaNcbFLAbrbCqamDQ2+hn+exSNtlkW2Hm0CmgMRgPSpJ/2lhy6qgUMBmsMKnNMBktH/ud7PiRTTbZTnpbSI+KYr8W24HPMPfv5Lo/kFrqXLDbamHUaj7GRuUwItlkk21F2EBHvXDYmEyGAwKmFD70aTGYotiFzQYNS3G9Qg5Ol0022VaWnbYm9ZrZwn3JVTAadAcEzAMxT4XVQdLeCb1R8bFCGyNDdhk8ZZNNtpPbvN3cvloJhVoHk/HgvOSf5fThoTDZoTPVwGzj3ls6OR1SNtlkWxm2fcPM26ISulIjWklwk8GDcfosl+XSfen3Tm0NMVUFVBoFtJqGRdDUyyApm2yyndwWGOyqtnYxWqqtJhazfA40pJ7kXH3dbDYvOXfEzworzCYFNNw5UmeRgVI22WQ7+e2s6chO/WL/HrvDVS28q1IcdKbPUg+fxX5aHLQuyrvpnHDaCYT1/Leyl1w22WRbATbaYoFukVGazFYBfDUux0ExTGaVDHZSQzTFYqdJi8UCrUJH4KkQ3Vs/CzDlqy+bbLKdNJYf60KdQQGLvtoOl88gGfSs1gPHYTJASoDJ/8f/Y7PZhBzn+w2uRuEhV6jMBKIOkut6GSRlk022k9M2TOfBUtyiVcBpNYmOiQx27PzhcSDAlKS3lDtut9sFgCoWi28oFSpoDUo0tw7JICmbbLKd3MaymYGNveIGjRJqlUIwRKPJArXedFDxliJ8aBEg2eEj3Xc4HJ/ZslY22WST7aSyQJ0DCqUeFkeNAD4GN52WvdkawS41BvNBx2Eyu+TnkADT6XSiWCxi166dMmDKJptsJ7dlQwFxrsgAxxKaB0txZpyLZ4xL3m6+ZdnNjhzFoiddseggkgoJS493dXXhrLPOwquvvvq+fJVlk022k97WJobhNOqhUFuEo4ZBkcGOx/K8cJbmLKulmMrlWTzLgZOdO4lEAt/73vdkNimbbLKtHNtS8v/BqlZUnTvWarwlA59Udk0KRGcQlTzfEtvkv9vf2XP66afj4YcfloFSNtlkW1k2FR+GSU+sUEmAqdXBaLUtnTlKIMm3EnAK5w/9nj3fzDAl4PR4PPjGN76Bjz76yCxfVdlkk23lyfDUUBUsVcQYTRYojAYoNH85m+SzSz7HZJBkia1Y1peHB0v0TCaDhx56SGaTsskm28q13FALWIbrDHoCSjMUBhPUFiPUBtXHAFHydEvOHfZ0u1wunHPOOXjppZf+Vb6Ssskm2wlttbX1W1Jj3X2H+/9Dne0i5ZHPLFmCKxg0dWoY7WbobToht6VCwAySUraO2+3GV77yFZlNyiabbCe24Y07LHx7zzlJKDVGnHfa2hsO9Tm2zOb+YGD2qLZUh4q94hpilRpoTRooDQohySWGyZKczytZovPPLM3PPfdc7Nq1SwZN2WST7QQFyw/uTC5J6egY+uzKQwKsizZlzh/qcEK/6AmX6lMuDxdibzffiuIYizUsRTm3xb/5WK64Qo2RoVFcdeXX8N7b783IMySbbLKdkNbR6EApPHZQgLm5OPbHkTYbTItAyVXTDQ7XUnA5s0epXiXfSoUz+HFJkjO7lILYpdAhnY6D2FViNDY2Y3Z2DW677Q6Zdcomm2zHmV2+u9co3b/q9BloSTIbdHqUExGct7b0MVl+6cbKpo35yJ8H3d1orHNAq1MKkFTpTVCZHVCYnTRqquXaFjN4GByZQUqB6HzLj0uecgZNKdVRcvwwYBoMJlGaTQJO/nlkxIs1axbwyiuyM0g22WQ7zjYVG4RCo4VCSUCl1ArHjZ1GLTFIC93WGPWida1CpRW/V+nNMFidMNlrxK3GaKmC52I2znIPuCTRFYuSXfobxWI8JgMmO37YISQqFhFYcjEOvcG0BJo8VGotrvjqlTLblE022Y6f3XfVxrNbHRrhqDE4m6HQcrk0jWCbGoVSlEzTaJnxsYS2CpZoMZlF4Qw1hwixE0ejhMNYja+UwJCl9vKK6IrFcCIGxtbWVvT392N0dBTRaBSVSgXr1q3D5m3bcda55+HKq6/BjTfdjHsffAiPP7EXe57ah91PPoV3PvqoXp4x2WST7bjZpQtBwSgVGgs0emKKagOxOytMJLXVGiPUOmKTZhcxSKv4O6OyCpA2rmlpUKPGpIVDr4JF+ZcwoUAggE2bNmHr1q0irvLmm2/GE088gZdffvmP770nO3Nkk022k9SyPUZoVQSYxgbYTXpYjQY4bHZYCDD1BgvJYxsMRiuMRjNc9HuXiSS0gWS7imS3WiMeNwigrYYIDQ4O4qabbpKls2yyybay7K6Lp3Y1cGEMsw4KexvsBJxm/lmrgkrBud5a4XTRabQCSFmCmwxm2Kwu6IwOku92KPQ1UBjq6bYBTU1NS9I7nU7jO9/5jgycsskm2wphl75u4cjRCAZpXAom3z+WUiqWYTToxDDotWJw8d/lw2hzEYgaoWC2qTEIB1FNYytOO/s8PPfiq38tX3HZZJPtpLS931xvGW53Cu8zn1MyMEoNxqQA8+XtbJcHpX/m0OqhVGmEp9tssQmvN3u4+bHaugZsXL8J9959n8w6ZZNNtpPLLl0bhkOnEOXXdHrzUlXz5Zk4DJ4MolJ1IWaf+4/lLWwtZqNgoFLrCYmRcu8ekQlEo85uh987ih1fvwbvv/v2xfJMyCabbCe8jbYaRAdHbkhmITao3K/EmmIxHEgKCaqOxbhIpXppMHuUhnoRFLUEwtJ9bnbGQ0egWWsyitcU3nZ6zKRTY2a6go8++qBLnhHZZJPthLSrzpyGkUBrppLD6du24NStm7Fpw0Zs3LgRGzZsWBocGzk3N4dyuYxsNot4Orc0Epn8J0Y6HkE2GUMuFRe3yWgI8XBAjEQkiGTQjzz9rpBOiL/p7GjBxGQRv/pQDjWSTTbZTlALj3ZgzCv37pZNNtlk+1z78ZXr3c311tg1114ns7oT3P5/bo2/y9u0X7wAAAAASUVORK5CYIIOmXXKJptsx5ldvrvXKN2/6vQZaEkyG3R6lBMRnLe29DFZfunGyqaN+cifB93daKxzQKtTCpBU6U1QmR1QmJ00aqrl2hYzeBgcmUFKgeh8y49LnnIGTSnVUXL8MGAaDCZRmk0CTv55ZMSLNWsW8MorsjNINtlkO842FRuEQqOFQklApdQKx42dRi0xSAvd1hj1onWtQqUVv1fpzTBYnTDZa8StxmipgudiNs5yD7gk0RWLkl36G8ViPCYDJjt+2CEkKhYRWHIxDr3BtASaPFRqLa746pUy25RNNtmOn9131cazWx0a4agxOJuh0HK5NI1gmxqFUpRM02iZ8bGEtgqWaDGZReEMNYcIsRNHo4TDWI2vlMCQpfbyiuiKxXAiBsbW1lb09/djdHQU0WgUlUoF69atw+Zt23HWuefhyquvwY033Yx7H3wIjz+xF3ue2ofdTz6Fdz76qF6eMdlkk+242aULQcEoFRoLNHpiimoDsTsrTCS11Roj1Dpik2YXMUir+DujsgqQNq5paVCjxqSFQ6+CRfmXMKFAIIBNmzZh69atIq7y5ptvxhNPPIGXX375j++9JztzZJNNtpPUsj1GaFUEmMYG2E16WI0GOGx2WAgw9QYLyWMbDEYrjEYzXPR7l4kktIFku4pkt1ojHjcIoK2GCA0ODuKmm26SpbNsssm2suyui6d2NXBhDLMOCnsb7AScZv5Zq4JKwbneWuF00Wm0AkhZgpsMZtisLuiMDpLvdij0NVAY6um2AU1NTUvSO51O4zvf+Y4MnLLJJtsKYZe+buHI0QgGaVwKJt8/llIqlmE06MQw6LVicPHf5cNocxGIGqFgtqkxCAdRTWMrTjv7PDz34qt/LV9x2WST7aS0vd9cbxludwrvM59TMjBKDcakAPPl7WyXB6V/5tDqoVRphKfbbLEJrzd7uPmx2roGbFy/CffefZ/MOmWTTbaTyy5dG4ZDpxDl13R681JV8+WZOAyeDKJSdSFmn/uP5S1sLWajYKBS6wmJkXLvHpEJRKPOboffO4odX78G77/79sXyTMgmm2wnvI22GkQHR25IZiE2qNyvxJpiMRxICgmqjsW4SKV6aTB7lIZ6ERS1BMLSfW52xkNHoFlrMorXFN52esykU2NmuoKPPvqgS54R2WST7YS0q86chpFAa6aSw+nbtuDUrZuxacNGbNy4ERs2bFgaHBs5NzeHcrmMbDaLeDq3NBKZ/CdGOh5BNhlDLhUXt8loCPFwQIxEJIhk0I88/a6QToi/6exowcRkEb/6UA41kk022U5QC492YMwr9+6WTTbZZPtc+/GV693N9dbYNddeJ7O6E9z+f26Nv8vb;" vertex="1" parent="pdbDPgBVpFcdV0zUKIh2-5">
          <mxGeometry x="18.708762886597857" width="101.58401611124431" height="76.7937089426996" as="geometry" />
        </mxCell>
        <mxCell id="pdbDPgBVpFcdV0zUKIh2-13" style="rounded=0;orthogonalLoop=1;jettySize=auto;html=1;entryX=0.5;entryY=1;entryDx=0;entryDy=0;targetPerimeterSpacing=6;startArrow=block;startFill=1;endArrow=none;endFill=0;sourcePerimeterSpacing=6;" edge="1" parent="1" target="pdbDPgBVpFcdV0zUKIh2-7">
          <mxGeometry relative="1" as="geometry">
            <mxPoint x="520" y="570" as="sourcePoint" />
          </mxGeometry>
        </mxCell>
        <mxCell id="pdbDPgBVpFcdV0zUKIh2-14" value="&lt;font style=&quot;font-size: 29px;&quot;&gt;VER&lt;/font&gt;" style="edgeLabel;html=1;align=center;verticalAlign=middle;resizable=0;points=[];" vertex="1" connectable="0" parent="pdbDPgBVpFcdV0zUKIh2-13">
          <mxGeometry x="0.0282" y="3" relative="1" as="geometry">
            <mxPoint as="offset" />
          </mxGeometry>
        </mxCell>
        <mxCell id="pdbDPgBVpFcdV0zUKIh2-15" style="rounded=0;orthogonalLoop=1;jettySize=auto;html=1;entryX=0.5;entryY=1;entryDx=0;entryDy=0;strokeColor=default;align=center;verticalAlign=middle;fontFamily=Helvetica;fontSize=11;fontColor=default;labelBackgroundColor=default;endArrow=classic;targetPerimeterSpacing=0;endSize=7;" edge="1" parent="1" target="pdbDPgBVpFcdV0zUKIh2-6">
          <mxGeometry relative="1" as="geometry">
            <mxPoint x="690" y="610" as="sourcePoint" />
          </mxGeometry>
        </mxCell>
        <mxCell id="pdbDPgBVpFcdV0zUKIh2-16" value="&lt;font style=&quot;font-size: 29px;&quot;&gt;USAR&lt;/font&gt;" style="edgeLabel;html=1;align=center;verticalAlign=middle;resizable=0;points=[];" vertex="1" connectable="0" parent="pdbDPgBVpFcdV0zUKIh2-15">
          <mxGeometry x="0.1739" y="3" relative="1" as="geometry">
            <mxPoint as="offset" />
          </mxGeometry>
        </mxCell>
      </root>
    </mxGraphModel>
  </diagram>
</mxfile>
